<svg width="178" height="16" fill="none" xmlns="http://www.w3.org/2000/svg"><path d="M42.704 14a21.21 21.21 0 00-.4-1.184l-.416-1.216h-4.32c-.139.405-.283.81-.432 1.216-.139.405-.267.8-.384 1.184H34.16c.416-1.195.81-2.299 1.184-3.312a143.7 143.7 0 011.088-2.864c.363-.896.715-1.744 1.056-2.544.352-.81.715-1.6 1.088-2.368h2.384c.363.768.72 1.557 1.072 2.368.352.8.704 1.648 1.056 2.544.363.896.73 1.85 1.104 2.864.373 1.013.768 2.117 1.184 3.312h-2.672zm-2.992-8.576c-.053.16-.133.379-.24.656-.107.277-.23.597-.368.96-.139.363-.293.763-.464 1.2-.16.437-.325.896-.496 1.376h3.152c-.17-.48-.336-.939-.496-1.376a33.53 33.53 0 00-.464-1.2 526.4 526.4 0 00-.368-.96 56.456 56.456 0 00-.256-.656zm15.307 6.432V14h-7.408V2.912h2.496v8.944h4.912zm9.382-8.944V5.04h-3.344V14H58.56V5.04h-3.344V2.912H64.4zM66.805 14V2.912h7.488v2.096h-4.992v2.176h4.432v2.048h-4.432v2.672h5.36V14h-7.856zM85.532 2.912V5.04h-3.344V14h-2.496V5.04h-3.344V2.912h9.184zm5.428 9.184c.352 0 .64-.027.864-.08.235-.064.422-.144.56-.24a.853.853 0 00.288-.368 1.27 1.27 0 00.08-.464c0-.363-.17-.661-.512-.896-.341-.245-.928-.507-1.76-.784a15.344 15.344 0 01-1.088-.432 4.355 4.355 0 01-.976-.624 3.12 3.12 0 01-.704-.912c-.181-.363-.272-.8-.272-1.312s.096-.97.288-1.376c.192-.416.464-.768.816-1.056a3.631 3.631 0 011.28-.656 5.567 5.567 0 011.696-.24c.747 0 1.392.08 1.936.24.544.16.992.336 1.344.528l-.72 1.968a6.217 6.217 0 00-1.04-.416c-.373-.128-.826-.192-1.36-.192-.597 0-1.03.085-1.296.256-.256.16-.384.41-.384.752 0 .203.048.373.144.512.096.139.23.267.4.384.182.107.384.208.608.304.235.085.49.176.768.272.576.213 1.078.427 1.504.64.427.203.779.443 1.056.72.288.277.502.603.64.976.139.373.208.827.208 1.36 0 1.035-.362 1.84-1.088 2.416-.725.565-1.818.848-3.28.848-.49 0-.933-.032-1.328-.096a8.047 8.047 0 01-1.056-.208 6.618 6.618 0 01-.784-.272 6.423 6.423 0 01-.544-.272l.704-1.984c.33.181.736.347 1.216.496.49.139 1.088.208 1.792.208zM105.473 14a23.082 23.082 0 00-.4-1.184l-.416-1.216h-4.32c-.139.405-.283.81-.432 1.216-.139.405-.267.8-.384 1.184h-2.592c.416-1.195.81-2.299 1.184-3.312A144.32 144.32 0 0199.2 7.824c.362-.896.714-1.744 1.056-2.544.352-.81.714-1.6 1.088-2.368h2.384c.362.768.72 1.557 1.072 2.368.352.8.704 1.648 1.056 2.544.362.896.73 1.85 1.104 2.864.373 1.013.768 2.117 1.184 3.312h-2.672zm-2.992-8.576c-.054.16-.134.379-.24.656a276.929 276.929 0 01-.832 2.16c-.16.437-.326.896-.496 1.376h3.152c-.171-.48-.336-.939-.496-1.376a33.05 33.05 0 00-.464-1.2l-.368-.96a62.53 62.53 0 00-.256-.656zm17.951-.592c-1.163 0-2.006.325-2.528.976-.512.64-.768 1.52-.768 2.64 0 .544.064 1.04.192 1.488.128.437.32.816.576 1.136.256.32.576.57.96.752.384.17.832.256 1.344.256.277 0 .512-.005.704-.016a3.43 3.43 0 00.528-.064V8.144h2.496v5.488c-.299.117-.779.24-1.44.368-.662.139-1.478.208-2.448.208-.832 0-1.59-.128-2.272-.384a4.746 4.746 0 01-1.728-1.12 5.08 5.08 0 01-1.12-1.808c-.256-.715-.384-1.53-.384-2.448 0-.928.144-1.75.432-2.464a5.213 5.213 0 011.184-1.808 4.95 4.95 0 011.76-1.136 6.143 6.143 0 012.176-.384c.522 0 .992.037 1.408.112.426.064.789.144 1.088.24.309.085.56.176.752.272.202.096.346.17.432.224l-.72 2a6.106 6.106 0 00-1.184-.464 4.75 4.75 0 00-1.44-.208zm9.874-2.048c1.664 0 2.939.299 3.824.896.885.587 1.328 1.504 1.328 2.752 0 .779-.181 1.413-.544 1.904-.352.48-.864.859-1.536 1.136.224.277.459.597.704.96.245.352.485.725.72 1.12.245.384.48.79.704 1.216.224.416.432.827.624 1.232h-2.8c-.203-.363-.411-.73-.624-1.104a18.383 18.383 0 00-.64-1.088 20.062 20.062 0 00-.64-.992 10.11 10.11 0 00-.64-.864h-1.232V14h-2.496V3.072a14.162 14.162 0 011.68-.224 21.864 21.864 0 011.568-.064zm.144 2.128c-.181 0-.347.005-.496.016-.139.01-.272.021-.4.032v3.008h.704c.939 0 1.611-.117 2.016-.352s.608-.635.608-1.2c0-.544-.208-.928-.624-1.152-.405-.235-1.008-.352-1.808-.352zm9.895 3.536c0 .544.064 1.035.192 1.472.138.437.33.816.576 1.136.256.31.565.55.928.72.362.17.778.256 1.248.256.458 0 .869-.085 1.232-.256.373-.17.682-.41.928-.72.256-.32.448-.699.576-1.136a4.88 4.88 0 00.208-1.472 4.88 4.88 0 00-.208-1.472 3.086 3.086 0 00-.576-1.136 2.424 2.424 0 00-.928-.736 2.863 2.863 0 00-1.232-.256c-.47 0-.886.09-1.248.272-.363.17-.672.416-.928.736a3.43 3.43 0 00-.576 1.136 5.173 5.173 0 00-.192 1.456zm8.464 0c0 .95-.144 1.787-.432 2.512a5.174 5.174 0 01-1.152 1.808 4.811 4.811 0 01-1.76 1.088 6.3 6.3 0 01-2.176.368 6.2 6.2 0 01-2.144-.368 4.983 4.983 0 01-1.76-1.088 5.213 5.213 0 01-1.184-1.808c-.288-.725-.432-1.563-.432-2.512 0-.95.149-1.781.448-2.496.298-.725.698-1.333 1.2-1.824a5.058 5.058 0 011.76-1.104 6.11 6.11 0 012.112-.368c.757 0 1.472.123 2.144.368a4.881 4.881 0 011.76 1.104c.501.49.896 1.099 1.184 1.824.288.715.432 1.547.432 2.496zm7.216 5.776c-.778 0-1.45-.107-2.016-.32a3.98 3.98 0 01-1.408-.912 3.892 3.892 0 01-.816-1.392 5.984 5.984 0 01-.256-1.792V2.912h2.496V9.6c0 .448.048.832.144 1.152.107.31.246.565.416.768a1.6 1.6 0 00.64.416c.256.085.534.128.832.128.608 0 1.099-.187 1.472-.56.384-.373.576-1.008.576-1.904V2.912h2.496v6.896c0 .65-.09 1.248-.272 1.792a3.727 3.727 0 01-.832 1.408c-.373.384-.848.683-1.424.896-.576.213-1.258.32-2.048.32zm11.105-11.44c1.653 0 2.923.293 3.808.88.885.576 1.328 1.525 1.328 2.848 0 1.333-.448 2.299-1.344 2.896-.896.587-2.176.88-3.84.88h-.784V14h-2.496V3.072c.544-.107 1.12-.181 1.728-.224a23.192 23.192 0 011.6-.064zm.16 2.128a9.26 9.26 0 00-.544.016c-.171.01-.32.021-.448.032v3.2h.784c.864 0 1.515-.117 1.952-.352.437-.235.656-.672.656-1.312 0-.31-.059-.565-.176-.768a1.16 1.16 0 00-.48-.48 1.897 1.897 0 00-.752-.256 5.662 5.662 0 00-.992-.08z" fill="#fff"/><path d="M177.075 12.736c0 .48-.155.848-.464 1.104-.299.245-.64.368-1.024.368s-.731-.123-1.04-.368c-.299-.256-.448-.624-.448-1.104 0-.48.149-.843.448-1.088a1.59 1.59 0 011.04-.384c.384 0 .725.128 1.024.384.309.245.464.608.464 1.088z" fill="#FFBA00"/><path d="M7.386 1.627C8.214.344 10.729-.317 13.003.15c2.275.467 3.448 1.885 2.62 3.167l-7.12 11.031c-.828 1.283-3.343 1.944-5.618 1.477C.61 15.358-.562 13.94.265 12.658l7.12-11.031z" fill="#484CE6"/><path d="M20.497 1.652C21.325.369 23.84-.292 26.115.175c2.275.467 3.447 1.885 2.62 3.167l-7.12 11.031c-.829 1.283-3.344 1.944-5.618 1.477-2.275-.467-3.448-1.885-2.62-3.167l7.12-11.031z" fill="#FFBA00"/></svg>