<svg width="87" height="29" fill="none" xmlns="http://www.w3.org/2000/svg"><path d="M21.167 10.256H11.121v2.98h7.125c-.352 4.181-3.83 5.964-7.113 5.964-4.2 0-7.865-3.305-7.865-7.937 0-4.512 3.493-7.987 7.874-7.987 3.38 0 5.372 2.155 5.372 2.155L18.6 3.269S15.921.286 11.036.286C4.813.286 0 5.538 0 11.21c0 5.558 4.528 10.978 11.194 10.978 5.863 0 10.155-4.017 10.155-9.956 0-1.253-.182-1.977-.182-1.977zm8.23-2.159c-4.123 0-7.077 3.223-7.077 6.981 0 3.815 2.866 7.097 7.125 7.097 3.856 0 7.015-2.947 7.015-7.015 0-4.662-3.675-7.063-7.063-7.063zm.04 2.765c2.028 0 3.949 1.639 3.949 4.28 0 2.585-1.913 4.27-3.958 4.27-2.246 0-4.019-1.8-4.019-4.291 0-2.438 1.75-4.26 4.029-4.26zm15.35-2.765c-4.122 0-7.077 3.223-7.077 6.981 0 3.815 2.866 7.097 7.125 7.097 3.856 0 7.015-2.947 7.015-7.015 0-4.662-3.674-7.063-7.063-7.063zm.04 2.765c2.028 0 3.95 1.639 3.95 4.28 0 2.585-1.914 4.27-3.958 4.27-2.247 0-4.02-1.8-4.02-4.291 0-2.438 1.751-4.26 4.029-4.26zm15.056-2.758c-3.784 0-6.759 3.314-6.759 7.034 0 4.237 3.449 7.046 6.693 7.046 2.007 0 3.073-.796 3.86-1.71v1.388c0 2.428-1.474 3.883-3.7 3.883-2.15 0-3.228-1.599-3.603-2.506l-2.705 1.13c.96 2.03 2.892 4.146 6.331 4.146 3.762 0 6.63-2.369 6.63-7.339V8.528h-2.952V9.72c-.907-.978-2.148-1.616-3.795-1.616zm.273 2.76c1.855 0 3.76 1.584 3.76 4.289 0 2.75-1.9 4.265-3.8 4.265-2.018 0-3.895-1.638-3.895-4.24 0-2.702 1.95-4.314 3.935-4.314zm19.596-2.777c-3.57 0-6.566 2.84-6.566 7.03 0 4.434 3.34 7.064 6.909 7.064 2.978 0 4.806-1.63 5.897-3.09l-2.434-1.619c-.631.98-1.687 1.938-3.448 1.938-1.98 0-2.89-1.084-3.453-2.133l9.439-3.917-.49-1.147c-.912-2.248-3.04-4.125-5.854-4.125zm.123 2.708c1.286 0 2.212.684 2.605 1.503l-6.303 2.635c-.272-2.04 1.66-4.138 3.698-4.138zM68.686 21.763h3.1V1.014h-3.1v20.749z" fill="#18172F"/></svg>