<svg width="69" height="21" fill="none" xmlns="http://www.w3.org/2000/svg"><path d="M4.25.896C2.85 1.48 1.313 3.128.83 5.201.213 7.826 2.772 8.934 2.981 8.572c.246-.429-.46-.573-.604-1.933-.186-1.76.631-3.726 1.663-4.588.192-.158.183.064.183.475 0 .74-.042 7.358-.042 8.74 0 1.87-.077 2.46-.218 3.041-.14.592-.365.99-.195 1.146.192.171 1.01-.237 1.483-.897.567-.79.767-1.741.804-2.773.042-1.242.04-3.218.042-4.342 0-1.034.016-4.057-.017-5.877-.008-.445-1.248-.912-1.83-.668zm64.442 9.82c-.2 0-.295.21-.372.56-.264 1.221-.543 1.497-.903 1.497-.402 0-.762-.605-.857-1.815-.072-.95-.06-2.704.033-4.447.019-.357-.08-.711-1.04-1.062-.416-.148-1.018-.37-1.317.353-.848 2.038-1.177 3.66-1.256 4.317-.002.034-.044.039-.052-.04-.048-.526-.16-1.484-.173-3.496-.005-.39-.086-.726-.523-1-.28-.175-1.135-.49-1.444-.117-.265.306-.573 1.127-.896 2.1-.26.793-.441 1.331-.441 1.331s.001-2.138.007-2.95c0-.305-.21-.407-.272-.426-.286-.083-.85-.22-1.087-.22-.295 0-.364.165-.364.403 0 .03-.05 2.812-.05 4.758v.273c-.16.895-.689 2.11-1.262 2.11-.574 0-.845-.508-.845-2.826 0-1.352.041-1.94.06-2.919.011-.563.035-.997.033-1.096-.005-.3-.528-.453-.77-.508a2.323 2.323 0 00-.621-.07c-.233.014-.397.167-.397.38v.325c-.3-.473-.786-.802-1.11-.897-.869-.258-1.777-.028-2.462.927-.543.76-.87 1.62-.998 2.856-.095.905-.065 1.82.104 2.595-.204.873-.58 1.233-.991 1.233-.6 0-1.03-.974-.982-2.66.035-1.107.255-1.884.499-3.01.105-.48.019-.73-.192-.974-.193-.219-.607-.332-1.198-.195-.421.1-1.027.206-1.577.287 0 0 .032-.132.06-.366.142-1.227-1.193-1.127-1.618-.735-.256.234-.43.51-.495 1.006-.104.789.539 1.16.539 1.16-.211.964-.727 2.225-1.263 3.136-.286.49-.504.849-.787 1.233-.003-.14-.003-.285-.003-.426-.005-2.029.02-3.626.033-4.201.011-.563.035-.985.035-1.085-.005-.218-.133-.304-.402-.406a2.91 2.91 0 00-.808-.183c-.365-.028-.588.167-.58.396v.309c-.302-.473-.788-.802-1.108-.897-.871-.258-1.779-.028-2.464.927-.54.76-.899 1.825-1 2.845-.093.955-.077 1.762.053 2.444-.14.68-.536 1.395-.987 1.395-.573 0-.901-.508-.901-2.826 0-1.352.042-1.94.063-2.919.011-.563.032-.997.03-1.096-.002-.3-.524-.453-.768-.508a2.329 2.329 0 00-.642-.07c-.223.019-.378.216-.378.366v.339c-.302-.473-.787-.802-1.11-.897-.868-.258-1.77-.023-2.459.927-.45.62-.815 1.307-1.002 2.833-.052.44-.077.853-.075 1.238-.179 1.094-.97 2.356-1.616 2.356-.38 0-.743-.733-.743-2.298 0-2.082.13-5.05.153-5.337l.978-.016c.406-.002.777.007 1.319-.021.274-.014.536-.99.253-1.113-.126-.053-1.027-.102-1.384-.109-.302-.007-1.136-.069-1.136-.069s.075-1.968.091-2.175c.014-.176-.209-.264-.339-.318-.314-.134-.595-.197-.924-.264-.462-.095-.669-.002-.708.385-.06.587-.093 2.307-.093 2.307-.34 0-1.488-.068-1.826-.068-.313 0-.652 1.345-.217 1.362.499.018 1.365.037 1.94.053 0 0-.025 3.016-.025 3.946v.287c-.318 1.648-1.43 2.539-1.43 2.539.239-1.092-.249-1.91-1.131-2.601a66.527 66.527 0 00-1.684-1.269s.416-.41.785-1.23c.26-.583.272-1.252-.369-1.399-1.059-.243-1.93.534-2.192 1.363-.2.64-.095 1.118.302 1.612l.09.111a41.913 41.913 0 01-.842 1.558c-.773 1.333-1.356 2.386-1.795 2.386-.353 0-.349-1.069-.349-2.07 0-.863.066-2.164.117-3.508.016-.443-.207-.698-.58-.928-.228-.139-.711-.412-.992-.412-.418 0-1.63.055-2.775 3.359a67.023 67.023 0 01-.427 1.175l.025-3.973c0-.093-.048-.181-.162-.244-.193-.104-.71-.317-1.165-.317-.221 0-.33.102-.33.303L7.72 11.81c0 .473.01 1.024.058 1.266.046.24.123.438.216.556a.64.64 0 00.378.24c.165.036 1.072.15 1.12-.196.057-.415.06-.862.535-2.538.743-2.606 1.71-3.877 2.165-4.33.08-.078.171-.083.167.047-.021.573-.088 1.999-.135 3.211-.123 3.248.467 3.849 1.314 3.849.646 0 1.556-.643 2.534-2.265.61-1.013 1.2-2.003 1.627-2.72.293.274.627.568.959.884.773.73 1.026 1.425.857 2.084-.128.505-.613 1.024-1.474.52-.251-.147-.358-.26-.611-.428-.135-.09-.344-.116-.467-.023-.325.244-.509.552-.615.935-.1.373.274.568.661.739.332.15 1.048.283 1.505.3 1.78.06 3.207-.859 4.198-3.223.18 2.042.933 3.199 2.245 3.199.88 0 1.76-1.134 2.146-2.249.109.454.274.848.485 1.185 1.013 1.6 2.977 1.257 3.961-.102.307-.422.353-.573.353-.573.144 1.283 1.18 1.734 1.772 1.734.666 0 1.35-.315 1.83-1.396.057.119.118.23.188.337 1.01 1.6 2.974 1.257 3.96-.102.045-.068.087-.123.121-.177l.03.844-.91.832c-1.52 1.394-2.677 2.451-2.762 3.68-.107 1.57 1.165 2.152 2.13 2.228 1.023.081 1.9-.482 2.439-1.275.474-.696.785-2.191.762-3.67l-.038-2.154c.537-.616 1.14-1.4 1.693-2.318.606-.997 1.252-2.34 1.581-3.385 0 0 .564.005 1.164-.032.193-.012.248.028.21.167-.041.169-.756 2.925-.104 4.762.449 1.256 1.454 1.662 2.053 1.662.699 0 1.368-.529 1.725-1.313.044.086.089.172.14.251 1.01 1.6 2.967 1.254 3.96-.102.226-.308.352-.573.352-.573.213 1.329 1.249 1.739 1.84 1.739.62 0 1.205-.252 1.682-1.375.018.494.048.897.1 1.025.03.079.206.176.332.225.566.208 1.142.109 1.353.065.149-.03.265-.146.279-.452.041-.803.016-2.15.26-3.153.41-1.679.791-2.33.972-2.652.1-.182.216-.212.219-.021.007.387.028 1.523.188 3.053.114 1.122.27 1.787.39 1.998.339.6.762.629 1.103.629.218 0 .674-.06.634-.443-.02-.186.014-1.338.415-2.993.265-1.083.704-2.059.862-2.416.06-.132.086-.03.086-.01-.035.745-.11 3.182.192 4.512.414 1.807 1.605 2.008 2.02 2.008.885 0 1.612-.673 1.856-2.443.06-.427-.028-.756-.29-.756zM31.566 9.624c-.048.936-.232 1.72-.524 2.288-.534 1.031-1.586 1.356-2.048-.13-.337-1.073-.223-2.539-.081-3.33.204-1.173.722-2.002 1.53-1.926.826.081 1.23 1.145 1.123 3.098zm8.102.013c-.047.884-.276 1.774-.527 2.275-.518 1.038-1.6 1.363-2.048-.13-.307-1.023-.235-2.342-.082-3.172.198-1.08.674-2.084 1.53-2.084.834 0 1.245.913 1.127 3.111zm.211 6.037c-.012 1.616-.265 3.03-.808 3.443-.776.584-1.818.144-1.602-1.034.19-1.043 1.093-2.107 2.413-3.408 0 0 .004.297-.003 1zm13.987-6.027c-.046.971-.262 1.73-.529 2.265-.518 1.038-1.59 1.36-2.048-.13-.249-.814-.26-2.173-.081-3.306.18-1.155.69-2.026 1.53-1.95.83.079 1.219 1.145 1.128 3.12z" fill="#18172F"/></svg>