<svg width="112" height="33" fill="none" xmlns="http://www.w3.org/2000/svg"><path d="M5.73.969C3.452 1.92.946 4.608.155 7.987c-1.003 4.278 3.168 6.085 3.51 5.495.4-.699-.75-.933-.986-3.152-.302-2.868 1.03-6.073 2.711-7.48.314-.256.299.106.299.775 0 1.206-.068 11.996-.068 14.25 0 3.049-.125 4.009-.356 4.957-.227.964-.594 1.614-.317 1.867.313.28 1.645-.386 2.418-1.462.924-1.29 1.25-2.839 1.31-4.52.068-2.026.064-5.246.068-7.079 0-1.686.026-6.614-.027-9.58C8.702 1.331 6.681.571 5.73.967zm105.054 16.009c-.326 0-.481.34-.606.911-.431 1.992-.885 2.441-1.472 2.441-.655 0-1.242-.985-1.397-2.959-.117-1.55-.098-4.407.053-7.249.031-.582-.129-1.16-1.696-1.73-.677-.242-1.658-.605-2.145.574-1.382 3.323-1.92 5.968-2.049 7.037-.003.056-.071.064-.083-.064-.079-.858-.261-2.419-.283-5.7-.008-.634-.141-1.183-.852-1.629-.458-.286-1.851-.8-2.355-.192-.431.499-.934 1.837-1.46 3.424-.425 1.293-.72 2.17-.72 2.17s.003-3.485.011-4.808c0-.5-.34-.665-.442-.695-.466-.137-1.386-.36-1.772-.36-.48 0-.594.27-.594.658 0 .05-.08 4.584-.08 7.755v.446c-.261 1.46-1.123 3.44-2.059 3.44-.935 0-1.378-.828-1.378-4.607 0-2.204.069-3.163.1-4.759.018-.918.055-1.624.052-1.787-.008-.488-.86-.738-1.254-.828a3.787 3.787 0 00-1.013-.114c-.379.023-.648.273-.648.62v.53c-.488-.771-1.28-1.308-1.809-1.463-1.415-.42-2.896-.046-4.013 1.511-.885 1.24-1.42 2.642-1.627 4.657-.156 1.474-.106 2.967.17 4.23-.333 1.424-.946 2.01-1.616 2.01-.977 0-1.68-1.588-1.6-4.336.056-1.805.415-3.072.813-4.909.17-.782.03-1.19-.314-1.587-.314-.355-.988-.54-1.953-.318-.686.163-1.673.337-2.57.47 0 0 .052-.217.098-.598.231-2-1.946-1.837-2.639-1.198-.416.381-.7.831-.806 1.64-.17 1.285.879 1.89.879 1.89-.345 1.572-1.185 3.628-2.06 5.113-.465.798-.822 1.384-1.283 2.011-.004-.23-.004-.465-.004-.695-.008-3.307.034-5.91.053-6.849.02-.918.057-1.606.057-1.769-.008-.355-.216-.495-.655-.661a4.742 4.742 0 00-1.317-.299c-.594-.045-.958.273-.947.646v.503c-.491-.77-1.283-1.307-1.805-1.462-1.42-.42-2.9-.046-4.016 1.511-.882 1.24-1.465 2.975-1.632 4.638-.15 1.557-.124 2.872.087 3.984-.227 1.11-.874 2.275-1.608 2.275-.935 0-1.469-.828-1.469-4.607 0-2.204.068-3.163.103-4.759.018-.918.053-1.624.049-1.787-.004-.488-.855-.738-1.253-.828a3.796 3.796 0 00-1.045-.114c-.363.03-.617.352-.617.598v.551c-.492-.77-1.283-1.307-1.81-1.462-1.415-.42-2.883-.038-4.008 1.511-.734 1.01-1.328 2.132-1.635 4.62-.083.718-.125 1.39-.12 2.017-.292 1.784-1.583 3.84-2.635 3.84-.621 0-1.211-1.194-1.211-3.745 0-3.394.211-8.232.25-8.7l1.593-.027c.662-.004 1.268.012 2.15-.034.447-.022.874-1.614.412-1.814-.204-.087-1.673-.166-2.256-.178a58.824 58.824 0 01-1.851-.113s.122-3.208.148-3.545c.023-.287-.34-.43-.552-.518-.512-.219-.97-.321-1.507-.43-.753-.155-1.09-.004-1.154.626-.099.957-.152 3.762-.152 3.762-.553 0-2.426-.11-2.976-.11-.51 0-1.063 2.192-.355 2.218.814.03 2.226.061 3.164.087 0 0-.041 4.918-.041 6.433v.468c-.519 2.687-2.332 4.139-2.332 4.139.39-1.78-.405-3.115-1.843-4.24-.53-.42-1.575-1.21-2.745-2.068 0 0 .678-.669 1.28-2.007.424-.949.443-2.04-.602-2.28-1.726-.396-3.146.87-3.573 2.223-.326 1.043-.155 1.822.492 2.627l.147.181a68.244 68.244 0 01-1.374 2.54c-1.26 2.173-2.21 3.89-2.926 3.89-.575 0-.567-1.743-.567-3.376 0-1.406.105-3.526.189-5.718.026-.722-.337-1.138-.946-1.512-.371-.226-1.159-.672-1.617-.672-.68 0-2.657.09-4.522 5.476-.235.68-.697 1.916-.697 1.916l.041-6.478c0-.151-.079-.295-.264-.397-.315-.17-1.158-.517-1.9-.517-.36 0-.538.166-.538.495l-.06 10.128c0 .771.018 1.67.094 2.064.075.393.2.714.352.907.152.185.329.329.617.393.269.056 1.748.241 1.825-.322.094-.676.097-1.405.874-4.137 1.21-4.249 2.786-6.32 3.528-7.057.132-.128.28-.136.272.076-.034.933-.144 3.258-.22 5.234-.2 5.295.761 6.274 2.143 6.274 1.052 0 2.536-1.047 4.13-3.692.995-1.652 1.957-3.266 2.653-4.433.477.445 1.022.925 1.563 1.44 1.26 1.19 1.673 2.323 1.397 3.397-.208.824-1 1.67-2.403.847-.41-.239-.584-.424-.996-.696-.22-.147-.56-.189-.76-.038-.531.398-.83.9-1.004 1.523-.163.61.447.926 1.078 1.206.542.246 1.708.46 2.453.487 2.904.099 5.228-1.398 6.844-5.253.292 3.33 1.521 5.216 3.66 5.216 1.434 0 2.87-1.849 3.498-3.666.177.74.446 1.383.79 1.931 1.651 2.608 4.853 2.049 6.458-.166.5-.688.576-.934.576-.934.234 2.09 1.922 2.827 2.888 2.827 1.086 0 2.2-.514 2.982-2.275.095.193.193.374.307.548 1.647 2.608 4.849 2.049 6.458-.166.072-.11.14-.2.196-.288l.05 1.376-1.484 1.357c-2.48 2.271-4.365 3.995-4.504 5.998-.174 2.558 1.9 3.507 3.474 3.631 1.666.133 3.097-.785 3.974-2.078.773-1.134 1.28-3.571 1.243-5.983l-.061-3.51a27.212 27.212 0 002.76-3.78c.987-1.625 2.04-3.814 2.576-5.518 0 0 .92.008 1.897-.053.315-.019.405.046.344.272-.068.276-1.233 4.77-.17 7.764.731 2.047 2.37 2.709 3.346 2.709 1.14 0 2.23-.862 2.812-2.14.072.14.145.28.228.41 1.647 2.607 4.837 2.044 6.457-.167.368-.502.572-.934.572-.934.348 2.166 2.037 2.835 3.001 2.835 1.011 0 1.965-.412 2.741-2.242.03.806.08 1.463.163 1.67.049.13.337.288.541.367.923.34 1.863.178 2.207.106.242-.049.431-.238.454-.736.068-1.308.026-3.504.424-5.14.67-2.737 1.29-3.798 1.585-4.324.164-.295.353-.344.356-.034.012.63.046 2.483.307 4.978.186 1.829.44 2.913.636 3.257.553.979 1.242 1.025 1.798 1.025.356 0 1.098-.099 1.033-.723-.034-.302.023-2.18.678-4.878.431-1.765 1.147-3.356 1.404-3.939.099-.215.141-.048.141-.015-.057 1.213-.178 5.185.313 7.355.675 2.944 2.616 3.273 3.293 3.273 1.442 0 2.628-1.097 3.025-3.983.098-.696-.046-1.233-.473-1.233zm-60.521-1.784c-.08 1.527-.379 2.805-.855 3.73-.872 1.683-2.585 2.212-3.34-.21-.548-1.75-.363-4.14-.132-5.429.333-1.912 1.178-3.264 2.495-3.14 1.347.133 2.006 1.867 1.832 5.05zm13.206.023c-.075 1.44-.45 2.89-.859 3.708-.844 1.693-2.608 2.222-3.339-.212-.499-1.667-.382-3.817-.132-5.17.322-1.761 1.098-3.398 2.495-3.398 1.359 0 2.028 1.49 1.835 5.072zm.345 9.841c-.02 2.635-.431 4.94-1.318 5.613-1.264.952-2.963.234-2.611-1.686.31-1.7 1.783-3.435 3.933-5.556 0 0 .007.484-.004 1.63zm22.802-9.826c-.076 1.584-.428 2.82-.863 3.693-.845 1.693-2.593 2.218-3.339-.212-.405-1.327-.424-3.542-.132-5.39.295-1.882 1.124-3.303 2.494-3.178 1.355.129 1.987 1.867 1.84 5.087z" fill="#18172F"/></svg>