<svg width="154" height="32" fill="none" xmlns="http://www.w3.org/2000/svg"><path d="M119.311 11.954c-1.94 0-3.549.69-4.698 1.967l.23-1.15a.537.537 0 00-.536-.664c-.358 0-.741.307-.792.665l-3.37 17.497a.537.537 0 00.536.664c.358 0 .741-.306.792-.664l1.251-6.514c.459.843 1.532 1.967 3.932 1.967 1.889 0 3.446-.587 4.672-1.711 1.277-1.175 2.145-2.938 2.579-5.211.434-2.274.255-4.01-.562-5.185-.791-1.099-2.145-1.66-4.034-1.66zm-2.426 12.568c-2.859 0-3.983-1.967-3.268-5.697.715-3.754 2.528-5.67 5.362-5.67 3.115 0 4.264 1.865 3.524 5.67-.741 3.909-2.528 5.697-5.618 5.697zm31.507-6.412c-1.685-.638-3.294-1.226-2.987-2.81.153-.791.791-2.12 3.395-2.12 1.456 0 2.375.409 3.166 1.405a.484.484 0 00.383.179.82.82 0 00.741-.613.637.637 0 00-.077-.434v-.026c-.817-1.15-2.144-1.737-3.983-1.737-2.655 0-4.57 1.277-4.953 3.346-.485 2.478 1.711 3.296 3.651 4.036 1.66.639 3.243 1.226 2.962 2.733-.409 2.146-2.656 2.453-3.958 2.453-1.787 0-2.885-.486-3.702-1.635a.46.46 0 00-.383-.179.819.819 0 00-.74.613.637.637 0 00.076.434c.537.997 2.145 2.018 4.52 2.018 3.012 0 5.08-1.38 5.514-3.678.46-2.478-1.71-3.295-3.625-3.985zm-4.034-9.63h-1.404l.28-1.405a.537.537 0 00-.536-.664c-.357 0-.715.307-.791.665l-.281 1.404h-1.404c-.358 0-.715.307-.792.665a.538.538 0 00.536.664h1.405l-.281 1.405a.537.537 0 00.536.664c.357 0 .715-.307.791-.665l.281-1.404h1.405c.357 0 .714-.307.791-.664a.548.548 0 00-.408-.665c-.026.026-.077 0-.128 0zM32.375 22.07c.689.357 1.914.842 3.089.817 1.072 0 1.634-.588 1.634-1.277 0-.69-.408-1.15-1.557-1.814-1.43-.817-2.503-1.967-2.503-3.474 0-2.656 2.273-4.546 5.592-4.546 1.455 0 2.579.28 3.191.638l-.868 2.682a5.716 5.716 0 00-2.349-.51c-1.072 0-1.761.485-1.761 1.25 0 .614.485 1.048 1.455 1.559 1.48.843 2.706 1.992 2.706 3.627 0 3.014-2.45 4.726-5.846 4.7-1.558-.025-3.013-.434-3.728-.945.025 0 .945-2.708.945-2.708zm9.395 3.55l3.677-19.209h3.779l-1.456 7.434.051-.052c1.022-1.2 2.324-2.043 4.009-2.043 1.966 0 3.09 1.277 3.09 3.397 0 .664-.103 1.712-.282 2.554l-1.48 7.893h-3.78l1.43-7.663a9.6 9.6 0 00.154-1.711c0-.817-.332-1.43-1.175-1.43-1.2 0-2.502 1.609-2.987 4.112l-1.25 6.692-3.78.026zm26.834-8.583c0 4.7-3.012 8.685-7.48 8.685-3.396 0-5.209-2.35-5.209-5.287 0-4.573 3.013-8.685 7.557-8.685 3.55 0 5.133 2.58 5.133 5.287zm-8.808 3.321c0 1.38.536 2.478 1.838 2.478 1.992 0 3.115-3.576 3.115-5.9 0-1.125-.434-2.274-1.787-2.274-2.043-.026-3.166 3.525-3.166 5.696zm7.915 10.6l2.63-13.844c.306-1.558.612-3.576.766-5.007h3.344l-.23 2.146h.052c1.02-1.43 2.502-2.375 4.008-2.375 2.757 0 3.881 2.222 3.881 4.75 0 4.599-2.91 9.145-7.353 9.145-.92 0-1.787-.153-2.221-.51h-.077l-1.047 5.695h-3.753zm5.387-8.633c.409.332.868.536 1.558.536 2.119 0 3.574-3.474 3.574-5.926 0-1.021-.357-2.094-1.506-2.094-1.328 0-2.554 1.558-2.988 3.933l-.638 3.55zm9.192 3.295l2.553-13.513h3.804L86.068 25.62H82.29zm4.902-14.917c-1.073 0-1.787-.92-1.787-2.044 0-1.226.97-2.273 2.17-2.273 1.149 0 1.89.894 1.89 1.992-.026 1.405-1.048 2.3-2.222 2.3 0 .025-.051.025-.051.025zm2.17 14.917l1.992-10.677h-1.762l.536-2.835h1.762l.102-.69c.306-1.584.893-3.219 2.195-4.291 1.022-.869 2.35-1.278 3.703-1.278.919 0 1.608.128 2.042.332l-.74 2.964a3.818 3.818 0 00-1.2-.205c-1.251 0-2.017 1.2-2.247 2.503l-.128.69h2.63l-.51 2.835h-2.605l-1.991 10.677-3.779-.025zm13.609-13.513l.612 6.054c.128 1.073.23 2.12.332 3.193h.051c.307-.715.588-1.762 1.124-3.218l2.298-6.028h3.957l-4.621 9.885c-1.634 3.397-3.243 5.875-4.953 7.484-1.354 1.252-2.937 1.89-3.703 2.043l-1.046-3.218c.638-.23 1.43-.562 2.144-1.073.868-.613 1.609-1.43 2.068-2.273.102-.204.128-.332.077-.588l-2.272-12.286c-.052.025 3.932.025 3.932.025zm38.298 1.278c-.358 0-.715.306-.792.664L139.2 20.69c-.689 3.372-2.757 3.832-4.723 3.832-3.498 0-3.6-1.993-3.217-3.96l1.506-7.79a.537.537 0 00-.536-.665c-.357 0-.715.307-.791.665l-1.507 7.79c-.306 1.584-.204 2.733.332 3.576.664 1.048 1.992 1.584 3.983 1.584 1.992 0 3.524-.536 4.596-1.584.843-.843 1.404-2.018 1.711-3.576l1.251-6.539c.076-.332-.179-.638-.536-.638zm-12.077-6.948c-.358 0-.741.306-.792.664l-3.421 17.804a.538.538 0 00.536.664c.358 0 .715-.307.792-.664L129.728 7.1a.537.537 0 00-.536-.664zM18.511 3.627l-.92.281a5.781 5.781 0 00-.434-1.098C16.494 1.558 15.55.894 14.4.894c-.077 0-.153 0-.23.026-.025-.052-.076-.077-.102-.128C13.558.255 12.92 0 12.153 0c-1.506.051-2.987 1.124-4.187 3.04-.843 1.353-1.506 3.04-1.685 4.368l-2.936.92c-.868.28-.894.306-.996 1.123C2.272 10.064 0 27.612 0 27.612l18.817 3.244V3.602c-.153 0-.23 0-.306.025zm-4.34 1.354l-3.167.996c.307-1.175.894-2.35 1.609-3.116.255-.281.638-.613 1.072-.792.409.868.485 2.069.485 2.912zm-2.043-3.96c.306-.025.638.077.893.23-.434.23-.817.537-1.149.895-.944 1.021-1.685 2.605-1.966 4.138l-2.63.817c.537-2.401 2.528-6.003 4.852-6.08zm-2.91 13.692c.101 1.61 4.314 1.941 4.544 5.696.178 2.963-1.558 4.981-4.085 5.134-3.039.205-4.698-1.583-4.698-1.583l.638-2.733S7.302 22.504 8.63 22.4a1.169 1.169 0 001.149-1.277C9.65 19.03 6.229 19.158 6 15.734c-.179-2.886 1.71-5.823 5.898-6.079 1.608-.102 2.425.307 2.425.307l-.944 3.576s-1.073-.485-2.324-.409c-1.838.128-1.863 1.303-1.838 1.584zm5.948-10.039c0-.766-.102-1.813-.46-2.733 1.124.205 1.686 1.507 1.94 2.274-.025 0-1.48.46-1.48.46zm4.187 26.131l7.813-1.941s-3.37-22.734-3.37-22.887a.327.327 0 00-.281-.255c-.102 0-2.298-.051-2.298-.051S19.89 4.368 19.38 3.883v26.922h-.026z" fill="#18172F"/></svg>