<svg width="134" height="12" viewBox="0 0 134 12" fill="none" xmlns="http://www.w3.org/2000/svg">
<path d="M32.528 10C32.44 9.712 32.34 9.416 32.228 9.112C32.124 8.808 32.02 8.504 31.916 8.2H28.676C28.572 8.504 28.464 8.808 28.352 9.112C28.248 9.416 28.152 9.712 28.064 10H26.12C26.432 9.104 26.728 8.276 27.008 7.516C27.288 6.756 27.56 6.04 27.824 5.368C28.096 4.696 28.36 4.06 28.616 3.46C28.88 2.852 29.152 2.26 29.432 1.684H31.22C31.492 2.26 31.76 2.852 32.024 3.46C32.288 4.06 32.552 4.696 32.816 5.368C33.088 6.04 33.364 6.756 33.644 7.516C33.924 8.276 34.22 9.104 34.532 10H32.528ZM30.284 3.568C30.244 3.688 30.184 3.852 30.104 4.06C30.024 4.268 29.932 4.508 29.828 4.78C29.724 5.052 29.608 5.352 29.48 5.68C29.36 6.008 29.236 6.352 29.108 6.712H31.472C31.344 6.352 31.22 6.008 31.1 5.68C30.98 5.352 30.864 5.052 30.752 4.78C30.648 4.508 30.556 4.268 30.476 4.06C30.396 3.852 30.332 3.688 30.284 3.568ZM41.7644 8.392V10H36.2084V1.684H38.0804V8.392H41.7644ZM48.8007 1.684V3.28H46.2927V10H44.4207V3.28H41.9127V1.684H48.8007ZM50.6037 10V1.684H56.2197V3.256H52.4757V4.888H55.7997V6.424H52.4757V8.428H56.4957V10H50.6037ZM64.6491 1.684V3.28H62.1411V10H60.2691V3.28H57.7611V1.684H64.6491ZM68.7202 8.572C68.9842 8.572 69.2002 8.552 69.3682 8.512C69.5442 8.464 69.6842 8.404 69.7882 8.332C69.8922 8.252 69.9642 8.16 70.0042 8.056C70.0442 7.952 70.0642 7.836 70.0642 7.708C70.0642 7.436 69.9362 7.212 69.6802 7.036C69.4242 6.852 68.9842 6.656 68.3602 6.448C68.0882 6.352 67.8162 6.244 67.5442 6.124C67.2722 5.996 67.0282 5.84 66.8122 5.656C66.5962 5.464 66.4202 5.236 66.2842 4.972C66.1482 4.7 66.0802 4.372 66.0802 3.988C66.0802 3.604 66.1522 3.26 66.2962 2.956C66.4402 2.644 66.6442 2.38 66.9082 2.164C67.1722 1.948 67.4922 1.784 67.8682 1.672C68.2442 1.552 68.6682 1.492 69.1402 1.492C69.7002 1.492 70.1842 1.552 70.5922 1.672C71.0002 1.792 71.3362 1.924 71.6002 2.068L71.0602 3.544C70.8282 3.424 70.5682 3.32 70.2802 3.232C70.0002 3.136 69.6602 3.088 69.2602 3.088C68.8122 3.088 68.4882 3.152 68.2882 3.28C68.0962 3.4 68.0002 3.588 68.0002 3.844C68.0002 3.996 68.0362 4.124 68.1082 4.228C68.1802 4.332 68.2802 4.428 68.4082 4.516C68.5442 4.596 68.6962 4.672 68.8642 4.744C69.0402 4.808 69.2322 4.876 69.4402 4.948C69.8722 5.108 70.2482 5.268 70.5682 5.428C70.8882 5.58 71.1522 5.76 71.3602 5.968C71.5762 6.176 71.7362 6.42 71.8402 6.7C71.9442 6.98 71.9962 7.32 71.9962 7.72C71.9962 8.496 71.7242 9.1 71.1802 9.532C70.6362 9.956 69.8162 10.168 68.7202 10.168C68.3522 10.168 68.0202 10.144 67.7242 10.096C67.4282 10.056 67.1642 10.004 66.9322 9.94C66.7082 9.876 66.5122 9.808 66.3442 9.736C66.1842 9.664 66.0482 9.596 65.9362 9.532L66.4642 8.044C66.7122 8.18 67.0162 8.304 67.3762 8.416C67.7442 8.52 68.1922 8.572 68.7202 8.572ZM79.6046 10C79.5166 9.712 79.4166 9.416 79.3046 9.112C79.2006 8.808 79.0966 8.504 78.9926 8.2H75.7526C75.6486 8.504 75.5406 8.808 75.4286 9.112C75.3246 9.416 75.2286 9.712 75.1406 10H73.1966C73.5086 9.104 73.8046 8.276 74.0846 7.516C74.3646 6.756 74.6366 6.04 74.9006 5.368C75.1726 4.696 75.4366 4.06 75.6926 3.46C75.9566 2.852 76.2286 2.26 76.5086 1.684H78.2966C78.5686 2.26 78.8366 2.852 79.1006 3.46C79.3646 4.06 79.6286 4.696 79.8926 5.368C80.1646 6.04 80.4406 6.756 80.7206 7.516C81.0006 8.276 81.2966 9.104 81.6086 10H79.6046ZM77.3606 3.568C77.3206 3.688 77.2606 3.852 77.1806 4.06C77.1006 4.268 77.0086 4.508 76.9046 4.78C76.8006 5.052 76.6846 5.352 76.5566 5.68C76.4366 6.008 76.3126 6.352 76.1846 6.712H78.5486C78.4206 6.352 78.2966 6.008 78.1766 5.68C78.0566 5.352 77.9406 5.052 77.8286 4.78C77.7246 4.508 77.6326 4.268 77.5526 4.06C77.4726 3.852 77.4086 3.688 77.3606 3.568ZM90.8238 3.124C89.9518 3.124 89.3198 3.368 88.9278 3.856C88.5438 4.336 88.3518 4.996 88.3518 5.836C88.3518 6.244 88.3998 6.616 88.4958 6.952C88.5918 7.28 88.7358 7.564 88.9278 7.804C89.1198 8.044 89.3598 8.232 89.6478 8.368C89.9358 8.496 90.2718 8.56 90.6558 8.56C90.8638 8.56 91.0398 8.556 91.1838 8.548C91.3358 8.54 91.4678 8.524 91.5798 8.5V5.608H93.4518V9.724C93.2278 9.812 92.8678 9.904 92.3718 10C91.8758 10.104 91.2638 10.156 90.5358 10.156C89.9118 10.156 89.3438 10.06 88.8318 9.868C88.3278 9.676 87.8958 9.396 87.5358 9.028C87.1758 8.66 86.8958 8.208 86.6958 7.672C86.5038 7.136 86.4078 6.524 86.4078 5.836C86.4078 5.14 86.5158 4.524 86.7318 3.988C86.9478 3.452 87.2438 3 87.6198 2.632C87.9958 2.256 88.4358 1.972 88.9398 1.78C89.4518 1.588 89.9958 1.492 90.5718 1.492C90.9638 1.492 91.3158 1.52 91.6278 1.576C91.9478 1.624 92.2198 1.684 92.4438 1.756C92.6758 1.82 92.8638 1.888 93.0078 1.96C93.1598 2.032 93.2678 2.088 93.3318 2.128L92.7918 3.628C92.5358 3.492 92.2398 3.376 91.9038 3.28C91.5758 3.176 91.2158 3.124 90.8238 3.124ZM98.2296 1.588C99.4776 1.588 100.434 1.812 101.098 2.26C101.762 2.7 102.094 3.388 102.094 4.324C102.094 4.908 101.958 5.384 101.686 5.752C101.422 6.112 101.038 6.396 100.534 6.604C100.702 6.812 100.878 7.052 101.062 7.324C101.246 7.588 101.426 7.868 101.602 8.164C101.786 8.452 101.962 8.756 102.13 9.076C102.298 9.388 102.454 9.696 102.598 10H100.498C100.346 9.728 100.19 9.452 100.03 9.172C99.8776 8.892 99.7176 8.62 99.5496 8.356C99.3896 8.092 99.2296 7.844 99.0696 7.612C98.9096 7.372 98.7496 7.156 98.5896 6.964H97.6656V10H95.7936V1.804C96.2016 1.724 96.6216 1.668 97.0536 1.636C97.4936 1.604 97.8856 1.588 98.2296 1.588ZM98.3376 3.184C98.2016 3.184 98.0776 3.188 97.9656 3.196C97.8616 3.204 97.7616 3.212 97.6656 3.22V5.476H98.1936C98.8976 5.476 99.4016 5.388 99.7056 5.212C100.01 5.036 100.162 4.736 100.162 4.312C100.162 3.904 100.006 3.616 99.6936 3.448C99.3896 3.272 98.9376 3.184 98.3376 3.184ZM105.759 5.836C105.759 6.244 105.807 6.612 105.903 6.94C106.007 7.268 106.151 7.552 106.335 7.792C106.527 8.024 106.759 8.204 107.031 8.332C107.303 8.46 107.615 8.524 107.967 8.524C108.311 8.524 108.619 8.46 108.891 8.332C109.171 8.204 109.403 8.024 109.587 7.792C109.779 7.552 109.923 7.268 110.019 6.94C110.123 6.612 110.175 6.244 110.175 5.836C110.175 5.428 110.123 5.06 110.019 4.732C109.923 4.396 109.779 4.112 109.587 3.88C109.403 3.64 109.171 3.456 108.891 3.328C108.619 3.2 108.311 3.136 107.967 3.136C107.615 3.136 107.303 3.204 107.031 3.34C106.759 3.468 106.527 3.652 106.335 3.892C106.151 4.124 106.007 4.408 105.903 4.744C105.807 5.072 105.759 5.436 105.759 5.836ZM112.107 5.836C112.107 6.548 111.999 7.176 111.783 7.72C111.575 8.256 111.287 8.708 110.919 9.076C110.551 9.436 110.111 9.708 109.599 9.892C109.095 10.076 108.551 10.168 107.967 10.168C107.399 10.168 106.863 10.076 106.359 9.892C105.855 9.708 105.415 9.436 105.039 9.076C104.663 8.708 104.367 8.256 104.151 7.72C103.935 7.176 103.827 6.548 103.827 5.836C103.827 5.124 103.939 4.5 104.163 3.964C104.387 3.42 104.687 2.964 105.063 2.596C105.447 2.228 105.887 1.952 106.383 1.768C106.887 1.584 107.415 1.492 107.967 1.492C108.535 1.492 109.071 1.584 109.575 1.768C110.079 1.952 110.519 2.228 110.895 2.596C111.271 2.964 111.567 3.42 111.783 3.964C111.999 4.5 112.107 5.124 112.107 5.836ZM117.519 10.168C116.935 10.168 116.431 10.088 116.007 9.928C115.583 9.76 115.231 9.532 114.951 9.244C114.679 8.948 114.475 8.6 114.339 8.2C114.211 7.792 114.147 7.344 114.147 6.856V1.684H116.019V6.7C116.019 7.036 116.055 7.324 116.127 7.564C116.207 7.796 116.311 7.988 116.439 8.14C116.575 8.284 116.735 8.388 116.919 8.452C117.111 8.516 117.319 8.548 117.543 8.548C117.999 8.548 118.367 8.408 118.647 8.128C118.935 7.848 119.079 7.372 119.079 6.7V1.684H120.951V6.856C120.951 7.344 120.883 7.792 120.747 8.2C120.611 8.608 120.403 8.96 120.123 9.256C119.843 9.544 119.487 9.768 119.055 9.928C118.623 10.088 118.111 10.168 117.519 10.168ZM125.847 1.588C127.087 1.588 128.039 1.808 128.703 2.248C129.367 2.68 129.699 3.392 129.699 4.384C129.699 5.384 129.363 6.108 128.691 6.556C128.019 6.996 127.059 7.216 125.811 7.216H125.223V10H123.351V1.804C123.759 1.724 124.191 1.668 124.647 1.636C125.103 1.604 125.503 1.588 125.847 1.588ZM125.967 3.184C125.831 3.184 125.695 3.188 125.559 3.196C125.431 3.204 125.319 3.212 125.223 3.22V5.62H125.811C126.459 5.62 126.947 5.532 127.275 5.356C127.603 5.18 127.767 4.852 127.767 4.372C127.767 4.14 127.723 3.948 127.635 3.796C127.555 3.644 127.435 3.524 127.275 3.436C127.123 3.34 126.935 3.276 126.711 3.244C126.487 3.204 126.239 3.184 125.967 3.184Z" fill="#18172F"/>
<path d="M133.306 9.052C133.306 9.412 133.19 9.688 132.958 9.88C132.734 10.064 132.478 10.156 132.19 10.156C131.902 10.156 131.642 10.064 131.41 9.88C131.186 9.688 131.074 9.412 131.074 9.052C131.074 8.692 131.186 8.42 131.41 8.236C131.642 8.044 131.902 7.948 132.19 7.948C132.478 7.948 132.734 8.044 132.958 8.236C133.19 8.42 133.306 8.692 133.306 9.052Z" fill="#FFBA00"/>
<path d="M5.53934 1.22006C6.16024 0.258142 8.04652 -0.237826 9.75245 0.112283C11.4584 0.462393 12.338 1.526 11.7171 2.48792L6.37685 10.761C5.75595 11.7229 3.86967 12.2189 2.16374 11.8688C0.457808 11.5187 -0.421777 10.4551 0.199131 9.49316L5.53934 1.22006Z" fill="#484CE6"/>
<path d="M15.3732 1.23898C15.9941 0.277063 17.8804 -0.218905 19.5863 0.131204C21.2922 0.481313 22.1718 1.54492 21.5509 2.50684L16.2107 10.7799C15.5898 11.7419 13.7035 12.2378 11.9976 11.8877C10.2916 11.5376 9.41205 10.474 10.033 9.51208L15.3732 1.23898Z" fill="#FFBA00"/>
</svg>
