<svg width="178" height="16" viewBox="0 0 178 16" fill="none" xmlns="http://www.w3.org/2000/svg">
<path d="M42.704 14C42.5867 13.616 42.4533 13.2213 42.304 12.816C42.1653 12.4107 42.0267 12.0053 41.888 11.6H37.568C37.4293 12.0053 37.2853 12.4107 37.136 12.816C36.9973 13.2213 36.8693 13.616 36.752 14H34.16C34.576 12.8053 34.9707 11.7013 35.344 10.688C35.7173 9.67467 36.08 8.72 36.432 7.824C36.7947 6.928 37.1467 6.08 37.488 5.28C37.84 4.46933 38.2027 3.68 38.576 2.912H40.96C41.3227 3.68 41.68 4.46933 42.032 5.28C42.384 6.08 42.736 6.928 43.088 7.824C43.4507 8.72 43.8187 9.67467 44.192 10.688C44.5653 11.7013 44.96 12.8053 45.376 14H42.704ZM39.712 5.424C39.6587 5.584 39.5787 5.80267 39.472 6.08C39.3653 6.35733 39.2427 6.67733 39.104 7.04C38.9653 7.40267 38.8107 7.80267 38.64 8.24C38.48 8.67733 38.3147 9.136 38.144 9.616H41.296C41.1253 9.136 40.96 8.67733 40.8 8.24C40.64 7.80267 40.4853 7.40267 40.336 7.04C40.1973 6.67733 40.0747 6.35733 39.968 6.08C39.8613 5.80267 39.776 5.584 39.712 5.424ZM55.0193 11.856V14H47.6113V2.912H50.1073V11.856H55.0193ZM64.4009 2.912V5.04H61.0569V14H58.5609V5.04H55.2169V2.912H64.4009ZM66.805 14V2.912H74.293V5.008H69.301V7.184H73.733V9.232H69.301V11.904H74.661V14H66.805ZM85.5321 2.912V5.04H82.1881V14H79.6921V5.04H76.3481V2.912H85.5321ZM90.9603 12.096C91.3123 12.096 91.6003 12.0693 91.8243 12.016C92.0589 11.952 92.2456 11.872 92.3843 11.776C92.5229 11.6693 92.6189 11.5467 92.6723 11.408C92.7256 11.2693 92.7523 11.1147 92.7523 10.944C92.7523 10.5813 92.5816 10.2827 92.2403 10.048C91.8989 9.80267 91.3123 9.54133 90.4803 9.264C90.1176 9.136 89.7549 8.992 89.3923 8.832C89.0296 8.66133 88.7043 8.45333 88.4163 8.208C88.1283 7.952 87.8936 7.648 87.7122 7.296C87.5309 6.93333 87.4403 6.496 87.4403 5.984C87.4403 5.472 87.5363 5.01333 87.7283 4.608C87.9203 4.192 88.1923 3.84 88.5443 3.552C88.8963 3.264 89.3229 3.04533 89.8243 2.896C90.3256 2.736 90.8909 2.656 91.5203 2.656C92.2669 2.656 92.9123 2.736 93.4563 2.896C94.0003 3.056 94.4483 3.232 94.8003 3.424L94.0803 5.392C93.7709 5.232 93.4243 5.09333 93.0403 4.976C92.6669 4.848 92.2136 4.784 91.6803 4.784C91.0829 4.784 90.6509 4.86933 90.3843 5.04C90.1283 5.2 90.0003 5.45067 90.0003 5.792C90.0003 5.99467 90.0483 6.16533 90.1443 6.304C90.2403 6.44267 90.3736 6.57067 90.5443 6.688C90.7256 6.79467 90.9283 6.896 91.1523 6.992C91.3869 7.07733 91.6429 7.168 91.9203 7.264C92.4963 7.47733 92.9976 7.69067 93.4243 7.904C93.8509 8.10667 94.2029 8.34667 94.4803 8.624C94.7683 8.90133 94.9816 9.22667 95.1203 9.6C95.2589 9.97333 95.3283 10.4267 95.3283 10.96C95.3283 11.9947 94.9656 12.8 94.2403 13.376C93.5149 13.9413 92.4216 14.224 90.9603 14.224C90.4696 14.224 90.0269 14.192 89.6323 14.128C89.2376 14.0747 88.8856 14.0053 88.5763 13.92C88.2776 13.8347 88.0163 13.744 87.7923 13.648C87.5789 13.552 87.3976 13.4613 87.2483 13.376L87.9523 11.392C88.2829 11.5733 88.6883 11.7387 89.1683 11.888C89.6589 12.0267 90.2563 12.096 90.9603 12.096ZM105.473 14C105.355 13.616 105.222 13.2213 105.073 12.816C104.934 12.4107 104.795 12.0053 104.657 11.6H100.337C100.198 12.0053 100.054 12.4107 99.9047 12.816C99.7661 13.2213 99.6381 13.616 99.5207 14H96.9287C97.3447 12.8053 97.7394 11.7013 98.1127 10.688C98.4861 9.67467 98.8487 8.72 99.2007 7.824C99.5634 6.928 99.9154 6.08 100.257 5.28C100.609 4.46933 100.971 3.68 101.345 2.912H103.729C104.091 3.68 104.449 4.46933 104.801 5.28C105.153 6.08 105.505 6.928 105.857 7.824C106.219 8.72 106.587 9.67467 106.961 10.688C107.334 11.7013 107.729 12.8053 108.145 14H105.473ZM102.481 5.424C102.427 5.584 102.347 5.80267 102.241 6.08C102.134 6.35733 102.011 6.67733 101.873 7.04C101.734 7.40267 101.579 7.80267 101.409 8.24C101.249 8.67733 101.083 9.136 100.913 9.616H104.065C103.894 9.136 103.729 8.67733 103.569 8.24C103.409 7.80267 103.254 7.40267 103.105 7.04C102.966 6.67733 102.843 6.35733 102.737 6.08C102.63 5.80267 102.545 5.584 102.481 5.424ZM120.432 4.832C119.269 4.832 118.426 5.15733 117.904 5.808C117.392 6.448 117.136 7.328 117.136 8.448C117.136 8.992 117.2 9.488 117.328 9.936C117.456 10.3733 117.648 10.752 117.904 11.072C118.16 11.392 118.48 11.6427 118.864 11.824C119.248 11.9947 119.696 12.08 120.208 12.08C120.485 12.08 120.72 12.0747 120.912 12.064C121.114 12.0533 121.29 12.032 121.44 12V8.144H123.936V13.632C123.637 13.7493 123.157 13.872 122.496 14C121.834 14.1387 121.018 14.208 120.048 14.208C119.216 14.208 118.458 14.08 117.776 13.824C117.104 13.568 116.528 13.1947 116.048 12.704C115.568 12.2133 115.194 11.6107 114.928 10.896C114.672 10.1813 114.544 9.36533 114.544 8.448C114.544 7.52 114.688 6.69867 114.976 5.984C115.264 5.26933 115.658 4.66667 116.16 4.176C116.661 3.67467 117.248 3.296 117.92 3.04C118.602 2.784 119.328 2.656 120.096 2.656C120.618 2.656 121.088 2.69333 121.504 2.768C121.93 2.832 122.293 2.912 122.592 3.008C122.901 3.09333 123.152 3.184 123.344 3.28C123.546 3.376 123.69 3.45067 123.776 3.504L123.056 5.504C122.714 5.32267 122.32 5.168 121.872 5.04C121.434 4.90133 120.954 4.832 120.432 4.832ZM130.306 2.784C131.97 2.784 133.245 3.08267 134.13 3.68C135.015 4.26667 135.458 5.184 135.458 6.432C135.458 7.21067 135.277 7.84533 134.914 8.336C134.562 8.816 134.05 9.19467 133.378 9.472C133.602 9.74933 133.837 10.0693 134.082 10.432C134.327 10.784 134.567 11.1573 134.802 11.552C135.047 11.936 135.282 12.3413 135.506 12.768C135.73 13.184 135.938 13.5947 136.13 14H133.33C133.127 13.6373 132.919 13.2693 132.706 12.896C132.503 12.5227 132.29 12.16 132.066 11.808C131.853 11.456 131.639 11.1253 131.426 10.816C131.213 10.496 130.999 10.208 130.786 9.952H129.554V14H127.058V3.072C127.602 2.96533 128.162 2.89067 128.738 2.848C129.325 2.80533 129.847 2.784 130.306 2.784ZM130.45 4.912C130.269 4.912 130.103 4.91733 129.954 4.928C129.815 4.93867 129.682 4.94933 129.554 4.96V7.968H130.258C131.197 7.968 131.869 7.85067 132.274 7.616C132.679 7.38133 132.882 6.98133 132.882 6.416C132.882 5.872 132.674 5.488 132.258 5.264C131.853 5.02933 131.25 4.912 130.45 4.912ZM140.345 8.448C140.345 8.992 140.409 9.48267 140.537 9.92C140.675 10.3573 140.867 10.736 141.113 11.056C141.369 11.3653 141.678 11.6053 142.041 11.776C142.403 11.9467 142.819 12.032 143.289 12.032C143.747 12.032 144.158 11.9467 144.521 11.776C144.894 11.6053 145.203 11.3653 145.449 11.056C145.705 10.736 145.897 10.3573 146.025 9.92C146.163 9.48267 146.233 8.992 146.233 8.448C146.233 7.904 146.163 7.41333 146.025 6.976C145.897 6.528 145.705 6.14933 145.449 5.84C145.203 5.52 144.894 5.27467 144.521 5.104C144.158 4.93333 143.747 4.848 143.289 4.848C142.819 4.848 142.403 4.93867 142.041 5.12C141.678 5.29067 141.369 5.536 141.113 5.856C140.867 6.16533 140.675 6.544 140.537 6.992C140.409 7.42933 140.345 7.91467 140.345 8.448ZM148.809 8.448C148.809 9.39733 148.665 10.2347 148.377 10.96C148.099 11.6747 147.715 12.2773 147.225 12.768C146.734 13.248 146.147 13.6107 145.465 13.856C144.793 14.1013 144.067 14.224 143.289 14.224C142.531 14.224 141.817 14.1013 141.145 13.856C140.473 13.6107 139.886 13.248 139.385 12.768C138.883 12.2773 138.489 11.6747 138.201 10.96C137.913 10.2347 137.769 9.39733 137.769 8.448C137.769 7.49867 137.918 6.66667 138.217 5.952C138.515 5.22667 138.915 4.61867 139.417 4.128C139.929 3.63733 140.515 3.26933 141.177 3.024C141.849 2.77867 142.553 2.656 143.289 2.656C144.046 2.656 144.761 2.77867 145.433 3.024C146.105 3.26933 146.691 3.63733 147.193 4.128C147.694 4.61867 148.089 5.22667 148.377 5.952C148.665 6.66667 148.809 7.49867 148.809 8.448ZM156.025 14.224C155.247 14.224 154.575 14.1173 154.009 13.904C153.444 13.68 152.975 13.376 152.601 12.992C152.239 12.5973 151.967 12.1333 151.785 11.6C151.615 11.056 151.529 10.4587 151.529 9.808V2.912H154.025V9.6C154.025 10.048 154.073 10.432 154.169 10.752C154.276 11.0613 154.415 11.3173 154.585 11.52C154.767 11.712 154.98 11.8507 155.225 11.936C155.481 12.0213 155.759 12.064 156.057 12.064C156.665 12.064 157.156 11.8773 157.529 11.504C157.913 11.1307 158.105 10.496 158.105 9.6V2.912H160.601V9.808C160.601 10.4587 160.511 11.056 160.329 11.6C160.148 12.144 159.871 12.6133 159.497 13.008C159.124 13.392 158.649 13.6907 158.073 13.904C157.497 14.1173 156.815 14.224 156.025 14.224ZM167.13 2.784C168.783 2.784 170.053 3.07733 170.938 3.664C171.823 4.24 172.266 5.18933 172.266 6.512C172.266 7.84533 171.818 8.81067 170.922 9.408C170.026 9.99467 168.746 10.288 167.082 10.288H166.298V14H163.802V3.072C164.346 2.96533 164.922 2.89067 165.53 2.848C166.138 2.80533 166.671 2.784 167.13 2.784ZM167.29 4.912C167.109 4.912 166.927 4.91733 166.746 4.928C166.575 4.93867 166.426 4.94933 166.298 4.96V8.16H167.082C167.946 8.16 168.597 8.04267 169.034 7.808C169.471 7.57333 169.69 7.136 169.69 6.496C169.69 6.18667 169.631 5.93067 169.514 5.728C169.407 5.52533 169.247 5.36533 169.034 5.248C168.831 5.12 168.581 5.03467 168.282 4.992C167.983 4.93867 167.653 4.912 167.29 4.912Z" fill="#18172F"/>
<path d="M177.075 12.736C177.075 13.216 176.92 13.584 176.611 13.84C176.312 14.0853 175.971 14.208 175.587 14.208C175.203 14.208 174.856 14.0853 174.547 13.84C174.248 13.584 174.099 13.216 174.099 12.736C174.099 12.256 174.248 11.8933 174.547 11.648C174.856 11.392 175.203 11.264 175.587 11.264C175.971 11.264 176.312 11.392 176.611 11.648C176.92 11.8933 177.075 12.256 177.075 12.736Z" fill="#484CE6"/>
<path d="M7.38578 1.62675C8.21366 0.34419 10.7287 -0.317101 13.0033 0.149711C15.2778 0.616523 16.4506 2.03467 15.6227 3.31722L8.50247 14.348C7.67459 15.6306 5.15956 16.2919 2.88498 15.8251C0.61041 15.3582 -0.56237 13.9401 0.265508 12.6575L7.38578 1.62675Z" fill="#484CE6"/>
<path d="M20.4975 1.65197C21.3254 0.369412 23.8404 -0.291879 26.115 0.174934C28.3896 0.641746 29.5624 2.05989 28.7345 3.34245L21.6142 14.3732C20.7864 15.6558 18.2713 16.3171 15.9967 15.8503C13.7222 15.3835 12.5494 13.9653 13.3773 12.6828L20.4975 1.65197Z" fill="#FFBA00"/>
</svg>
