<svg width="134" height="12" fill="none" xmlns="http://www.w3.org/2000/svg"><path d="M32.528 10a16.621 16.621 0 00-.3-.888l-.312-.912h-3.24c-.104.304-.212.608-.324.912-.104.304-.2.6-.288.888H26.12c.312-.896.608-1.724.888-2.484s.552-1.476.816-2.148c.272-.672.536-1.308.792-1.908.264-.608.536-1.2.816-1.776h1.788c.272.576.54 1.168.804 1.776.264.6.528 1.236.792 1.908.272.672.548 1.388.828 2.148.28.76.576 1.588.888 2.484h-2.004zm-2.244-6.432c-.04.12-.1.284-.18.492l-.276.72c-.104.272-.22.572-.348.9-.12.328-.244.672-.372 1.032h2.364c-.128-.36-.252-.704-.372-1.032a24.33 24.33 0 00-.348-.9 396.219 396.219 0 00-.468-1.212zm11.48 4.824V10h-5.556V1.684h1.872v6.708h3.684zm7.037-6.708V3.28h-2.508V10H44.42V3.28h-2.508V1.684H48.8zM50.604 10V1.684h5.616v1.572h-3.744v1.632H55.8v1.536h-3.324v2.004h4.02V10h-5.892zm14.045-8.316V3.28h-2.508V10H60.27V3.28h-2.508V1.684h6.888zm4.071 6.888c.264 0 .48-.02.648-.06.176-.048.316-.108.42-.18a.64.64 0 00.216-.276c.04-.104.06-.22.06-.348 0-.272-.128-.496-.384-.672-.256-.184-.696-.38-1.32-.588a11.523 11.523 0 01-.816-.324 3.267 3.267 0 01-.732-.468 2.339 2.339 0 01-.528-.684c-.136-.272-.204-.6-.204-.984s.072-.728.216-1.032c.144-.312.348-.576.612-.792.264-.216.584-.38.96-.492.376-.12.8-.18 1.272-.18.56 0 1.044.06 1.452.18.408.12.744.252 1.008.396l-.54 1.476a4.661 4.661 0 00-.78-.312c-.28-.096-.62-.144-1.02-.144-.448 0-.772.064-.972.192-.192.12-.288.308-.288.564 0 .152.036.28.108.384.072.104.172.2.3.288.136.08.288.156.456.228.176.064.368.132.576.204.432.16.808.32 1.128.48.32.152.584.332.792.54.216.208.376.452.48.732.104.28.156.62.156 1.02 0 .776-.272 1.38-.816 1.812-.544.424-1.364.636-2.46.636-.368 0-.7-.024-.996-.072a6.037 6.037 0 01-.792-.156 4.97 4.97 0 01-.588-.204 4.821 4.821 0 01-.408-.204l.528-1.488c.248.136.552.26.912.372.368.104.816.156 1.344.156zM79.605 10a16.621 16.621 0 00-.3-.888l-.312-.912h-3.24c-.104.304-.212.608-.324.912-.104.304-.2.6-.288.888h-1.944c.312-.896.608-1.724.888-2.484s.552-1.476.816-2.148c.272-.672.536-1.308.792-1.908.264-.608.536-1.2.816-1.776h1.788c.272.576.54 1.168.804 1.776.264.6.528 1.236.792 1.908.272.672.548 1.388.828 2.148.28.76.576 1.588.888 2.484h-2.004zM77.36 3.568c-.04.12-.1.284-.18.492l-.276.72c-.104.272-.22.572-.348.9-.12.328-.244.672-.372 1.032h2.364c-.128-.36-.252-.704-.372-1.032a24.33 24.33 0 00-.348-.9 396.219 396.219 0 00-.468-1.212zm13.463-.444c-.872 0-1.504.244-1.896.732-.384.48-.576 1.14-.576 1.98 0 .408.048.78.144 1.116.096.328.24.612.432.852s.432.428.72.564c.288.128.624.192 1.008.192.208 0 .384-.004.528-.012.152-.008.284-.024.396-.048V5.608h1.872v4.116c-.224.088-.584.18-1.08.276-.496.104-1.108.156-1.836.156a4.82 4.82 0 01-1.704-.288 3.56 3.56 0 01-1.296-.84c-.36-.368-.64-.82-.84-1.356-.192-.536-.288-1.148-.288-1.836 0-.696.108-1.312.324-1.848.216-.536.512-.988.888-1.356.376-.376.816-.66 1.32-.852a4.61 4.61 0 011.632-.288c.392 0 .744.028 1.056.084.32.048.592.108.816.18.232.064.42.132.564.204.152.072.26.128.324.168l-.54 1.5a4.567 4.567 0 00-.888-.348 3.558 3.558 0 00-1.08-.156zm7.406-1.536c1.248 0 2.204.224 2.868.672.664.44.996 1.128.996 2.064 0 .584-.136 1.06-.408 1.428-.264.36-.648.644-1.152.852.168.208.344.448.528.72.184.264.364.544.54.84.184.288.36.592.528.912.168.312.324.62.468.924h-2.1a99.574 99.574 0 00-.468-.828c-.152-.28-.312-.552-.48-.816-.16-.264-.32-.512-.48-.744-.16-.24-.32-.456-.48-.648h-.924V10h-1.872V1.804c.408-.08.828-.136 1.26-.168a16.4 16.4 0 011.176-.048zm.108 1.596c-.136 0-.26.004-.372.012l-.3.024v2.256h.528c.704 0 1.208-.088 1.512-.264.304-.176.456-.476.456-.9 0-.408-.156-.696-.468-.864-.304-.176-.756-.264-1.356-.264zm7.421 2.652c0 .408.048.776.144 1.104.104.328.248.612.432.852.192.232.424.412.696.54.272.128.584.192.936.192.344 0 .652-.064.924-.192a1.86 1.86 0 00.696-.54c.192-.24.336-.524.432-.852.104-.328.156-.696.156-1.104 0-.408-.052-.776-.156-1.104a2.314 2.314 0 00-.432-.852 1.812 1.812 0 00-.696-.552 2.145 2.145 0 00-.924-.192c-.352 0-.664.068-.936.204a1.94 1.94 0 00-.696.552 2.587 2.587 0 00-.432.852 3.88 3.88 0 00-.144 1.092zm6.348 0c0 .712-.108 1.34-.324 1.884a3.866 3.866 0 01-.864 1.356c-.368.36-.808.632-1.32.816a4.723 4.723 0 01-1.632.276 4.652 4.652 0 01-1.608-.276 3.74 3.74 0 01-1.32-.816 3.917 3.917 0 01-.888-1.356c-.216-.544-.324-1.172-.324-1.884s.112-1.336.336-1.872c.224-.544.524-1 .9-1.368a3.798 3.798 0 011.32-.828 4.583 4.583 0 011.584-.276c.568 0 1.104.092 1.608.276.504.184.944.46 1.32.828.376.368.672.824.888 1.368.216.536.324 1.16.324 1.872zm5.412 4.332c-.584 0-1.088-.08-1.512-.24a2.978 2.978 0 01-1.056-.684 2.904 2.904 0 01-.612-1.044 4.472 4.472 0 01-.192-1.344V1.684h1.872V6.7c0 .336.036.624.108.864.08.232.184.424.312.576.136.144.296.248.48.312.192.064.4.096.624.096.456 0 .824-.14 1.104-.42.288-.28.432-.756.432-1.428V1.684h1.872v5.172c0 .488-.068.936-.204 1.344-.136.408-.344.76-.624 1.056-.28.288-.636.512-1.068.672-.432.16-.944.24-1.536.24zm8.328-8.58c1.24 0 2.192.22 2.856.66.664.432.996 1.144.996 2.136 0 1-.336 1.724-1.008 2.172-.672.44-1.632.66-2.88.66h-.588V10h-1.872V1.804c.408-.08.84-.136 1.296-.168.456-.032.856-.048 1.2-.048zm.12 1.596c-.136 0-.272.004-.408.012-.128.008-.24.016-.336.024v2.4h.588c.648 0 1.136-.088 1.464-.264.328-.176.492-.504.492-.984 0-.232-.044-.424-.132-.576a.867.867 0 00-.36-.36 1.423 1.423 0 00-.564-.192 4.247 4.247 0 00-.744-.06z" fill="#18172F"/><path d="M133.306 9.052c0 .36-.116.636-.348.828-.224.184-.48.276-.768.276-.288 0-.548-.092-.78-.276-.224-.192-.336-.468-.336-.828 0-.36.112-.632.336-.816.232-.192.492-.288.78-.288.288 0 .544.096.768.288.232.184.348.456.348.816z" fill="#FFBA00"/><path d="M5.54 1.22C6.16.258 8.046-.238 9.751.112c1.706.35 2.586 1.414 1.965 2.376l-5.34 8.273c-.621.962-2.507 1.458-4.213 1.108-1.706-.35-2.586-1.414-1.965-2.376L5.54 1.22z" fill="#484CE6"/><path d="M15.373 1.239C15.994.277 17.88-.219 19.586.131c1.706.35 2.586 1.414 1.965 2.376l-5.34 8.273c-.621.962-2.507 1.458-4.213 1.108-1.706-.35-2.586-1.414-1.965-2.376l5.34-8.273z" fill="#FFBA00"/></svg>