<svg width="53" height="18" fill="none" xmlns="http://www.w3.org/2000/svg"><path d="M13.092 6.53H6.93v1.829h4.37c-.216 2.564-2.35 3.658-4.363 3.658a4.806 4.806 0 01-4.825-4.869c0-2.768 2.143-4.9 4.83-4.9 2.074 0 3.296 1.322 3.296 1.322l1.28-1.326S9.875.414 6.878.414C3.06.415.107 3.637.107 7.116a6.807 6.807 0 006.866 6.734c3.597 0 6.23-2.463 6.23-6.107 0-.768-.112-1.213-.112-1.213v.001zm5.048-1.324c-2.528 0-4.34 1.977-4.34 4.283 0 2.34 1.757 4.353 4.37 4.353 2.365 0 4.303-1.808 4.303-4.303 0-2.86-2.254-4.333-4.333-4.333zm.026 1.696c1.243 0 2.421 1.006 2.421 2.626 0 1.585-1.173 2.62-2.427 2.62-1.378 0-2.466-1.105-2.466-2.633 0-1.496 1.074-2.613 2.472-2.613zm9.415-1.696c-2.529 0-4.34 1.977-4.34 4.283 0 2.34 1.757 4.353 4.37 4.353 2.365 0 4.303-1.808 4.303-4.303 0-2.86-2.254-4.333-4.333-4.333zm.025 1.696c1.244 0 2.422 1.006 2.422 2.626 0 1.585-1.173 2.62-2.427 2.62-1.378 0-2.466-1.105-2.466-2.633 0-1.496 1.074-2.613 2.471-2.613zm9.235-1.692c-2.32 0-4.145 2.033-4.145 4.315 0 2.599 2.115 4.322 4.105 4.322 1.23 0 1.885-.488 2.368-1.049v.851c0 1.49-.904 2.382-2.27 2.382-1.318 0-1.98-.98-2.21-1.537l-1.66.694c.59 1.245 1.774 2.543 3.884 2.543 2.308 0 4.067-1.454 4.067-4.502v-7.76h-1.81v.732c-.557-.6-1.319-.99-2.329-.99zm.168 1.693c1.138 0 2.307.972 2.307 2.63 0 1.688-1.166 2.617-2.332 2.617-1.237 0-2.389-1.005-2.389-2.6 0-1.658 1.196-2.647 2.414-2.647zM49.03 5.2c-2.19 0-4.028 1.742-4.028 4.313 0 2.72 2.049 4.332 4.238 4.332 1.827 0 2.948-1 3.617-1.895l-1.492-.993c-.388.601-1.035 1.189-2.116 1.189-1.214 0-1.772-.665-2.118-1.309l5.79-2.402-.3-.704c-.56-1.379-1.865-2.53-3.591-2.53zm.075 1.661c.789 0 1.357.42 1.598.922L46.836 9.4c-.166-1.25 1.019-2.538 2.269-2.538zm-6.863 6.728h1.901V.861h-1.901V13.59z" fill="#18172F"/></svg>