<svg width="120" height="19" fill="none" xmlns="http://www.w3.org/2000/svg"><path d="M11.355 2.225l-.564.172a3.546 3.546 0 00-.266-.673C10.118.956 9.538.548 8.833.548c-.047 0-.094 0-.14.016C8.676.533 8.644.517 8.63.486 8.317.156 7.925 0 7.455 0c-.924.031-1.832.69-2.568 1.865-.517.83-.925 1.864-1.034 2.679l-1.801.564c-.533.172-.548.188-.611.69C1.394 6.174 0 16.938 0 16.938l11.543 1.99V2.21a.58.58 0 00-.188.016zm-2.663.83l-1.942.612c.188-.721.548-1.442.987-1.912.157-.172.392-.376.658-.486.25.533.297 1.27.297 1.786zM7.44.627a.958.958 0 01.549.14 2.67 2.67 0 00-.705.55c-.58.626-1.034 1.597-1.206 2.538l-1.613.501C4.793 2.883 6.014.674 7.439.626zM5.654 9.025c.063.987 2.647 1.191 2.788 3.495.11 1.817-.956 3.055-2.506 3.149-1.864.125-2.882-.972-2.882-.972l.392-1.676s1.033.783 1.848.72a.717.717 0 00.705-.783c-.079-1.285-2.177-1.206-2.318-3.306-.11-1.77 1.049-3.572 3.617-3.73.987-.062 1.488.189 1.488.189l-.58 2.194s-.657-.298-1.424-.251c-1.128.078-1.144.799-1.128.971zm3.65-6.158c0-.47-.063-1.112-.283-1.676.69.125 1.034.924 1.19 1.394-.015 0-.908.282-.908.282zm2.568 16.03l4.792-1.191S14.597 3.76 14.597 3.666a.2.2 0 00-.172-.156c-.063 0-1.41-.031-1.41-.031s-.814-.8-1.128-1.097v16.515h-.015zM60.218 1.588c-.044.012-.205.048-.362.084a4.041 4.041 0 00-1.13.499c-.785.539-1.368 1.585-1.61 2.868l-.072.387h-.53c-.323 0-.544.016-.56.04-.028.044-.342 1.621-.342 1.714 0 .044.105.056.547.056h.547l-.02.088c-.016.053-.068.338-.125.636l-.241 1.288c-.077.41-.262 1.376-.406 2.152-.145.772-.31 1.641-.367 1.923-.056.286-.092.543-.08.575.028.077 2.285.085 2.346.004.024-.024.088-.31.148-.631.153-.853.218-1.195.85-4.526.08-.423.176-.93.212-1.127l.069-.362.825-.012.824-.008.153-.857c.085-.467.153-.877.15-.905 0-.036-.194-.048-.822-.048h-.82l.096-.407c.117-.495.21-.708.423-.99.18-.245.482-.434.78-.494.193-.04.47-.02.849.06l.125.028.229-.917c.133-.535.213-.93.193-.95-.096-.096-.503-.16-1.134-.172-.367-.009-.7-.009-.745.004zm-32.498.225a203.95 203.95 0 00-.531 2.768c-.053.278-.186.99-.302 1.59l-.302 1.588c-.052.278-.298 1.561-.543 2.857-.555 2.92-.604 3.174-.604 3.266 0 .069.069.073 1.167.073h1.167l.036-.089c.02-.052.109-.49.201-.977.5-2.664.684-3.557.821-3.939.382-1.058 1.018-1.718 1.654-1.718.313 0 .514.113.631.354.089.173.097.242.089.676-.004.322-.04.664-.109 1.026-.676 3.576-.861 4.61-.837 4.635.02.02.555.028 1.195.024l1.163-.012.048-.262c.028-.145.258-1.368.515-2.715.49-2.607.571-3.163.531-3.746-.072-1.046-.58-1.702-1.464-1.89-.906-.19-1.895.132-2.692.884-.18.173-.334.302-.334.286 0-.032.12-.672.483-2.555.265-1.376.402-2.1.402-2.164 0-.036-.261-.048-1.183-.048H27.74l-.02.088zm26.222.088c-.595.19-.941.624-.977 1.24-.033.534.173.957.57 1.17.138.076.23.089.572.089.386 0 .423-.009.684-.141.998-.511.946-2.048-.08-2.354a1.425 1.425 0 00-.769-.004zm40.131 1.955c-.21.085-.398.181-.415.21-.02.028-.092.37-.16.756l-.13.704-.61.012c-.54.008-.612.02-.632.08-.017.06-.105.524-.105.56 0 .008.274.012.603.012h.604l-.02.088c-.024.097-.282 1.457-.543 2.869a164.1 164.1 0 01-.346 1.81c-.173.885-.19 1.018-.193 1.59-.004.603 0 .631.108.852.129.258.322.45.588.568.233.104.917.136 1.25.06l.222-.056-.012-.238c-.02-.354-.032-.386-.16-.354a2.913 2.913 0 01-.431.032c-.359 0-.527-.068-.68-.273-.077-.105-.085-.165-.085-.704.004-.572.016-.656.374-2.583.206-1.094.439-2.338.515-2.756.077-.422.15-.797.161-.837.02-.064.105-.068 1.002-.068h.978l.064-.286a3.7 3.7 0 00.064-.322c0-.02-.434-.036-.965-.036-.905 0-.966-.004-.966-.072 0-.04.073-.435.161-.877.089-.439.157-.821.153-.85-.008-.027-.149.013-.394.11zM38.554 5.305c-1.312.185-2.394.86-3.174 1.987-.994 1.436-1.32 3.504-.777 4.908.591 1.521 2.285 2.237 4.16 1.758 1.967-.507 3.371-2.418 3.573-4.864.152-1.882-.725-3.319-2.273-3.709-.375-.096-1.119-.133-1.51-.08zm.607 1.866c.383.137.644.52.72 1.063.093.68-.144 1.975-.502 2.735-.439.921-.93 1.332-1.537 1.28-.43-.037-.688-.226-.873-.632-.197-.423-.234-.91-.125-1.625.217-1.445.833-2.543 1.581-2.817.19-.068.547-.072.736-.004zm8.751-1.841a3.38 3.38 0 00-1.887 1.222c-.105.137-.109.137-.109.04 0-.056.028-.325.06-.603.033-.278.06-.515.06-.535 0-.016-.478-.028-1.065-.028-.913 0-1.066.008-1.066.06 0 .133-.21 1.581-.338 2.333-.125.729-.399 2.185-.708 3.782-.065.33-.202 1.046-.302 1.59-.1.542-.23 1.21-.282 1.488-.052.277-.18.945-.281 1.488-.101.543-.194 1.026-.202 1.074l-.02.093h1.183c.652 0 1.195-.012 1.203-.032.02-.028.56-2.893.616-3.25.04-.258.056-.27.265-.178.54.238 1.465.294 2.144.125 2.145-.523 3.718-2.913 3.722-5.645 0-1.597-.612-2.655-1.73-2.985-.326-.096-.925-.116-1.263-.04zm-.004 2.043c.169.092.346.322.418.547.088.266.1.873.024 1.348-.25 1.613-1.106 2.884-2.036 3.017-.313.044-.796-.08-1.054-.277-.068-.053-.064-.105.109-1.095.217-1.235.334-1.746.487-2.128.474-1.203 1.34-1.794 2.052-1.412zM22.482 5.381c-1.203.25-2.08.938-2.418 1.9-.141.401-.177 1.041-.077 1.387.193.676.672 1.207 1.55 1.726.426.254.703.49.82.7.261.483.02 1.022-.52 1.167-.43.116-1.202.004-1.91-.274-.23-.088-.435-.149-.45-.133-.017.017-.15.383-.298.821-.23.66-.266.8-.222.853.077.088.813.366 1.211.455.52.108 1.77.1 2.281-.017.78-.184 1.328-.478 1.775-.957.51-.547.708-1.11.683-1.931-.012-.467-.02-.495-.169-.8-.193-.395-.695-.922-1.158-1.216l-.656-.418c-.39-.245-.567-.45-.607-.704-.033-.217.076-.479.261-.636.35-.293 1.195-.31 2-.032l.326.109.265-.809c.149-.442.27-.829.27-.857 0-.076-.366-.225-.745-.31-.49-.108-1.734-.12-2.212-.024zm53.157.004c-.447.052-.941.25-1.356.535-.286.193-.752.66-1.014 1.006a3.215 3.215 0 01-.237.298c0-.008.056-.37.12-.805.069-.434.121-.809.121-.833 0-.024-.145-.04-.358-.04h-.354l-.028.21c-.093.715-.366 2.305-.688 3.974-.052.278-.16.845-.237 1.267-.08.419-.262 1.396-.41 2.173-.145.772-.29 1.545-.319 1.71-.028.165-.144.784-.257 1.376a87.954 87.954 0 00-.205 1.094c0 .04.72.024.744-.016.012-.02.097-.435.185-.913.39-2.129.487-2.648.5-2.66.003-.008.116.033.245.085.422.177.828.245 1.424.245.643-.004.99-.084 1.549-.354 1.641-.788 2.864-2.848 3.077-5.162.125-1.396-.314-2.538-1.154-2.977-.37-.197-.857-.27-1.348-.213zm.792.8c.7.347 1.034 1.248.91 2.439-.181 1.673-1.014 3.339-2.116 4.212-.266.213-.765.463-1.079.535-.523.125-1.259.048-1.762-.185-.414-.193-.406-.16-.273-.84.06-.323.205-1.071.317-1.662.222-1.183.39-1.77.684-2.382.459-.954 1.135-1.714 1.843-2.068.483-.245 1.042-.261 1.476-.048zm7.339-.8c-1.107.101-2.125.624-2.998 1.541-.668.696-1.15 1.53-1.484 2.543-.254.764-.318 1.19-.322 2.032 0 .615.012.744.093 1.025.374 1.292 1.464 1.863 2.775 1.449.785-.25 1.541-.962 2.108-1.984.089-.16.17-.285.178-.277.012.012-.02.314-.065.676-.048.362-.092.857-.092 1.102l-.008.442h.683l.045-.844c.08-1.44.14-1.863.74-4.888.241-1.231.455-2.318.467-2.418.024-.185.024-.19-.109-.23-.253-.08-.575-.128-1.082-.169a9.506 9.506 0 00-.543-.032c-.02 0-.197.016-.387.032zm1.11.717c.068.016.125.064.133.1.028.137-.64 3.46-.78 3.886-.596 1.823-1.864 3.247-2.958 3.332-.704.052-1.175-.274-1.412-.978-.084-.254-.092-.35-.092-1.062 0-.676.012-.845.092-1.203.31-1.38 1.054-2.62 2.02-3.363.446-.342 1.126-.652 1.641-.745.225-.044 1.183-.02 1.356.033zm5.797-.712c-.684.1-1.4.716-1.903 1.637-.096.169-.173.278-.173.237 0-.068.133-1.227.181-1.569l.02-.149h-.342c-.321 0-.341.004-.357.089-.009.052-.049.346-.085.656-.109.917-.201 1.436-1.32 7.33-.032.16-.048.302-.036.314.048.044.684.02.72-.033.02-.024.069-.213.105-.41.273-1.569.78-4.124.877-4.458.302-1.013.921-2.003 1.557-2.482.35-.261.62-.362.97-.362h.269l.068-.386c.04-.213.065-.394.06-.398-.043-.037-.414-.045-.61-.016zm9.792-.004c-.37.044-.579.108-.945.281-.547.266-1.102.769-1.497 1.36-.076.117-.144.21-.153.201a20.67 20.67 0 01.105-.796c.064-.43.113-.81.117-.837 0-.036-.097-.049-.35-.049h-.354l-.133.938c-.072.51-.177 1.159-.23 1.436l-.462 2.454c-.201 1.074-.43 2.273-.507 2.672-.072.394-.137.76-.137.812 0 .093.008.097.362.097.342 0 .362-.004.383-.093.012-.048.092-.487.18-.973.576-3.146.697-3.746.805-4.084.535-1.641 2.012-2.917 3.158-2.736.519.085.845.334 1.006.769.069.185.081.31.077.86-.004.576-.025.733-.169 1.49-.093.462-.23 1.186-.31 1.609-.081.418-.237 1.243-.346 1.83-.113.587-.209 1.119-.209 1.187l-.008.12.354.013c.257.008.358-.004.37-.04.02-.057.084-.395.66-3.493.458-2.458.454-2.434.454-2.916.004-1.252-.635-2.036-1.738-2.125a2.827 2.827 0 00-.483.013zm7.194-.001c-1.545.185-2.997 1.839-3.549 4.055-.144.576-.185.91-.185 1.51 0 1.697.692 2.787 1.956 3.069.446.096 1.303.06 1.834-.077.386-.1 1.042-.378 1.094-.462.02-.037-.144-.552-.193-.604-.008-.008-.112.04-.229.109-.33.185-.905.358-1.34.406-1.106.125-1.854-.334-2.18-1.34-.101-.301-.109-.398-.129-1.158-.008-.459 0-.861.02-.897.028-.053.137-.069.596-.085 2.969-.112 4.485-.95 4.594-2.534.092-1.336-.853-2.16-2.289-1.992zm.816.752c.238.105.463.306.572.511.076.141.088.23.088.588 0 .398-.008.442-.133.692-.394.804-1.488 1.215-3.484 1.303l-.599.028.028-.152c.036-.194.221-.66.411-1.038.531-1.054 1.259-1.763 2.039-1.98.29-.08.837-.056 1.078.048zm5.931-.747c-.692.1-1.521.836-1.956 1.733-.052.109-.104.193-.116.193-.012 0 .016-.293.06-.655.048-.359.101-.757.113-.886l.024-.233-.35.012-.346.012-.069.604c-.088.792-.249 1.742-.7 4.083-.052.278-.181.946-.281 1.489-.101.543-.238 1.247-.298 1.569-.064.322-.109.595-.096.611.028.057.683.037.724-.02.02-.024.116-.475.209-.994.177-.957.354-1.886.571-3.017.065-.342.181-.809.258-1.038.293-.869.857-1.774 1.384-2.205.386-.321.639-.43 1.026-.458l.321-.02.077-.374c.04-.21.068-.383.06-.39-.04-.037-.41-.045-.615-.017zm3.335-.001c-.99.117-1.851.837-2.084 1.75a2.309 2.309 0 00.33 1.85c.241.339.434.52.953.89.221.157.479.366.571.466.499.543.632 1.396.318 2.06-.474 1.006-1.758 1.308-2.904.684l-.25-.133-.141.306c-.076.17-.132.322-.12.342.036.056.47.262.756.35.43.137 1.175.157 1.645.044 1.215-.29 1.952-1.23 1.956-2.498 0-.873-.374-1.525-1.264-2.189-.591-.442-.836-.696-1.001-1.025-.121-.246-.129-.294-.129-.668 0-.354.012-.43.109-.632a1.66 1.66 0 011.098-.897c.442-.113.889-.06 1.4.169.133.06.245.088.265.068.041-.048.246-.53.246-.579 0-.064-.386-.237-.652-.298-.354-.08-.764-.1-1.102-.06zm-65.171.125a44.52 44.52 0 00-.177.917c-.088.475-.317 1.67-.502 2.655-.19.986-.471 2.467-.628 3.291-.157.825-.274 1.517-.262 1.541.028.04 2.225.052 2.33.012.036-.012.064-.056.064-.096s.117-.684.262-1.433c.145-.752.338-1.746.426-2.208.089-.467.221-1.163.298-1.55.281-1.427.583-3.045.583-3.109 0-.064-.1-.068-1.187-.068-.917 0-1.194.012-1.207.048zm8.952.008c0 .048.277 1.573.784 4.3l.278 1.51c.076.414.197 1.053.265 1.42.141.768.15.732-.18 1.223-.471.708-1.364 1.388-2.225 1.693-.141.049-.206.093-.194.125.013.032.161.483.33 1.01.17.523.314.961.322.97.024.027.748-.242 1.022-.379.732-.37 1.557-1.074 2.189-1.87.583-.737 1.38-2.032 1.955-3.179a912.39 912.39 0 003.162-6.75l.056-.13-1.25.009-1.252.012-.398 1.026a109.901 109.901 0 00-1.348 3.6c-.294.833-.418 1.139-.434 1.066a30.356 30.356 0 01-.085-.804 693.73 693.73 0 00-.483-4.74l-.024-.168H62.77c-1.026 0-1.243.008-1.243.056z" fill="#18172F"/></svg>