<svg width="195" height="31" fill="none" xmlns="http://www.w3.org/2000/svg"><path d="M18.51 3.627l-.919.281a5.781 5.781 0 00-.434-1.098C16.494 1.558 15.55.894 14.4.894c-.077 0-.153 0-.23.026-.025-.052-.076-.077-.102-.128C13.558.255 12.92 0 12.153 0c-1.506.051-2.987 1.124-4.187 3.04-.843 1.353-1.506 3.04-1.685 4.368l-2.936.92c-.868.28-.894.306-.996 1.123C2.272 10.064 0 27.612 0 27.612l18.817 3.244V3.602c-.153 0-.23 0-.306.025zm-4.34 1.354l-3.166.996c.307-1.175.894-2.35 1.609-3.116.255-.281.638-.613 1.072-.792.409.868.485 2.069.485 2.912zm-2.042-3.96c.306-.025.638.077.893.23-.434.23-.817.537-1.149.895-.944 1.021-1.685 2.605-1.966 4.138l-2.63.817c.537-2.401 2.528-6.003 4.852-6.08zm-2.91 13.692c.101 1.61 4.314 1.941 4.544 5.696.178 2.963-1.558 4.981-4.085 5.134-3.039.205-4.698-1.583-4.698-1.583l.638-2.733S7.302 22.504 8.63 22.4a1.169 1.169 0 001.149-1.277C9.65 19.03 6.229 19.158 6 15.734c-.179-2.886 1.71-5.823 5.898-6.079 1.608-.102 2.425.307 2.425.307l-.944 3.576s-1.073-.485-2.324-.409c-1.838.128-1.863 1.303-1.838 1.584zm5.948-10.039c0-.766-.102-1.813-.46-2.733 1.124.205 1.686 1.507 1.94 2.274-.025 0-1.48.46-1.48.46zm4.187 26.131l7.813-1.941s-3.37-22.734-3.37-22.887a.327.327 0 00-.281-.255c-.102 0-2.298-.051-2.298-.051S19.89 4.368 19.38 3.883v26.922h-.026zM98.167 2.589c-.072.02-.334.078-.59.137-.525.119-1.384.499-1.843.814-1.279.879-2.23 2.584-2.623 4.676l-.118.63h-.866c-.525 0-.885.026-.912.065-.046.072-.557 2.643-.557 2.794 0 .072.17.092.892.092h.892l-.033.144c-.026.085-.112.551-.203 1.036-.092.486-.27 1.43-.394 2.099-.124.669-.426 2.243-.662 3.509a399.041 399.041 0 01-.597 3.135c-.092.465-.15.885-.131.938.046.124 3.725.137 3.823.006.04-.04.145-.505.243-1.03.25-1.39.354-1.947 1.384-7.378.131-.688.288-1.515.347-1.836l.112-.59 1.344-.02 1.345-.013.25-1.397c.137-.761.248-1.43.242-1.476 0-.059-.315-.079-1.338-.079h-1.338l.157-.662c.19-.807.341-1.154.689-1.613.295-.4.787-.709 1.272-.807.315-.066.768-.033 1.384.098l.203.046.374-1.495c.217-.872.348-1.515.315-1.548-.157-.157-.82-.262-1.85-.282-.596-.013-1.14-.013-1.213.007zm-52.979.367c-.04.15-.584 2.99-.866 4.512-.085.453-.301 1.614-.492 2.59-.183.972-.406 2.139-.491 2.591-.086.453-.486 2.545-.886 4.657-.905 4.761-.984 5.174-.984 5.325 0 .112.112.118 1.902.118h1.902l.06-.144c.032-.085.177-.8.327-1.594.814-4.341 1.115-5.797 1.338-6.42.623-1.725 1.66-2.8 2.696-2.8.511 0 .84.183 1.03.576.144.282.157.394.144 1.102a9.675 9.675 0 01-.177 1.673c-1.102 5.83-1.404 7.516-1.364 7.555.032.033.904.046 1.947.04l1.896-.02.078-.427c.046-.236.42-2.23.84-4.427.8-4.25.931-5.155.866-6.105-.118-1.706-.945-2.775-2.388-3.083-1.475-.308-3.089.216-4.387 1.443-.295.282-.545.492-.545.466 0-.053.197-1.096.787-4.165.433-2.243.656-3.424.656-3.529 0-.059-.426-.078-1.928-.078h-1.928l-.033.144zm42.748.144c-.97.309-1.535 1.017-1.594 2.02-.052.873.282 1.561.932 1.909.223.124.373.144.93.144.63 0 .69-.013 1.116-.23 1.626-.832 1.541-3.338-.131-3.836-.394-.118-.899-.118-1.253-.007zm65.42 3.188c-.341.137-.649.295-.675.34-.033.047-.151.604-.263 1.234l-.209 1.147-.997.02c-.879.013-.997.033-1.03.131-.026.099-.171.853-.171.912 0 .013.446.02.984.02h.984l-.033.144a357.21 357.21 0 00-.885 4.676c-.138.754-.394 2.086-.564 2.951-.282 1.443-.308 1.66-.315 2.59-.007.985 0 1.03.177 1.391.21.42.525.735.958.925.38.17 1.495.223 2.039.098l.361-.091-.02-.387c-.032-.578-.052-.63-.262-.578-.098.027-.413.046-.702.053-.583 0-.859-.111-1.108-.446-.125-.17-.138-.269-.138-1.148.007-.931.026-1.069.61-4.21.335-1.784.715-3.81.84-4.493.124-.688.242-1.298.262-1.364.033-.105.17-.111 1.633-.111h1.594l.105-.466c.059-.256.104-.492.104-.525 0-.032-.708-.059-1.574-.059-1.475 0-1.574-.006-1.574-.118 0-.065.118-.708.263-1.43.144-.714.256-1.337.249-1.383-.013-.046-.243.02-.643.177zM62.85 8.649c-2.138.301-3.902 1.403-5.175 3.24-1.62 2.341-2.15 5.712-1.265 8 .964 2.48 3.725 3.647 6.781 2.867 3.207-.826 5.496-3.942 5.824-7.93.25-3.069-1.18-5.41-3.706-6.046-.61-.157-1.823-.216-2.459-.131zm.99 3.043c.623.223 1.05.846 1.174 1.731.151 1.109-.236 3.22-.82 4.46-.714 1.502-1.514 2.17-2.505 2.086-.702-.06-1.121-.368-1.423-1.03-.321-.689-.38-1.482-.203-2.65.354-2.354 1.357-4.145 2.577-4.59.309-.112.892-.119 1.2-.007zm14.265-3.004c-1.174.262-2.335 1.017-3.076 1.994-.17.223-.177.223-.177.065 0-.091.046-.53.098-.983.053-.453.099-.84.099-.873 0-.026-.78-.046-1.738-.046-1.49 0-1.738.014-1.738.099 0 .216-.341 2.577-.551 3.804a372.32 372.32 0 01-1.154 6.165c-.105.538-.328 1.705-.492 2.59-.164.886-.374 1.974-.46 2.427-.085.452-.295 1.541-.459 2.427-.164.885-.314 1.672-.328 1.75l-.032.152h1.928c1.062 0 1.948-.02 1.96-.053.034-.046.912-4.715 1.004-5.3.066-.419.092-.439.433-.288.879.387 2.387.479 3.496.204 3.495-.853 6.06-4.749 6.066-9.202 0-2.604-.997-4.329-2.82-4.866-.531-.158-1.508-.19-2.06-.066zm-.007 3.332c.276.15.564.524.682.892.145.433.164 1.423.04 2.197-.407 2.63-1.804 4.702-3.319 4.919-.511.072-1.298-.131-1.718-.453-.112-.085-.105-.17.177-1.784.354-2.013.544-2.846.794-3.47.773-1.96 2.183-2.924 3.344-2.301zM36.65 8.773c-1.962.407-3.392 1.529-3.942 3.096-.23.656-.29 1.699-.125 2.263.315 1.101 1.095 1.967 2.525 2.813.695.413 1.148.8 1.338 1.141.426.787.033 1.666-.846 1.902-.702.19-1.961.007-3.116-.446-.373-.144-.708-.242-.734-.216-.026.026-.243.623-.485 1.338-.374 1.075-.433 1.305-.361 1.39.125.145 1.325.597 1.974.741.846.177 2.886.164 3.719-.026 1.272-.302 2.164-.78 2.892-1.56.833-.893 1.154-1.811 1.115-3.149-.02-.76-.033-.807-.276-1.305-.314-.643-1.134-1.502-1.888-1.98-.276-.178-.761-.486-1.07-.683-.636-.4-.924-.734-.99-1.148-.052-.354.125-.78.426-1.036.571-.478 1.948-.505 3.26-.052l.531.177.433-1.318c.243-.722.44-1.351.44-1.397 0-.125-.597-.368-1.214-.505-.8-.177-2.826-.197-3.607-.04zm86.656.007c-.728.085-1.535.407-2.211.872-.465.315-1.226 1.076-1.652 1.64-.21.282-.387.498-.387.485 0-.013.092-.603.196-1.312.112-.708.197-1.318.197-1.357 0-.04-.236-.066-.583-.066h-.578l-.046.341c-.15 1.168-.596 3.758-1.121 6.48-.085.453-.262 1.377-.387 2.066-.131.682-.426 2.276-.669 3.542-.236 1.259-.472 2.518-.518 2.787a213.46 213.46 0 01-.42 2.243c-.183.964-.334 1.764-.334 1.784 0 .065 1.174.039 1.213-.027.02-.032.157-.708.302-1.488.636-3.47.793-4.316.813-4.335.007-.014.19.052.4.137.689.289 1.351.4 2.322.4 1.049-.006 1.613-.137 2.525-.577 2.676-1.285 4.669-4.643 5.017-8.414.203-2.276-.512-4.139-1.882-4.854-.604-.32-1.397-.439-2.197-.347zm1.292 1.305c1.141.564 1.685 2.033 1.482 3.974-.295 2.729-1.653 5.444-3.45 6.867-.433.348-1.246.754-1.758.872-.852.204-2.052.08-2.872-.301-.676-.315-.663-.263-.446-1.371.098-.525.334-1.745.518-2.709.361-1.928.636-2.885 1.115-3.882.748-1.555 1.849-2.794 3.004-3.371.787-.4 1.698-.427 2.407-.079zM136.56 8.78c-1.803.164-3.463 1.016-4.886 2.512-1.088 1.134-1.875 2.492-2.42 4.145-.413 1.246-.518 1.941-.525 3.312 0 1.003.02 1.213.151 1.672.61 2.105 2.388 3.037 4.526 2.361 1.279-.407 2.512-1.567 3.436-3.233.145-.262.276-.466.289-.453.02.02-.033.512-.105 1.102-.079.59-.151 1.397-.151 1.797l-.013.722h1.115l.072-1.378c.131-2.348.23-3.036 1.207-7.968.393-2.007.741-3.778.761-3.942.039-.301.039-.308-.178-.374-.413-.13-.937-.21-1.764-.275a15.478 15.478 0 00-.885-.053c-.033 0-.321.027-.63.053zm1.81 1.167c.112.027.204.105.217.164.046.223-1.043 5.64-1.273 6.336-.97 2.97-3.036 5.292-4.82 5.43-1.148.085-1.915-.446-2.302-1.594-.138-.413-.151-.57-.151-1.731 0-1.102.02-1.377.151-1.961.505-2.25 1.718-4.27 3.292-5.483.728-.557 1.837-1.062 2.676-1.213.367-.072 1.928-.033 2.21.052zm9.451-1.161c-1.115.164-2.282 1.168-3.102 2.67-.157.275-.282.452-.282.387 0-.112.216-2 .295-2.558l.033-.243h-.558c-.524 0-.557.007-.583.145a43.59 43.59 0 00-.138 1.069c-.177 1.495-.328 2.34-2.151 11.949-.053.262-.079.492-.059.512.079.072 1.115.032 1.174-.053.033-.04.111-.348.17-.669.446-2.558 1.273-6.722 1.43-7.267.492-1.652 1.502-3.266 2.538-4.046.571-.426 1.01-.59 1.581-.59h.439l.112-.63c.065-.348.105-.643.098-.65-.072-.058-.676-.071-.997-.026zm15.963-.006c-.603.072-.944.177-1.541.459-.892.433-1.797 1.253-2.44 2.217-.124.19-.236.34-.249.328-.006-.013.072-.597.171-1.299.105-.702.183-1.318.19-1.364 0-.06-.158-.079-.571-.079h-.577l-.216 1.528a67.358 67.358 0 01-.374 2.342c-.085.452-.426 2.25-.754 4a995.503 995.503 0 01-.827 4.355c-.118.643-.223 1.24-.223 1.325 0 .15.013.157.591.157.557 0 .59-.006.623-.15.019-.08.15-.794.295-1.588.938-5.128 1.134-6.105 1.311-6.656.873-2.676 3.28-4.755 5.149-4.46.846.138 1.377.544 1.639 1.253.112.301.132.505.125 1.403-.007.938-.039 1.194-.275 2.427-.151.754-.374 1.934-.505 2.623-.132.682-.387 2.027-.564 2.984-.184.958-.342 1.823-.342 1.935l-.013.197.578.02c.419.012.583-.007.603-.066.033-.092.138-.643 1.075-5.693.748-4.007.742-3.968.742-4.755.006-2.04-1.037-3.318-2.834-3.463a4.603 4.603 0 00-.787.02zm11.727 0c-2.519.302-4.886 2.997-5.785 6.61-.236.939-.301 1.483-.301 2.46 0 2.768 1.128 4.545 3.187 5.004.728.158 2.125.099 2.991-.124.629-.164 1.698-.617 1.783-.755.033-.059-.236-.898-.314-.983-.013-.013-.184.065-.374.177-.538.302-1.476.584-2.184.662-1.804.204-3.024-.544-3.555-2.184-.164-.492-.177-.649-.21-1.889-.013-.747 0-1.403.033-1.462.046-.085.223-.112.971-.138 4.84-.184 7.312-1.548 7.49-4.132.15-2.177-1.391-3.521-3.732-3.246zm1.331 1.226c.387.17.754.499.931.833.125.23.145.374.145.958 0 .65-.013.721-.217 1.128-.642 1.312-2.426 1.98-5.679 2.125l-.978.046.046-.25c.059-.314.361-1.075.669-1.692.866-1.718 2.053-2.872 3.325-3.226.473-.131 1.365-.092 1.758.078zm9.667-1.22c-1.128.164-2.479 1.365-3.187 2.827-.085.177-.171.315-.19.315-.02 0 .026-.479.098-1.07.079-.583.164-1.232.184-1.442l.039-.38-.571.02-.564.02-.111.983c-.144 1.292-.407 2.84-1.141 6.657-.086.452-.295 1.54-.459 2.426-.164.886-.387 2.033-.486 2.558-.105.525-.177.97-.157.997.046.092 1.115.059 1.18-.033.033-.04.191-.774.341-1.62.289-1.56.578-3.076.932-4.919.105-.557.295-1.318.42-1.692.478-1.416 1.396-2.892 2.256-3.594.629-.524 1.042-.702 1.672-.747l.525-.033.124-.61c.066-.341.112-.623.099-.636-.066-.06-.669-.072-1.004-.027zm5.437 0c-1.613.19-3.017 1.365-3.397 2.853a3.766 3.766 0 00.538 3.017c.393.551.708.846 1.554 1.45.361.255.781.596.931.76.814.886 1.03 2.276.519 3.358-.774 1.64-2.866 2.132-4.736 1.115l-.406-.216-.23.498c-.124.276-.216.525-.197.558.059.092.768.426 1.233.57.702.223 1.915.256 2.683.073 1.98-.473 3.181-2.007 3.187-4.073 0-1.423-.61-2.486-2.059-3.568-.964-.721-1.364-1.135-1.633-1.672-.197-.4-.21-.48-.21-1.09 0-.576.02-.7.177-1.029.341-.728.984-1.246 1.79-1.462.722-.184 1.45-.099 2.283.275.216.099.4.144.433.112.065-.08.4-.866.4-.945 0-.105-.63-.387-1.063-.485a5.57 5.57 0 00-1.797-.099zm-106.24.204c-.013.046-.144.721-.288 1.495-.145.774-.519 2.722-.82 4.329-.308 1.607-.768 4.02-1.023 5.364-.256 1.345-.446 2.473-.427 2.512.046.066 3.627.086 3.798.02.059-.02.105-.092.105-.157 0-.066.19-1.115.426-2.335l.695-3.6c.144-.761.36-1.896.486-2.526.459-2.328.95-4.964.95-5.07 0-.104-.163-.11-1.934-.11-1.496 0-1.948.019-1.968.078zm14.593.013c0 .079.452 2.564 1.279 7.01l.452 2.46c.125.676.321 1.719.433 2.315.229 1.253.243 1.194-.295 1.994-.768 1.154-2.224 2.263-3.627 2.761-.23.079-.334.151-.315.204.02.052.263.787.538 1.646.276.852.512 1.567.525 1.58.039.046 1.22-.393 1.666-.616 1.193-.604 2.538-1.751 3.567-3.05.951-1.2 2.25-3.312 3.188-5.181a1491.27 1491.27 0 005.155-11.005l.091-.21-2.039.013-2.04.02-.649 1.672c-1.03 2.65-1.476 3.837-2.197 5.87-.479 1.358-.682 1.856-.709 1.738a51.976 51.976 0 01-.137-1.312c-.151-1.56-.741-7.378-.787-7.725l-.04-.276h-2.033c-1.672 0-2.026.013-2.026.092z" fill="#18172F"/></svg>