<svg width="53" height="18" viewBox="0 0 53 18" fill="none" xmlns="http://www.w3.org/2000/svg">
<path d="M13.0921 6.52996H6.92952V8.35868H11.3001C11.0842 10.9229 8.9507 12.0166 6.93691 12.0166C4.36042 12.0166 2.11207 9.98943 2.11207 7.14804C2.11207 4.38012 4.25527 2.24848 6.9426 2.24848C9.01584 2.24848 10.2375 3.57006 10.2375 3.57006L11.518 2.24412C11.518 2.24412 9.87454 0.414551 6.87718 0.414551C3.06037 0.414551 0.107666 3.63585 0.107666 7.11533C0.107666 10.5248 2.88516 13.8494 6.97446 13.8494C10.571 13.8494 13.2037 11.3856 13.2037 7.74222C13.2037 6.97368 13.0921 6.5294 13.0921 6.5294V6.52996Z" fill="#18172F"/>
<path d="M18.1404 5.20618C15.6117 5.20618 13.7994 7.18318 13.7994 9.4888C13.7994 11.8285 15.5572 13.8422 18.17 13.8422C20.5354 13.8422 22.4732 12.0344 22.4732 9.53914C22.4732 6.67907 20.2191 5.20618 18.1404 5.20618ZM18.1655 6.90225C19.4089 6.90225 20.5874 7.90763 20.5874 9.52758C20.5874 11.1132 19.414 12.1472 18.1598 12.1472C16.7816 12.1472 15.6944 11.0434 15.6944 9.51497C15.6944 8.01932 16.7682 6.90225 18.1655 6.90225Z" fill="#18172F"/>
<path d="M27.5812 5.20618C25.0525 5.20618 23.2402 7.18318 23.2402 9.4888C23.2402 11.8285 24.998 13.8422 27.6108 13.8422C29.9762 13.8422 31.9139 12.0344 31.9139 9.53914C31.914 6.67907 29.6599 5.20618 27.5812 5.20618ZM27.6063 6.90225C28.8499 6.90225 30.0282 7.90763 30.0282 9.52758C30.0282 11.1132 28.8549 12.1472 27.6006 12.1472C26.2225 12.1472 25.1353 11.0434 25.1353 9.51497C25.1353 8.01932 26.209 6.90225 27.6063 6.90225Z" fill="#18172F"/>
<path d="M36.8412 5.21011C34.5201 5.21011 32.6957 7.24296 32.6957 9.52468C32.6957 12.1237 34.8108 13.8472 36.8012 13.8472C38.0318 13.8472 38.6862 13.3588 39.1694 12.798V13.6494C39.1694 15.1391 38.2649 16.0314 36.8996 16.0314C35.5806 16.0314 34.9191 15.0507 34.6892 14.4941L33.0297 15.1879C33.6184 16.4328 34.8035 17.731 36.9134 17.731C39.2211 17.731 40.98 16.2774 40.98 13.2289V5.4698H39.1696V6.20127C38.6128 5.6014 37.8515 5.21021 36.8412 5.21011ZM37.0092 6.90287C38.1471 6.90287 39.3158 7.87459 39.3158 9.53388C39.3158 11.2206 38.1497 12.1501 36.9841 12.1501C35.7466 12.1501 34.5953 11.1454 34.5953 9.5499C34.5953 7.89213 35.7911 6.90287 37.0092 6.90287Z" fill="#18172F"/>
<path d="M49.0295 5.20029C46.84 5.20029 45.0018 6.94225 45.0018 9.51258C45.0018 12.2324 47.0508 13.8454 49.2399 13.8454C51.0669 13.8454 52.1881 12.8459 52.8572 11.9505L51.3645 10.9572C50.9772 11.5583 50.3296 12.1459 49.249 12.1459C48.0349 12.1459 47.4769 11.4811 47.1311 10.8372L52.9209 8.43476L52.6204 7.7307C52.0611 6.35196 50.7562 5.20048 49.0297 5.20048L49.0295 5.20029ZM49.1049 6.861C49.8939 6.861 50.4616 7.28044 50.7028 7.78332L46.8363 9.39947C46.6696 8.14825 47.8549 6.861 49.1049 6.861Z" fill="#18172F"/>
<path d="M42.2416 13.589H44.1434V0.861481H42.2416V13.589Z" fill="#18172F"/>
</svg>
