<svg width="87" height="29" viewBox="0 0 87 29" fill="none" xmlns="http://www.w3.org/2000/svg">
<path d="M21.1672 10.2558H11.1209V13.2369H18.2458C17.8939 17.4172 14.4158 19.2 11.133 19.2C6.93279 19.2 3.26756 15.8954 3.26756 11.2634C3.26756 6.75113 6.76139 3.27616 11.1422 3.27616C14.522 3.27616 16.5135 5.43057 16.5135 5.43057L18.601 3.26905C18.601 3.26905 15.9219 0.286499 11.0356 0.286499C4.81347 0.286499 0 5.53784 0 11.21C0 16.7682 4.52784 22.1878 11.1942 22.1878C17.0573 22.1878 21.3491 18.1714 21.3491 12.232C21.3491 10.9791 21.1672 10.2549 21.1672 10.2549V10.2558Z" fill="#18172F"/>
<path d="M29.3966 8.09689C25.2743 8.09689 22.3201 11.3198 22.3201 15.0784C22.3201 18.8926 25.1856 22.1753 29.445 22.1753C33.301 22.1753 36.46 19.2282 36.46 15.1604C36.46 10.498 32.7853 8.09689 29.3966 8.09689ZM29.4376 10.8618C31.4646 10.8618 33.3857 12.5008 33.3857 15.1416C33.3857 17.7265 31.4728 19.4121 29.4283 19.4121C27.1816 19.4121 25.4093 17.6127 25.4093 15.121C25.4093 12.6828 27.1597 10.8618 29.4376 10.8618Z" fill="#18172F"/>
<path d="M44.787 8.09689C40.6647 8.09689 37.7104 11.3198 37.7104 15.0784C37.7104 18.8926 40.576 22.1753 44.8354 22.1753C48.6913 22.1753 51.8502 19.2282 51.8502 15.1604C51.8504 10.498 48.1757 8.09689 44.787 8.09689ZM44.8279 10.8618C46.8553 10.8618 48.7762 12.5008 48.7762 15.1416C48.7762 17.7265 46.8633 19.4121 44.8187 19.4121C42.5721 19.4121 40.7998 17.6127 40.7998 15.121C40.7998 12.6828 42.55 10.8618 44.8279 10.8618Z" fill="#18172F"/>
<path d="M59.8825 8.10416C56.0987 8.10416 53.1245 11.4181 53.1245 15.1377C53.1245 19.3747 56.5726 22.1843 59.8173 22.1843C61.8235 22.1843 62.8902 21.388 63.6779 20.4739V21.8619C63.6779 24.2903 62.2034 25.7449 59.9777 25.7449C57.8275 25.7449 56.7491 24.1461 56.3743 23.2388L53.669 24.3699C54.6287 26.3993 56.5607 28.5155 60.0003 28.5155C63.7623 28.5155 66.6295 26.146 66.6295 21.1762V8.5275H63.6782V9.71993C62.7706 8.74203 61.5295 8.10431 59.8825 8.10416ZM60.1564 10.8637C62.0114 10.8637 63.9165 12.4478 63.9165 15.1527C63.9165 17.9023 62.0156 19.4176 60.1154 19.4176C58.0981 19.4176 56.2213 17.7798 56.2213 15.1788C56.2213 12.4764 58.1706 10.8637 60.1564 10.8637Z" fill="#18172F"/>
<path d="M79.7519 8.08746C76.1826 8.08746 73.186 10.9272 73.186 15.1173C73.186 19.5512 76.5262 22.1807 80.0949 22.1807C83.0732 22.1807 84.9011 20.5513 85.9918 19.0915L83.5584 17.4723C82.927 18.4523 81.8714 19.4101 80.1097 19.4101C78.1306 19.4101 77.2208 18.3264 76.6571 17.2767L86.0957 13.3603L85.6057 12.2125C84.694 9.9649 82.5668 8.08777 79.7522 8.08777L79.7519 8.08746ZM79.8748 10.7947C81.161 10.7947 82.0865 11.4785 82.4797 12.2983L76.1766 14.9329C75.9047 12.8932 77.8371 10.7947 79.8748 10.7947Z" fill="#18172F"/>
<path d="M68.6863 21.7628H71.7866V1.01447H68.6863V21.7628Z" fill="#18172F"/>
</svg>
