<svg width="112" height="33" viewBox="0 0 112 33" fill="none" xmlns="http://www.w3.org/2000/svg">
<path d="M5.73034 0.968892C3.45175 1.92092 0.9462 4.6077 0.15537 7.98711C-0.847981 12.2652 3.32344 14.0719 3.66427 13.4824C4.06531 12.7833 2.9144 12.5486 2.67939 10.3304C2.377 7.46187 3.7092 4.25701 5.3903 2.85073C5.70388 2.59367 5.68866 2.95644 5.68866 3.62516C5.68866 4.83119 5.62128 15.6214 5.62128 17.8741C5.62128 20.9236 5.49617 21.8838 5.26518 22.8319C5.03816 23.7961 4.67087 24.4464 4.94757 24.6995C5.26115 24.9789 6.59336 24.3134 7.36572 23.2371C8.28967 21.9478 8.61528 20.3982 8.67543 18.7165C8.74358 16.6912 8.73961 13.4712 8.74358 11.6381C8.74358 9.95238 8.77005 5.02417 8.71712 2.05714C8.7019 1.33166 6.68076 0.571647 5.73034 0.968892ZM110.784 16.978C110.458 16.978 110.303 17.3183 110.178 17.8894C109.747 19.881 109.293 20.3302 108.706 20.3302C108.051 20.3302 107.464 19.3445 107.309 17.3712C107.192 15.8216 107.211 12.9643 107.362 10.1222C107.393 9.54005 107.233 8.96263 105.666 8.39168C104.989 8.14982 104.008 7.78705 103.521 8.96587C102.139 12.2885 101.601 14.9336 101.472 16.0034C101.469 16.0595 101.401 16.0675 101.389 15.9393C101.31 15.0809 101.128 13.5201 101.106 10.2392C101.098 9.60492 100.965 9.05632 100.254 8.61031C99.7958 8.32357 98.4027 7.80945 97.899 8.41811C97.4675 8.91698 96.9646 10.2551 96.4385 11.8424C96.0142 13.1349 95.7191 14.0118 95.7191 14.0118C95.7191 14.0118 95.7221 10.5266 95.7304 9.20371C95.7304 8.70478 95.3895 8.53901 95.2876 8.50856C94.8216 8.37246 93.9017 8.14982 93.5159 8.14982C93.0355 8.14982 92.9216 8.41811 92.9216 8.80731C92.9216 8.85614 92.8422 13.3912 92.8422 16.5624V17.0084C92.5807 18.4676 91.7186 20.448 90.7834 20.448C89.8482 20.448 89.4054 19.6199 89.4054 15.8408C89.4054 13.637 89.4737 12.6777 89.5041 11.0824C89.5226 10.1639 89.5602 9.45753 89.557 9.295C89.549 8.80731 88.6973 8.55745 88.3035 8.46694C87.9064 8.37246 87.5616 8.34201 87.2897 8.35324C86.9112 8.37643 86.6424 8.6255 86.6424 8.97386V9.5024C86.154 8.73199 85.3624 8.19468 84.8331 8.04008C83.4175 7.6205 81.9369 7.99444 80.8204 9.55123C79.935 10.7917 79.4008 12.1931 79.1931 14.208C79.0375 15.6823 79.0872 17.175 79.3632 18.4371C79.0303 19.8618 78.4167 20.448 77.747 20.448C76.7701 20.448 76.0668 18.8599 76.1462 16.1123C76.2032 14.3065 76.5624 13.0404 76.9595 11.2033C77.1303 10.4209 76.99 10.0133 76.6458 9.61609C76.3315 9.26053 75.6577 9.07554 74.6929 9.29819C74.0072 9.46077 73.0198 9.63453 72.1223 9.76745C72.1223 9.76745 72.1753 9.55123 72.221 9.17008C72.452 7.1704 70.2753 7.33298 69.5823 7.97203C69.166 8.35324 68.8821 8.80328 68.7763 9.61213C68.6062 10.8974 69.6545 11.502 69.6545 11.502C69.3104 13.0741 68.4698 15.1297 67.5956 16.6153C67.1296 17.4129 66.7735 17.9991 66.3124 18.6261C66.3082 18.3955 66.3082 18.1608 66.3082 17.931C66.3002 14.6236 66.3419 12.0202 66.3611 11.0824C66.3804 10.1639 66.4181 9.47597 66.4181 9.31338C66.4101 8.95782 66.2023 8.81848 65.7628 8.65193C65.377 8.50135 64.9191 8.39168 64.4458 8.35324C63.8515 8.30838 63.4882 8.6255 63.4995 8.9995V9.5024C63.0078 8.73199 62.2162 8.19468 61.694 8.04008C60.2744 7.6205 58.7947 7.99444 57.6782 9.55123C56.796 10.7917 56.2129 12.5263 56.0461 14.1888C55.8953 15.7464 55.9218 17.0613 56.1335 18.1728C55.9065 19.2836 55.2593 20.448 54.5254 20.448C53.5902 20.448 53.0561 19.6199 53.0561 15.8408C53.0561 13.637 53.1243 12.6777 53.1588 11.0824C53.1772 10.1639 53.2117 9.45753 53.2077 9.295C53.2036 8.80731 52.3527 8.55745 51.9549 8.46694C51.5426 8.36922 51.1826 8.33883 50.9098 8.35324C50.5465 8.38363 50.2931 8.70478 50.2931 8.95061V9.5024C49.8014 8.73199 49.0098 8.19468 48.4837 8.04008C47.0681 7.6205 45.5995 8.00249 44.4751 9.55123C43.7412 10.5611 43.1469 11.683 42.8405 14.1704C42.7571 14.8887 42.7154 15.5606 42.7194 16.1884C42.4275 17.9718 41.137 20.0283 40.0847 20.0283C39.4639 20.0283 38.8736 18.8335 38.8736 16.2829C38.8736 12.8891 39.0854 8.05132 39.1231 7.58284C39.1231 7.58284 40.4552 7.55959 40.7167 7.55641C41.3792 7.55239 41.9847 7.56764 42.867 7.522C43.3137 7.49959 43.7412 5.90833 43.2792 5.70815C43.0747 5.62082 41.6062 5.54154 41.0231 5.53036C40.5315 5.51913 39.172 5.41745 39.172 5.41745C39.172 5.41745 39.2939 2.20856 39.3204 1.87221C39.3428 1.5847 38.9795 1.44139 38.7678 1.35407C38.2561 1.13544 37.7981 1.03298 37.2608 0.923246C36.5076 0.768708 36.1708 0.920063 36.1066 1.55029C36.008 2.50724 35.955 5.31174 35.955 5.31174C35.4024 5.31174 33.5289 5.20123 32.9794 5.20123C32.4693 5.20123 31.9159 7.39383 32.6242 7.42025C33.4382 7.4507 34.8498 7.48115 35.7882 7.50674C35.7882 7.50674 35.7465 12.4246 35.7465 13.9397V14.4082C35.2284 17.0949 33.4149 18.5468 33.4149 18.5468C33.8047 16.7666 33.0099 15.4324 31.5719 14.3065C31.0417 13.8869 29.9975 13.0965 28.8273 12.2388C28.8273 12.2388 29.505 11.5701 30.1065 10.232C30.5308 9.28299 30.5501 8.19144 29.505 7.95282C27.779 7.55641 26.3594 8.8225 25.9319 10.1751C25.6063 11.2185 25.7771 11.9969 26.4236 12.8017L26.5712 12.9835C26.1854 13.7315 25.648 14.7405 25.1973 15.5229C23.9372 17.6964 22.9868 19.4125 22.2714 19.4125C21.6964 19.4125 21.7036 17.6699 21.7036 16.0371C21.7036 14.6308 21.8095 12.511 21.8929 10.3192C21.9194 9.59687 21.556 9.18125 20.9473 8.80731C20.5759 8.58064 19.7883 8.13462 19.3304 8.13462C18.6494 8.13462 16.6732 8.22507 14.8077 13.6106C14.5726 14.2913 14.1107 15.527 14.1107 15.527L14.1524 9.04911C14.1524 8.89776 14.073 8.75445 13.8877 8.65193C13.5733 8.48214 12.7296 8.13462 11.9877 8.13462C11.6276 8.13462 11.4495 8.30117 11.4495 8.62953L11.3893 18.7583C11.3893 19.5294 11.4078 20.4287 11.484 20.822C11.5594 21.2151 11.6845 21.5363 11.8361 21.7285C11.9877 21.9142 12.165 22.0576 12.4529 22.1217C12.7216 22.1785 14.2013 22.3635 14.2775 21.8005C14.3722 21.1238 14.3753 20.3951 15.1517 17.6627C16.3628 13.4144 17.938 11.3435 18.6799 10.6059C18.8122 10.4778 18.9598 10.4698 18.9518 10.682C18.9181 11.6149 18.8082 13.9397 18.7328 15.9162C18.5323 21.2112 19.4932 22.1897 20.8751 22.1897C21.9274 22.1897 23.4111 21.143 25.0048 18.498C26.0001 16.8459 26.9617 15.2322 27.6579 14.0646C28.1351 14.5099 28.6797 14.9904 29.2211 15.5045C30.4819 16.6946 30.8942 17.8285 30.6183 18.9024C30.4097 19.7256 29.6189 20.5721 28.2145 19.7488C27.8055 19.5102 27.6315 19.3252 27.2192 19.0529C26.9995 18.9056 26.6586 18.864 26.4581 19.0153C25.9279 19.4125 25.6287 19.9146 25.4547 20.5385C25.2919 21.1471 25.9015 21.4642 26.5334 21.7437C27.0748 21.9896 28.241 22.2049 28.9861 22.2314C31.8895 22.3299 34.2138 20.8331 35.8299 16.978C36.1218 20.3078 37.3513 22.1938 39.4904 22.1938C40.9244 22.1938 42.3593 20.3454 42.9881 18.5276C43.1654 19.2684 43.434 19.9106 43.7789 20.4592C45.4295 23.0666 48.6312 22.5076 50.2361 20.2926C50.7358 19.6047 50.812 19.3589 50.812 19.3589C51.0462 21.4498 52.7345 22.1857 53.7001 22.1857C54.7861 22.1857 55.8993 21.6724 56.6821 19.9106C56.7768 20.1036 56.8754 20.2854 56.9893 20.4592C58.6359 23.0666 61.8376 22.5076 63.4465 20.2926C63.5187 20.1829 63.5869 20.0924 63.643 20.0051L63.6927 21.3809C63.6927 21.3809 62.7728 22.2202 62.209 22.7375C59.7299 25.0094 57.8443 26.7328 57.7048 28.7356C57.5307 31.2942 59.6047 32.2432 61.1792 32.3673C62.845 32.5003 64.2759 31.5817 65.1532 30.2892C65.9256 29.1552 66.4333 26.7176 66.3956 24.3063C66.3804 23.3389 66.3571 22.1145 66.3346 20.7955C67.2089 19.7905 68.193 18.5124 69.0945 17.0165C70.0818 15.3908 71.1341 13.2022 71.6714 11.4981C71.6714 11.4981 72.5914 11.506 73.5683 11.4452C73.8826 11.426 73.9733 11.4908 73.9124 11.7175C73.8441 11.993 72.6788 16.4871 73.7423 19.4806C74.473 21.5283 76.1115 22.1897 77.0884 22.1897C78.2273 22.1897 79.3181 21.328 79.9003 20.0508C79.9725 20.1909 80.0447 20.3302 80.1281 20.4592C81.7747 23.0666 84.9652 22.5037 86.5854 20.2926C86.9527 19.7905 87.1572 19.3589 87.1572 19.3589C87.5053 21.525 89.1936 22.1938 90.1584 22.1938C91.169 22.1938 92.1226 21.7821 92.899 19.9523C92.9295 20.7579 92.9784 21.4154 93.0618 21.6228C93.1107 21.7517 93.3986 21.9103 93.6032 21.9895C94.5263 22.3299 95.4655 22.1673 95.8096 22.0953C96.0518 22.0464 96.2411 21.8574 96.2643 21.3585C96.3317 20.0508 96.29 17.8549 96.6878 16.2189C97.3575 13.4825 97.9783 12.4206 98.2734 11.8952C98.437 11.5997 98.6256 11.5509 98.6295 11.8608C98.6408 12.4918 98.6753 14.3441 98.936 16.8387C99.122 18.6677 99.3754 19.752 99.572 20.0964C100.125 21.075 100.814 21.1206 101.37 21.1206C101.726 21.1206 102.468 21.0221 102.403 20.3983C102.369 20.0964 102.426 18.2177 103.081 15.5198C103.512 13.7547 104.228 12.1635 104.485 11.5813C104.584 11.3659 104.626 11.5325 104.626 11.5661C104.569 12.7793 104.448 16.7514 104.939 18.9208C105.614 21.8654 107.555 22.1938 108.232 22.1938C109.674 22.1938 110.86 21.0974 111.257 18.2105C111.355 17.5146 111.211 16.978 110.784 16.978H110.784ZM50.2626 15.1945C50.1832 16.7209 49.884 17.999 49.4076 18.9247C48.5365 20.6065 46.8226 21.1358 46.0687 18.7133C45.5201 16.9636 45.7054 14.5747 45.9364 13.2854C46.2692 11.3731 47.1137 10.0205 48.4307 10.1446C49.7781 10.2775 50.4366 12.0121 50.2626 15.1945ZM63.4691 15.217C63.3937 16.6568 63.0191 18.1079 62.6101 18.9247C61.7663 20.6177 60.0019 21.147 59.2712 18.7133C58.7723 17.046 58.8894 14.8958 59.1389 13.5425C59.4613 11.7815 60.2368 10.1446 61.634 10.1446C62.9927 10.1446 63.6624 11.6341 63.4691 15.217ZM63.8139 25.0582C63.7947 27.6929 63.3825 29.9984 62.4962 30.6711C61.2322 31.6233 59.5327 30.905 59.8848 28.9854C60.1951 27.2845 61.6677 25.5499 63.818 23.4293C63.818 23.4293 63.8252 23.913 63.8138 25.0582H63.8139ZM86.6159 15.2322C86.5397 16.8162 86.1876 18.0519 85.7529 18.9247C84.9084 20.6177 83.1599 21.143 82.414 18.7133C82.009 17.3864 81.9897 15.1713 82.2817 13.3239C82.5768 11.4411 83.4062 10.0205 84.776 10.1446C86.1307 10.2735 86.7635 12.0121 86.6159 15.2322Z" fill="#18172F"/>
</svg>
