<svg width="69" height="21" viewBox="0 0 69 21" fill="none" xmlns="http://www.w3.org/2000/svg">
<path d="M4.24915 0.896133C2.8514 1.48013 1.31443 3.12827 0.829317 5.20129C0.213836 7.82559 2.77269 8.93383 2.98177 8.57225C3.22777 8.14339 2.52178 7.99945 2.37761 6.63872C2.19212 4.87909 3.00933 2.91315 4.04056 2.0505C4.23291 1.89281 4.22358 2.11534 4.22358 2.52556C4.22358 3.26537 4.18225 9.88434 4.18225 11.2662C4.18225 13.1369 4.1055 13.7259 3.9638 14.3075C3.82455 14.8989 3.59924 15.2978 3.76898 15.4531C3.96133 15.6245 4.77854 15.2163 5.25233 14.556C5.8191 13.7651 6.01884 12.8146 6.05574 11.783C6.09755 10.5406 6.09511 8.56536 6.09755 7.44091C6.09755 6.40683 6.11378 3.38374 6.08131 1.56369C6.07197 1.11866 4.83216 0.652452 4.24915 0.896133ZM68.6916 10.7166C68.4919 10.7166 68.3969 10.9253 68.3202 11.2756C68.0555 12.4973 67.777 12.7729 67.4169 12.7729C67.0154 12.7729 66.6553 12.1682 66.5603 10.9577C66.4885 10.0072 66.4998 8.25444 66.5928 6.51102C66.6115 6.1539 66.5136 5.79969 65.5522 5.44946C65.137 5.3011 64.5353 5.07856 64.2361 5.80168C63.3885 7.83984 63.0588 9.46242 62.9796 10.1187C62.9778 10.1531 62.9358 10.158 62.9284 10.0794C62.8802 9.55279 62.7685 8.59535 62.7547 6.58276C62.7498 6.19369 62.6687 5.85717 62.2323 5.58357C61.9513 5.40768 61.0967 5.09231 60.7878 5.46567C60.5231 5.77169 60.2146 6.59256 59.8919 7.56621C59.6316 8.35907 59.4506 8.89698 59.4506 8.89698C59.4506 8.89698 59.4524 6.75909 59.4575 5.94758C59.4575 5.64153 59.2483 5.53984 59.1859 5.52116C58.9 5.43767 58.3357 5.3011 58.0991 5.3011C57.8044 5.3011 57.7345 5.46567 57.7345 5.70442C57.7345 5.73437 57.6858 8.51628 57.6858 10.4616V10.7352C57.5254 11.6303 56.9965 12.8451 56.4229 12.8451C55.8492 12.8451 55.5776 12.3371 55.5776 10.019C55.5776 8.66708 55.6194 8.07859 55.6381 7.10003C55.6494 6.53656 55.6725 6.10328 55.6706 6.00358C55.6657 5.70442 55.1432 5.55115 54.9016 5.49563C54.6581 5.43767 54.4465 5.41899 54.2797 5.42588C54.0475 5.4401 53.8827 5.59289 53.8827 5.80658V6.1308C53.5831 5.65822 53.0975 5.32862 52.7728 5.23378C51.9044 4.9764 50.9962 5.20578 50.3113 6.16076C49.7682 6.92171 49.4405 7.78137 49.3131 9.01735C49.2176 9.9217 49.2481 10.8374 49.4174 11.6116C49.2132 12.4855 48.8368 12.8451 48.426 12.8451C47.8268 12.8451 47.3953 11.871 47.444 10.1855C47.479 9.07777 47.6994 8.30112 47.9429 7.1742C48.0477 6.69424 47.9616 6.44423 47.7505 6.20055C47.5577 5.98244 47.1444 5.86896 46.5525 6.00554C46.1319 6.10527 45.5262 6.21186 44.9757 6.29339C44.9757 6.29339 45.0082 6.16076 45.0362 5.92695C45.1779 4.70029 43.8427 4.80003 43.4176 5.19204C43.1622 5.42588 42.9881 5.70195 42.9231 6.19811C42.8188 6.98656 43.4619 7.35742 43.4619 7.35742C43.2508 8.32175 42.7352 9.58274 42.1989 10.494C41.913 10.9833 41.6946 11.3429 41.4117 11.7275C41.4091 11.5861 41.4091 11.4421 41.4091 11.3011C41.4042 9.2723 41.4298 7.67527 41.4416 7.10003C41.4534 6.53656 41.4766 6.11459 41.4766 6.01486C41.4717 5.79675 41.3442 5.71127 41.0746 5.6091C40.8379 5.51674 40.557 5.44946 40.2667 5.42588C39.9022 5.39836 39.6793 5.59289 39.6862 5.82231V6.1308C39.3846 5.65822 38.899 5.32862 38.5787 5.23378C37.7079 4.9764 36.8002 5.20578 36.1153 6.16076C35.5741 6.92171 35.2164 7.98574 35.1141 9.00556C35.0216 9.96101 35.0378 10.7676 35.1677 11.4495C35.0285 12.1308 34.6315 12.8451 34.1813 12.8451C33.6076 12.8451 33.28 12.3371 33.28 10.019C33.28 8.66708 33.3218 8.07859 33.3429 7.10003C33.3543 6.53656 33.3754 6.10328 33.3729 6.00358C33.3705 5.70442 32.8485 5.55115 32.6045 5.49563C32.3516 5.43568 32.1307 5.41704 31.9634 5.42588C31.7405 5.44453 31.5851 5.64153 31.5851 5.79232V6.1308C31.2835 5.65822 30.7979 5.32862 30.4751 5.23378C29.6068 4.9764 28.7059 5.21072 28.0162 6.16076C27.566 6.78024 27.2014 7.46847 27.0135 8.99425C26.9623 9.43489 26.9367 9.84706 26.9392 10.2322C26.7601 11.3262 25.9685 12.5877 25.323 12.5877C24.9422 12.5877 24.5801 11.8547 24.5801 10.2901C24.5801 8.20828 24.71 5.24067 24.7331 4.9533C24.7331 4.9533 25.5503 4.93904 25.7107 4.93709C26.1171 4.93462 26.4885 4.94397 27.0297 4.91597C27.3037 4.90223 27.566 3.92611 27.2826 3.80331C27.1571 3.74974 26.2563 3.70111 25.8986 3.69426C25.597 3.68737 24.7631 3.62499 24.7631 3.62499C24.7631 3.62499 24.8379 1.65657 24.8541 1.45025C24.8679 1.27388 24.645 1.18598 24.5152 1.13241C24.2012 0.998298 23.9203 0.935444 23.5907 0.868132C23.1287 0.773334 22.9221 0.866179 22.8827 1.25277C22.8222 1.8398 22.7897 3.56015 22.7897 3.56015C22.4507 3.56015 21.3015 3.49236 20.9644 3.49236C20.6515 3.49236 20.3121 4.83735 20.7465 4.85356C21.2459 4.87224 22.1118 4.89092 22.6874 4.90662C22.6874 4.90662 22.6618 7.92333 22.6618 8.85277V9.14015C22.344 10.7883 21.2316 11.6789 21.2316 11.6789C21.4707 10.5869 20.9831 9.76843 20.101 9.07777C19.7758 8.82035 19.1352 8.33549 18.4174 7.80937C18.4174 7.80937 18.8331 7.3992 19.2021 6.57834C19.4624 5.99621 19.4742 5.32663 18.8331 5.18025C17.7744 4.93709 16.9036 5.71374 16.6413 6.54345C16.4416 7.18352 16.5464 7.66101 16.9429 8.15471L17.0334 8.26623C16.7968 8.72504 16.4671 9.344 16.1907 9.82396C15.4177 11.1572 14.8347 12.2099 14.3959 12.2099C14.0431 12.2099 14.0475 11.141 14.0475 10.1393C14.0475 9.27673 14.1125 7.97638 14.1637 6.63187C14.1799 6.18876 13.957 5.9338 13.5836 5.70442C13.3558 5.56537 12.8727 5.29177 12.5918 5.29177C12.1741 5.29177 10.9618 5.34726 9.8174 8.65087C9.67324 9.06841 9.38985 9.82642 9.38985 9.82642L9.41546 5.85275C9.41546 5.7599 9.36675 5.672 9.2531 5.6091C9.06023 5.50495 8.54264 5.29177 8.08756 5.29177C7.86665 5.29177 7.75743 5.39394 7.75743 5.59536L7.72053 11.8086C7.72053 12.2816 7.73185 12.8333 7.77861 13.0745C7.82484 13.3157 7.90159 13.5127 7.99458 13.6306C8.08756 13.7445 8.19631 13.8325 8.37291 13.8718C8.53774 13.9067 9.44546 14.0201 9.49221 13.6748C9.55025 13.2597 9.55221 12.8127 10.0285 11.1366C10.7714 8.53051 11.7376 7.26015 12.1927 6.80772C12.2739 6.72914 12.3645 6.72423 12.3595 6.8544C12.3388 7.42669 12.2715 8.85277 12.2252 10.0652C12.1022 13.3133 12.6916 13.9135 13.5393 13.9135C14.1848 13.9135 15.095 13.2715 16.0726 11.6489C16.6832 10.6355 17.273 9.64564 17.7001 8.92941C17.9928 9.20252 18.3269 9.49727 18.659 9.81265C19.4324 10.5427 19.6853 11.2383 19.516 11.897C19.3881 12.402 18.903 12.9212 18.0415 12.4162C17.7906 12.2699 17.6839 12.1564 17.431 11.9893C17.2962 11.899 17.0871 11.8734 16.9641 11.9663C16.6389 12.2099 16.4553 12.5179 16.3486 12.9006C16.2487 13.2739 16.6226 13.4685 17.0103 13.6399C17.3424 13.7907 18.0578 13.9229 18.5148 13.9391C20.2958 13.9995 21.7216 13.0814 22.713 10.7166C22.8921 12.7591 23.6463 13.916 24.9584 13.916C25.8381 13.916 26.7183 12.7822 27.104 11.6671C27.2128 12.1215 27.3775 12.5155 27.5891 12.852C28.6016 14.4515 30.5656 14.1086 31.5501 12.7498C31.8566 12.3278 31.9034 12.177 31.9034 12.177C32.047 13.4596 33.0827 13.9111 33.675 13.9111C34.3412 13.9111 35.0241 13.5962 35.5043 12.5155C35.5623 12.6339 35.6228 12.7454 35.6927 12.852C36.7027 14.4515 38.6668 14.1086 39.6537 12.7498C39.698 12.6825 39.7398 12.627 39.7742 12.5734L39.8048 13.4174C39.8048 13.4174 39.2405 13.9322 38.8946 14.2495C37.3738 15.6432 36.2172 16.7004 36.1316 17.929C36.0248 19.4985 37.2971 20.0806 38.2629 20.1567C39.2847 20.2383 40.1625 19.6748 40.7007 18.8819C41.1745 18.1863 41.4859 16.691 41.4628 15.2119C41.4535 14.6185 41.4392 13.8674 41.4254 13.0583C41.9617 12.4418 42.5653 11.6577 43.1183 10.7401C43.724 9.7429 44.3695 8.40034 44.6991 7.35499C44.6991 7.35499 45.2634 7.35989 45.8627 7.32257C46.0555 7.31078 46.1111 7.35057 46.0737 7.48958C46.0319 7.65858 45.317 10.4154 45.9694 12.2517C46.4176 13.5078 47.4228 13.9135 48.022 13.9135C48.7206 13.9135 49.3897 13.385 49.7469 12.6014C49.7912 12.6874 49.8355 12.7729 49.8867 12.852C50.8967 14.4515 52.8538 14.1061 53.8477 12.7498C54.073 12.4418 54.1985 12.177 54.1985 12.177C54.412 13.5058 55.4476 13.916 56.0395 13.916C56.6594 13.916 57.2444 13.6635 57.7206 12.541C57.7393 13.0352 57.7693 13.4385 57.8205 13.5657C57.8505 13.6448 58.0271 13.7421 58.1526 13.7907C58.7189 13.9995 59.295 13.8998 59.5061 13.8556C59.6546 13.8256 59.7708 13.7097 59.785 13.4036C59.8263 12.6014 59.8008 11.2545 60.0448 10.2509C60.4556 8.57229 60.8364 7.9209 61.0174 7.59863C61.1178 7.41736 61.2335 7.38741 61.2359 7.57752C61.2428 7.96459 61.2639 9.10084 61.4239 10.6311C61.538 11.7531 61.6934 12.4182 61.814 12.6294C62.153 13.2297 62.5756 13.2577 62.917 13.2577C63.1355 13.2577 63.5906 13.1973 63.5507 12.8146C63.5301 12.6294 63.565 11.477 63.9664 9.822C64.2312 8.7393 64.67 7.76321 64.8279 7.40605C64.8885 7.27393 64.914 7.3761 64.914 7.39673C64.8791 8.14096 64.8048 10.5775 65.1064 11.9083C65.5202 13.7146 66.7108 13.916 67.1265 13.916C68.0111 13.916 68.7383 13.2435 68.9818 11.4726C69.0423 11.0457 68.9538 10.7166 68.6916 10.7166H68.6916ZM31.5664 9.6225C31.5176 10.5588 31.3341 11.3429 31.0419 11.9107C30.5076 12.9423 29.4562 13.267 28.9937 11.781C28.6572 10.7077 28.7709 9.24228 28.9126 8.4514C29.1167 7.27832 29.6348 6.44861 30.4426 6.52473C31.2692 6.6063 31.6731 7.67033 31.5664 9.6225ZM39.6676 9.63628C39.6213 10.5195 39.3916 11.4096 39.1406 11.9107C38.6231 12.9492 37.5407 13.2739 37.0925 11.781C36.7865 10.7583 36.8583 9.43928 37.0113 8.60909C37.2091 7.52885 37.6848 6.52473 38.5419 6.52473C39.3753 6.52473 39.7861 7.43844 39.6676 9.63628ZM39.8791 15.6731C39.8673 17.2893 39.6144 18.7036 39.0708 19.1162C38.2954 19.7003 37.2529 19.2597 37.4688 18.0822C37.6592 17.0388 38.5625 15.9748 39.8816 14.6739C39.8816 14.6739 39.886 14.9706 39.879 15.6731H39.8791ZM53.8664 9.6456C53.8197 10.6173 53.6037 11.3753 53.337 11.9107C52.819 12.9492 51.7464 13.2714 51.2889 11.781C51.0404 10.9671 51.0286 9.60828 51.2077 8.47498C51.3888 7.32006 51.8975 6.44861 52.7378 6.52473C53.5688 6.60383 53.9569 7.67033 53.8664 9.6456Z" fill="#18172F"/>
</svg>
