<svg width="120" height="19" viewBox="0 0 120 19" fill="none" xmlns="http://www.w3.org/2000/svg">
<path d="M11.3549 2.22499L10.7911 2.39734C10.7285 2.16231 10.6345 1.94295 10.5249 1.72358C10.1176 0.955805 9.53815 0.548413 8.83336 0.548413C8.78637 0.548413 8.73939 0.548409 8.6924 0.564078C8.67674 0.53274 8.64541 0.517071 8.62975 0.485733C8.31651 0.156686 7.92496 0 7.4551 0C6.53105 0.0313379 5.62265 0.689432 4.88654 1.8646C4.36969 2.69506 3.96248 3.72921 3.85285 4.54399L2.05172 5.10807C1.51921 5.28043 1.50355 5.2961 1.4409 5.7975C1.39392 6.17356 0 16.9381 0 16.9381L11.5429 18.9281V2.20932C11.4489 2.20932 11.4019 2.20932 11.3549 2.22499ZM8.6924 3.05544L6.75031 3.66653C6.93826 2.94576 7.29848 2.22499 7.73702 1.75492C7.89364 1.58256 8.12857 1.37886 8.39482 1.26918C8.64541 1.80192 8.6924 2.53837 8.6924 3.05544ZM7.43944 0.626757C7.62739 0.611088 7.83099 0.673763 7.98761 0.767777C7.72136 0.908797 7.48643 1.09682 7.28282 1.31619C6.70333 1.94295 6.24913 2.91442 6.07685 3.85455L4.46367 4.35596C4.79257 2.88308 6.0142 0.673764 7.43944 0.626757ZM5.65398 9.0253C5.71662 10.0124 8.30085 10.2161 8.44181 12.5195C8.55144 14.3371 7.48643 15.5749 5.93589 15.6689C4.07212 15.7943 3.05409 14.6975 3.05409 14.6975L3.44564 13.0209C3.44564 13.0209 4.47933 13.8043 5.29375 13.7417C5.82626 13.7103 6.02986 13.2716 5.99854 12.9582C5.92023 11.6734 3.82152 11.7517 3.68057 9.65206C3.57093 7.88147 4.72992 6.07954 7.29848 5.92285C8.28519 5.86018 8.78637 6.11088 8.78637 6.11088L8.20688 8.30453C8.20688 8.30453 7.54908 8.00682 6.78164 8.05383C5.65398 8.13218 5.63831 8.85294 5.65398 9.0253ZM9.30322 2.86741C9.30322 2.39734 9.24057 1.75492 9.0213 1.19083C9.71043 1.31619 10.055 2.11531 10.2116 2.58537C10.1959 2.58537 9.30322 2.86741 9.30322 2.86741ZM11.8718 18.8967L16.6643 17.7059C16.6643 17.7059 14.597 3.76054 14.597 3.66653C14.5813 3.58818 14.5187 3.52551 14.4247 3.50984C14.362 3.50984 13.0151 3.4785 13.0151 3.4785C13.0151 3.4785 12.2007 2.67938 11.8874 2.38168V18.8967H11.8718Z" fill="#18172F"/>
<path d="M60.2183 1.58755C60.1741 1.59962 60.0132 1.63582 59.8563 1.67203C59.5344 1.74445 59.0074 1.97779 58.7258 2.1709C57.9413 2.70999 57.3579 3.756 57.1165 5.03937L57.0441 5.42559H56.5131C56.1912 5.42559 55.9699 5.44169 55.9538 5.46582C55.9257 5.51008 55.6119 7.08714 55.6119 7.17967C55.6119 7.22392 55.7165 7.23599 56.159 7.23599H56.7062L56.686 7.3245C56.67 7.3768 56.6177 7.66244 56.5613 7.96015C56.505 8.25786 56.3964 8.83719 56.3199 9.24755C56.2435 9.6579 56.0584 10.6235 55.9136 11.3999C55.7688 12.1723 55.6038 13.0413 55.5475 13.323C55.4912 13.6086 55.455 13.8661 55.467 13.8983C55.4952 13.9747 57.7522 13.9827 57.8125 13.9023C57.8367 13.8781 57.901 13.5925 57.9614 13.2707C58.1142 12.4178 58.1786 12.0758 58.8102 8.74466C58.8907 8.32223 58.9873 7.81532 59.0235 7.61819L59.0919 7.25611L59.9166 7.24404L60.7413 7.23599L60.8942 6.37907C60.9787 5.91239 61.0471 5.50203 61.0431 5.47387C61.0431 5.43766 60.85 5.42559 60.2224 5.42559H59.4016L59.4982 5.01926C59.6149 4.52442 59.7074 4.31119 59.9206 4.02957C60.1017 3.78416 60.4034 3.59508 60.7011 3.53473C60.8942 3.4945 61.1718 3.51462 61.55 3.59508L61.6747 3.62324L61.904 2.70597C62.0368 2.1709 62.1172 1.77663 62.0971 1.75652C62.0006 1.65996 61.5942 1.59559 60.9626 1.58352C60.5965 1.57548 60.2626 1.57548 60.2183 1.58755Z" fill="#18172F"/>
<path d="M27.7196 1.81303C27.6954 1.90556 27.3615 3.64757 27.1885 4.58093C27.1362 4.85852 27.0035 5.57061 26.8868 6.17006C26.7741 6.76548 26.6374 7.48159 26.5851 7.75919C26.5328 8.03678 26.2874 9.32015 26.0419 10.6156C25.4868 13.5364 25.4385 13.7898 25.4385 13.8824C25.4385 13.9507 25.5069 13.9548 26.6052 13.9548H27.7719L27.8081 13.8663C27.8282 13.814 27.9167 13.3754 28.0092 12.8886C28.5081 10.2254 28.6932 9.33222 28.83 8.95003C29.2122 7.89195 29.8478 7.23216 30.4835 7.23216C30.7973 7.23216 30.9984 7.34481 31.1151 7.58619C31.2036 7.75919 31.2116 7.82758 31.2036 8.26207C31.1996 8.58392 31.1634 8.92589 31.095 9.28797C30.4191 12.8645 30.234 13.8984 30.2582 13.9226C30.2783 13.9427 30.8134 13.9507 31.453 13.9467L32.6157 13.9347L32.664 13.6732C32.6921 13.5283 32.9215 12.3053 33.1789 10.9576C33.6698 8.35058 33.7502 7.79539 33.71 7.21204C33.6376 6.16603 33.1307 5.51027 32.2456 5.32118C31.3404 5.1321 30.3507 5.45394 29.5541 6.20627C29.3731 6.37926 29.2202 6.508 29.2202 6.49191C29.2202 6.45972 29.3409 5.82005 29.703 3.93723C29.9685 2.56133 30.1053 1.83717 30.1053 1.7728C30.1053 1.73659 29.8438 1.72452 28.9225 1.72452H27.7397L27.7196 1.81303Z" fill="#18172F"/>
<path d="M53.9422 1.90119C53.3468 2.09027 53.0008 2.52477 52.9646 3.1403C52.9324 3.67538 53.1376 4.0978 53.5359 4.31103C53.6727 4.38747 53.7652 4.39954 54.1072 4.39954C54.4934 4.39954 54.5296 4.39149 54.7911 4.25873C55.7888 3.74779 55.7365 2.21096 54.7106 1.90521C54.4692 1.83279 54.1595 1.83279 53.9422 1.90119Z" fill="#18172F"/>
<path d="M94.0728 3.85641C93.8636 3.9409 93.6745 4.03745 93.6584 4.06562C93.6383 4.09378 93.5659 4.43574 93.4975 4.82196L93.3687 5.526L92.7572 5.53807C92.2181 5.54612 92.1457 5.55819 92.1256 5.61854C92.1095 5.67888 92.021 6.14154 92.021 6.17775C92.021 6.18579 92.2946 6.18982 92.6245 6.18982H93.2279L93.2078 6.27832C93.1837 6.37488 92.9262 7.73469 92.6647 9.1468C92.5802 9.60946 92.4233 10.4261 92.3187 10.9572C92.1457 11.8423 92.1296 11.975 92.1256 12.5463C92.1216 13.1498 92.1256 13.178 92.2342 13.3992C92.363 13.6567 92.5561 13.8498 92.8216 13.9665C93.0549 14.0711 93.7389 14.1033 94.0728 14.0268L94.2941 13.9705L94.282 13.7331C94.2619 13.3791 94.2498 13.3469 94.1211 13.3791C94.0607 13.3952 93.8676 13.4073 93.6906 13.4113C93.3325 13.4113 93.1636 13.3429 93.0107 13.1377C92.9342 13.0331 92.9262 12.9728 92.9262 12.4337C92.9302 11.8624 92.9423 11.7779 93.3003 9.85084C93.5055 8.75656 93.7389 7.51342 93.8153 7.09502C93.8917 6.67259 93.9642 6.29844 93.9762 6.25821C93.9963 6.19384 94.0808 6.18982 94.978 6.18982H95.9556L96.02 5.90418C96.0562 5.74727 96.0843 5.60244 96.0843 5.58233C96.0843 5.56221 95.6498 5.54612 95.1188 5.54612C94.2136 5.54612 94.1532 5.5421 94.1532 5.4737C94.1532 5.43347 94.2257 5.03921 94.3142 4.59667C94.4027 4.15815 94.4711 3.77595 94.467 3.74779C94.459 3.71963 94.3182 3.75986 94.0728 3.85641Z" fill="#18172F"/>
<path d="M38.5538 5.30468C37.2423 5.48975 36.1601 6.16563 35.3796 7.2921C34.3859 8.72835 34.06 10.7962 34.6031 12.2003C35.1945 13.721 36.8883 14.4371 38.763 13.9584C40.7303 13.4515 42.1344 11.5405 42.3355 9.09445C42.4884 7.21164 41.6114 5.77539 40.0625 5.38515C39.6883 5.28859 38.9441 5.25238 38.5538 5.30468ZM39.1613 7.17141C39.5435 7.30819 39.805 7.69039 39.8814 8.23351C39.974 8.91341 39.7366 10.2089 39.3786 10.9692C38.94 11.8905 38.4492 12.3009 37.8417 12.2486C37.4113 12.2124 37.1538 12.0233 36.9687 11.6169C36.7716 11.1945 36.7354 10.7077 36.844 9.99161C37.0612 8.54731 37.6768 7.449 38.4251 7.17543C38.6142 7.10704 38.9722 7.10301 39.1613 7.17141Z" fill="#18172F"/>
<path d="M47.9116 5.32912C47.1915 5.49004 46.4794 5.9527 46.0248 6.55215C45.9202 6.68893 45.9161 6.68893 45.9161 6.59238C45.9161 6.53605 45.9443 6.2665 45.9765 5.98891C46.0087 5.71132 46.0368 5.47395 46.0368 5.45384C46.0368 5.43774 45.5581 5.42567 44.9707 5.42567C44.0575 5.42567 43.9046 5.43372 43.9046 5.48602C43.9046 5.61878 43.6954 7.0671 43.5666 7.81942C43.4419 8.54761 43.1684 10.004 42.8586 11.6011C42.7942 11.931 42.6574 12.6472 42.5568 13.1903C42.4563 13.7334 42.3275 14.4012 42.2752 14.6788C42.2229 14.9564 42.0942 15.6243 41.9936 16.1674C41.893 16.7105 41.8005 17.1933 41.7925 17.2415L41.7723 17.3341H42.9551C43.6069 17.3341 44.15 17.322 44.158 17.3019C44.1782 17.2737 44.7173 14.4093 44.7736 14.0512C44.8138 13.7937 44.8299 13.7817 45.0391 13.8742C45.5782 14.1116 46.5035 14.1679 47.1834 13.9989C49.3277 13.4759 50.9008 11.0862 50.9048 8.3545C50.9048 6.75732 50.2933 5.69925 49.1749 5.36935C48.849 5.2728 48.2495 5.25268 47.9116 5.32912ZM47.9076 7.37286C48.0766 7.46539 48.2536 7.69471 48.326 7.92C48.4145 8.18553 48.4266 8.79302 48.3501 9.26774C48.1007 10.881 47.2438 12.1523 46.3144 12.2851C46.0006 12.3293 45.5179 12.2046 45.2604 12.0075C45.192 11.9552 45.196 11.9029 45.369 10.9132C45.5862 9.6781 45.7029 9.16717 45.8558 8.78497C46.3305 7.58206 47.1955 6.99066 47.9076 7.37286Z" fill="#18172F"/>
<path d="M22.4816 5.38121C21.2787 5.63064 20.4016 6.31859 20.0637 7.28011C19.9229 7.68243 19.8867 8.3221 19.9872 8.66809C20.1803 9.34397 20.6591 9.87502 21.5361 10.394C21.9626 10.6475 22.2402 10.8848 22.3569 11.094C22.6184 11.5768 22.377 12.1159 21.8379 12.2607C21.4074 12.3774 20.635 12.2647 19.9269 11.9872C19.6976 11.8986 19.4924 11.8383 19.4763 11.8544C19.4602 11.8705 19.3275 12.2366 19.1786 12.6751C18.9493 13.3349 18.9131 13.4757 18.9573 13.528C19.0338 13.6165 19.77 13.8941 20.1683 13.9826C20.6873 14.0912 21.9384 14.0832 22.4494 13.9665C23.2299 13.7815 23.777 13.4878 24.2236 13.009C24.7345 12.4619 24.9316 11.8986 24.9075 11.0779C24.8954 10.6112 24.8874 10.5831 24.7385 10.2773C24.5454 9.88307 24.0425 9.35604 23.5799 9.06235C23.4109 8.95373 23.1132 8.76464 22.9241 8.64395C22.5339 8.39854 22.3569 8.19336 22.3166 7.9399C22.2844 7.72266 22.3931 7.46115 22.5781 7.30425C22.9281 7.01057 23.773 6.99447 24.5776 7.27207L24.9035 7.38069L25.169 6.57205C25.3179 6.12951 25.4386 5.74329 25.4386 5.71513C25.4386 5.63869 25.0725 5.48983 24.6943 5.40534C24.2035 5.29672 22.9603 5.28465 22.4816 5.38121Z" fill="#18172F"/>
<path d="M75.6389 5.38517C75.1923 5.43747 74.6975 5.6346 74.2831 5.92024C73.9974 6.11335 73.5308 6.58003 73.2693 6.92602C73.1405 7.09902 73.0319 7.23178 73.0319 7.22373C73.0319 7.21568 73.0882 6.85361 73.1526 6.41911C73.221 5.98461 73.2733 5.61047 73.2733 5.58633C73.2733 5.56219 73.1284 5.54609 72.9152 5.54609H72.5612L72.533 5.7553C72.4405 6.47141 72.1669 8.06054 71.8451 9.73013C71.7928 10.0077 71.6841 10.575 71.6077 10.9974C71.5272 11.4158 71.3462 12.3934 71.1974 13.1699C71.0525 13.9423 70.9077 14.7148 70.8795 14.8797C70.8514 15.0447 70.7347 15.6642 70.622 16.2556C70.5094 16.847 70.4169 17.3378 70.4169 17.3499C70.4169 17.3901 71.137 17.374 71.1611 17.3338C71.1732 17.3137 71.2577 16.8993 71.3462 16.4206C71.7364 14.2923 71.833 13.7734 71.8451 13.7613C71.8491 13.7532 71.9617 13.7935 72.0905 13.8458C72.5129 14.0228 72.9192 14.0912 73.5147 14.0912C74.1584 14.0872 74.5043 14.0067 75.0636 13.7371C76.705 12.9486 77.928 10.8888 78.1412 8.5755C78.266 7.17948 77.8274 6.03691 76.9866 5.5984C76.6165 5.40126 76.1297 5.32885 75.6389 5.38517ZM76.4314 6.18577C77.1314 6.53176 77.4654 7.43293 77.3406 8.62377C77.1596 10.2974 76.3268 11.963 75.2245 12.836C74.959 13.0492 74.4601 13.2986 74.1463 13.371C73.6233 13.4958 72.8871 13.4193 72.3842 13.186C71.9698 12.9929 71.9778 13.0251 72.1106 12.3451C72.1709 12.0233 72.3158 11.275 72.4284 10.6836C72.6497 9.50081 72.8187 8.91344 73.1124 8.30192C73.571 7.34845 74.2469 6.58808 74.9549 6.23405C75.4377 5.98864 75.9969 5.97254 76.4314 6.18577Z" fill="#18172F"/>
<path d="M83.7695 5.38543C82.6632 5.48601 81.6453 6.00901 80.7723 6.92628C80.1045 7.62228 79.6217 8.45506 79.2878 9.46889C79.0343 10.2333 78.97 10.6597 78.9659 11.5006C78.9659 12.1161 78.978 12.2448 79.0585 12.5264C79.4326 13.8179 80.5229 14.3891 81.8344 13.9748C82.6189 13.7253 83.3753 13.0132 83.9425 11.9914C84.031 11.8305 84.1115 11.7057 84.1195 11.7138C84.1316 11.7259 84.0994 12.0276 84.0552 12.3897C84.0069 12.7517 83.9626 13.2466 83.9626 13.492L83.9546 13.9345H84.2966H84.6385L84.6828 13.0897C84.7632 11.6494 84.8236 11.227 85.423 8.20161C85.6644 6.97054 85.8776 5.8843 85.8897 5.78372C85.9139 5.59866 85.9139 5.59463 85.7811 5.5544C85.5276 5.47394 85.2058 5.42566 84.6989 5.38543C84.4213 5.36532 84.1799 5.34922 84.1558 5.35325C84.1356 5.35325 83.9586 5.36934 83.7695 5.38543ZM84.8799 6.10154C84.9483 6.11764 85.0046 6.16591 85.0127 6.20212C85.0408 6.33891 84.373 9.662 84.2322 10.0884C83.6368 11.9109 82.3695 13.3351 81.2752 13.4196C80.5712 13.4719 80.1005 13.146 79.8631 12.442C79.7786 12.1885 79.7706 12.092 79.7706 11.3799C79.7706 10.704 79.7826 10.535 79.8631 10.177C80.1729 8.79703 80.9172 7.55791 81.8827 6.81363C82.3293 6.47167 83.0092 6.16189 83.5241 6.06936C83.7494 6.02511 84.7069 6.04924 84.8799 6.10154Z" fill="#18172F"/>
<path d="M90.6773 5.38957C89.9933 5.49015 89.2772 6.10568 88.7743 7.02697C88.6778 7.19594 88.6013 7.30457 88.6013 7.26434C88.6013 7.19594 88.7341 6.03729 88.7824 5.69532L88.8025 5.54647H88.4605C88.1387 5.54647 88.1186 5.55049 88.1025 5.63498C88.0944 5.68728 88.0542 5.98097 88.018 6.29074C87.9094 7.20801 87.8168 7.72699 86.6984 13.6208C86.6662 13.7818 86.6501 13.9226 86.6622 13.9347C86.7105 13.9789 87.3461 13.9548 87.3823 13.9025C87.4025 13.8783 87.4507 13.6892 87.4869 13.4921C87.7605 11.9231 88.2674 9.36842 88.364 9.0345C88.6657 8.02068 89.2853 7.031 89.9209 6.55225C90.2709 6.29074 90.5405 6.19017 90.8905 6.19017H91.16L91.2284 5.80395C91.2687 5.59072 91.2928 5.40968 91.2888 5.40566C91.2445 5.36945 90.8744 5.36141 90.6773 5.38957Z" fill="#18172F"/>
<path d="M100.469 5.38555C100.099 5.4298 99.8901 5.49417 99.524 5.66717C98.9769 5.93269 98.4217 6.43558 98.0274 7.02698C97.951 7.14365 97.8826 7.23618 97.8745 7.22813C97.8705 7.22009 97.9188 6.86203 97.9791 6.43156C98.0435 6.00109 98.0918 5.62291 98.0958 5.59475C98.0958 5.55854 97.9993 5.54648 97.7458 5.54648H97.3918L97.259 6.48386C97.1866 6.99479 97.082 7.64251 97.0297 7.92011C96.9774 8.1977 96.7682 9.30004 96.567 10.3742C96.3659 11.4484 96.1366 12.6473 96.0601 13.0456C95.9877 13.4398 95.9233 13.8059 95.9233 13.8582C95.9233 13.9507 95.9314 13.9548 96.2854 13.9548C96.6274 13.9548 96.6475 13.9507 96.6676 13.8622C96.6797 13.814 96.7601 13.3754 96.8487 12.8886C97.424 9.74258 97.5447 9.14313 97.6533 8.80519C98.1884 7.16376 99.6648 5.88844 100.811 6.06948C101.33 6.15396 101.656 6.4034 101.817 6.83789C101.886 7.02296 101.898 7.14767 101.894 7.69884C101.89 8.27414 101.869 8.43104 101.725 9.18739C101.632 9.65005 101.495 10.3742 101.415 10.7966C101.334 11.215 101.178 12.0398 101.069 12.6271C100.956 13.2145 100.86 13.7456 100.86 13.814L100.852 13.9347L101.206 13.9467C101.463 13.9548 101.564 13.9427 101.576 13.9065C101.596 13.8502 101.66 13.5122 102.236 10.4144C102.694 7.95632 102.69 7.98046 102.69 7.49768C102.694 6.2465 102.055 5.46199 100.952 5.37348C100.832 5.36141 100.614 5.36946 100.469 5.38555Z" fill="#18172F"/>
<path d="M107.663 5.38517C106.118 5.57023 104.666 7.22373 104.114 9.44046C103.97 10.0158 103.929 10.3497 103.929 10.9491C103.929 12.6469 104.621 13.7371 105.885 14.0188C106.331 14.1153 107.188 14.0791 107.719 13.9423C108.105 13.8417 108.761 13.5642 108.813 13.4797C108.833 13.4435 108.669 12.9285 108.62 12.8762C108.612 12.8682 108.508 12.9164 108.391 12.9848C108.061 13.1699 107.486 13.3429 107.051 13.3912C105.945 13.5159 105.197 13.0572 104.871 12.0515C104.77 11.7497 104.762 11.6532 104.742 10.8928C104.734 10.4342 104.742 10.0319 104.762 9.99565C104.79 9.94335 104.899 9.92726 105.358 9.91117C108.327 9.79852 109.843 8.96171 109.952 7.37661C110.044 6.04094 109.099 5.2162 107.663 5.38517ZM108.479 6.13749C108.717 6.24209 108.942 6.44325 109.051 6.64843C109.127 6.78924 109.139 6.87774 109.139 7.2358C109.139 7.63409 109.131 7.67834 109.006 7.92778C108.612 8.7324 107.518 9.14275 105.522 9.23126L104.923 9.25942L104.951 9.10655C104.987 8.91344 105.172 8.44676 105.362 8.06858C105.893 7.01453 106.621 6.30646 107.401 6.08921C107.691 6.00875 108.238 6.03289 108.479 6.13749Z" fill="#18172F"/>
<path d="M114.41 5.38923C113.718 5.48981 112.889 6.22604 112.454 7.12319C112.402 7.23182 112.35 7.3163 112.338 7.3163C112.326 7.3163 112.354 7.02261 112.398 6.66053C112.446 6.30248 112.499 5.90419 112.511 5.77545L112.535 5.54211L112.185 5.55418L111.839 5.56625L111.77 6.16971C111.682 6.96227 111.521 7.91172 111.07 10.2532C111.018 10.5308 110.889 11.1986 110.789 11.7417C110.688 12.2848 110.551 12.9889 110.491 13.3107C110.427 13.6326 110.382 13.9062 110.395 13.9222C110.423 13.9786 111.078 13.9585 111.119 13.9021C111.139 13.878 111.235 13.4274 111.328 12.9084C111.505 11.9509 111.682 11.0216 111.899 9.89109C111.964 9.54913 112.08 9.08245 112.157 8.85313C112.45 7.98414 113.014 7.07894 113.541 6.64846C113.927 6.32662 114.18 6.21799 114.567 6.18983L114.888 6.16971L114.965 5.79557C115.005 5.58636 115.033 5.41337 115.025 5.40532C114.985 5.36912 114.615 5.36107 114.41 5.38923Z" fill="#18172F"/>
<path d="M117.745 5.38893C116.755 5.5056 115.894 6.22574 115.661 7.13899C115.5 7.76257 115.629 8.47063 115.991 8.98962C116.232 9.32756 116.425 9.5086 116.944 9.87872C117.165 10.0356 117.423 10.2448 117.515 10.3454C118.014 10.8885 118.147 11.7414 117.833 12.4052C117.359 13.411 116.075 13.7127 114.929 13.0892L114.679 12.9564L114.538 13.2622C114.462 13.4311 114.406 13.584 114.418 13.6041C114.454 13.6604 114.888 13.8656 115.174 13.9541C115.604 14.0909 116.349 14.111 116.819 13.9984C118.034 13.7087 118.771 12.7673 118.775 11.5C118.775 10.627 118.401 9.97528 117.511 9.31146C116.92 8.86892 116.675 8.61547 116.51 8.28557C116.389 8.04016 116.381 7.99189 116.381 7.61774C116.381 7.2637 116.393 7.18726 116.49 6.98611C116.699 6.53954 117.093 6.22172 117.588 6.08895C118.03 5.97631 118.477 6.02861 118.988 6.25793C119.121 6.31827 119.233 6.34643 119.253 6.32632C119.294 6.27804 119.499 5.79527 119.499 5.74699C119.499 5.68262 119.113 5.50963 118.847 5.44928C118.493 5.36882 118.083 5.3487 117.745 5.38893Z" fill="#18172F"/>
<path d="M52.5744 5.51387C52.5663 5.54203 52.4859 5.95641 52.3974 6.43114C52.3089 6.90586 52.0795 8.10073 51.8945 9.08639C51.7054 10.072 51.4238 11.5526 51.2669 12.3773C51.11 13.202 50.9933 13.894 51.0054 13.9181C51.0335 13.9584 53.2302 13.9704 53.3348 13.9302C53.371 13.9181 53.3991 13.8739 53.3991 13.8337C53.3991 13.7934 53.5158 13.1497 53.6606 12.4014C53.8055 11.6491 53.9986 10.6554 54.0871 10.1927C54.1756 9.72606 54.3083 9.03006 54.3848 8.64384C54.6664 7.21564 54.9681 5.59835 54.9681 5.53398C54.9681 5.46961 54.8676 5.46559 53.7813 5.46559C52.8641 5.46559 52.5865 5.47766 52.5744 5.51387Z" fill="#18172F"/>
<path d="M61.5258 5.52194C61.5258 5.57022 61.8034 7.09497 62.3103 9.82264C62.3867 10.237 62.5114 10.9129 62.5879 11.3313C62.6643 11.7457 62.785 12.3854 62.8534 12.7515C62.9942 13.5199 63.0023 13.4837 62.6724 13.9745C62.2017 14.6826 61.3085 15.3625 60.4476 15.6682C60.3068 15.7165 60.2424 15.7608 60.2545 15.7929C60.2666 15.8251 60.4154 16.2757 60.5844 16.8027C60.7533 17.3257 60.8982 17.7643 60.9062 17.7723C60.9304 17.8005 61.6545 17.5309 61.9281 17.3941C62.6603 17.024 63.485 16.32 64.1167 15.5234C64.7 14.7872 65.4966 13.4917 66.0719 12.3451C66.257 11.975 69.0852 5.93632 69.2341 5.59435L69.2904 5.46562L68.0392 5.47366L66.788 5.48573L66.3897 6.51162C65.7581 8.13696 65.4845 8.86514 65.042 10.1123C64.7483 10.9451 64.6236 11.2508 64.6075 11.1784C64.5994 11.1221 64.5592 10.76 64.523 10.3738C64.4305 9.41631 64.0684 5.84781 64.0402 5.63459L64.0161 5.46562H62.7689C61.743 5.46562 61.5258 5.47366 61.5258 5.52194Z" fill="#18172F"/>
</svg>
