<svg width="195" height="31" viewBox="0 0 195 31" fill="none" xmlns="http://www.w3.org/2000/svg">
<path d="M18.5107 3.62715L17.5915 3.90813C17.4894 3.52498 17.3362 3.16737 17.1575 2.80977C16.4937 1.55814 15.549 0.894017 14.4 0.894017C14.3234 0.894017 14.2469 0.89401 14.1703 0.919554C14.1447 0.868467 14.0937 0.842924 14.0681 0.791837C13.5575 0.255427 12.9192 0 12.1532 0C10.6468 0.0510867 9.16599 1.12391 7.96598 3.03965C7.12343 4.39345 6.45959 6.07931 6.28087 7.40757L3.34469 8.32712C2.4766 8.6081 2.45107 8.63365 2.34894 9.45103C2.27235 10.0641 0 27.6123 0 27.6123L18.8171 30.8563V3.6016C18.6639 3.6016 18.5873 3.6016 18.5107 3.62715ZM14.1703 4.98095L11.0043 5.97714C11.3107 4.80215 11.8979 3.62715 12.6128 2.86085C12.8681 2.57987 13.2511 2.24781 13.6851 2.069C14.0937 2.93748 14.1703 4.13802 14.1703 4.98095ZM12.1277 1.02173C12.4341 0.99619 12.766 1.09836 13.0213 1.25162C12.5873 1.48151 12.2043 1.78803 11.8724 2.14564C10.9277 3.16737 10.1873 4.75105 9.90641 6.28365L7.27662 7.10104C7.81279 4.69997 9.80429 1.09836 12.1277 1.02173ZM9.21705 14.713C9.31918 16.3222 13.532 16.6542 13.7617 20.4091C13.9405 23.3721 12.2043 25.3901 9.67663 25.5433C6.63832 25.7477 4.97874 23.9596 4.97874 23.9596L5.61704 21.2265C5.61704 21.2265 7.30215 22.5037 8.62982 22.4015C9.4979 22.3504 9.82982 21.6352 9.77876 21.1243C9.65109 19.0298 6.22981 19.1575 6.00002 15.7347C5.8213 12.8483 7.71066 9.91081 11.8979 9.65538C13.5064 9.5532 14.3234 9.9619 14.3234 9.9619L13.3788 13.538C13.3788 13.538 12.3064 13.0526 11.0554 13.1293C9.21705 13.257 9.19152 14.432 9.21705 14.713ZM15.166 4.67443C15.166 3.90813 15.0639 2.86085 14.7064 1.94129C15.8298 2.14563 16.3915 3.44835 16.6469 4.21465C16.6213 4.21465 15.166 4.67443 15.166 4.67443ZM19.3533 30.8052L27.166 28.864C27.166 28.864 23.7958 6.1304 23.7958 5.97714C23.7703 5.84942 23.6682 5.74725 23.515 5.7217C23.4128 5.7217 21.2171 5.67061 21.2171 5.67061C21.2171 5.67061 19.8894 4.36791 19.3788 3.88258V30.8052H19.3533Z" fill="#18172F"/>
<path d="M98.1673 2.58873C98.0951 2.60841 97.8328 2.66743 97.577 2.72646C97.0523 2.84451 96.1932 3.2249 95.7341 3.53971C94.4552 4.41854 93.5042 6.12373 93.1107 8.21587L92.9927 8.84548H92.1269C91.6023 8.84548 91.2416 8.87171 91.2153 8.91106C91.1694 8.9832 90.6579 11.5541 90.6579 11.705C90.6579 11.7771 90.8284 11.7968 91.5498 11.7968H92.4417L92.409 11.9411C92.3827 12.0263 92.2975 12.492 92.2056 12.9773C92.1138 13.4626 91.9368 14.407 91.8121 15.076C91.6875 15.7449 91.3858 17.319 91.1497 18.5847C90.9136 19.844 90.6447 21.2606 90.5529 21.7197C90.4611 22.1853 90.4021 22.6051 90.4218 22.6575C90.4677 22.7821 94.1469 22.7953 94.2453 22.6641C94.2847 22.6247 94.3896 22.1591 94.488 21.6344C94.7372 20.244 94.8421 19.6866 95.8718 14.2562C96.003 13.5675 96.1604 12.7412 96.2194 12.4198L96.3309 11.8296L97.6754 11.8099L99.0199 11.7968L99.2691 10.3998C99.4068 9.63904 99.5183 8.97009 99.5117 8.92418C99.5117 8.86515 99.1969 8.84548 98.1738 8.84548H96.8359L96.9933 8.18307C97.1835 7.37639 97.3343 7.02879 97.6819 6.5697C97.9771 6.16964 98.4689 5.86139 98.9543 5.76301C99.2691 5.69743 99.7216 5.73022 100.338 5.86139L100.541 5.9073L100.915 4.41198C101.132 3.53971 101.263 2.89698 101.23 2.86419C101.073 2.70679 100.41 2.60185 99.3806 2.58218C98.7838 2.56906 98.2394 2.56906 98.1673 2.58873Z" fill="#18172F"/>
<path d="M45.1881 2.95605C45.1488 3.1069 44.6044 5.9467 44.3224 7.46825C44.2371 7.92078 44.0207 9.08162 43.8305 10.0588C43.6469 11.0295 43.4239 12.1969 43.3386 12.6494C43.2534 13.1019 42.8533 15.1941 42.4532 17.3059C41.5482 22.0673 41.4695 22.4805 41.4695 22.6313C41.4695 22.7428 41.581 22.7494 43.3714 22.7494H45.2734L45.3324 22.6051C45.3652 22.5198 45.5095 21.805 45.6603 21.0114C46.4736 16.6697 46.7753 15.2138 46.9982 14.5907C47.6213 12.8658 48.6575 11.7903 49.6938 11.7903C50.2053 11.7903 50.5332 11.9739 50.7234 12.3674C50.8677 12.6494 50.8808 12.7609 50.8677 13.4692C50.8612 13.9939 50.8021 14.5514 50.6906 15.1416C49.5888 20.9721 49.2871 22.6576 49.3265 22.6969C49.3593 22.7297 50.2315 22.7428 51.2743 22.7363L53.1697 22.7166L53.2484 22.2903C53.2943 22.0542 53.6682 20.0604 54.0879 17.8634C54.888 13.6135 55.0192 12.7084 54.9536 11.7575C54.8356 10.0523 54.0092 8.98325 52.5663 8.675C51.0907 8.36675 49.4773 8.89143 48.1788 10.1179C47.8836 10.3999 47.6344 10.6097 47.6344 10.5835C47.6344 10.531 47.8312 9.48825 48.4214 6.4189C48.8543 4.17592 49.0773 2.9954 49.0773 2.89047C49.0773 2.83144 48.651 2.81177 47.1491 2.81177H45.2209L45.1881 2.95605Z" fill="#18172F"/>
<path d="M87.936 3.10034C86.9653 3.40859 86.4013 4.1169 86.3423 5.12034C86.2898 5.99261 86.6243 6.68124 87.2736 7.02884C87.4966 7.15345 87.6474 7.17313 88.2049 7.17313C88.8345 7.17313 88.8935 7.16001 89.3198 6.94358C90.9463 6.11066 90.861 3.60534 89.1886 3.1069C88.7951 2.98885 88.2901 2.98885 87.936 3.10034Z" fill="#18172F"/>
<path d="M153.356 6.28773C153.015 6.42546 152.707 6.58286 152.681 6.62877C152.648 6.67468 152.53 7.23215 152.418 7.86176L152.209 9.00948L151.212 9.02916C150.333 9.04227 150.215 9.06195 150.182 9.16032C150.156 9.2587 150.011 10.0129 150.011 10.0719C150.011 10.0851 150.457 10.0916 150.995 10.0916H151.979L151.946 10.2359C151.907 10.3933 151.487 12.6101 151.061 14.9121C150.923 15.6663 150.667 16.9976 150.497 17.8634C150.215 19.3062 150.189 19.5226 150.182 20.4539C150.175 21.4377 150.182 21.4836 150.359 21.8443C150.569 22.2641 150.884 22.5789 151.317 22.7691C151.697 22.9396 152.812 22.9921 153.356 22.8674L153.717 22.7756L153.697 22.3887C153.665 21.8115 153.645 21.7591 153.435 21.8115C153.337 21.8378 153.022 21.8574 152.733 21.864C152.15 21.864 151.874 21.7525 151.625 21.418C151.5 21.2475 151.487 21.1491 151.487 20.2703C151.494 19.339 151.513 19.2013 152.097 16.0598C152.432 14.2759 152.812 12.2493 152.937 11.5673C153.061 10.8786 153.179 10.2687 153.199 10.2031C153.232 10.0982 153.369 10.0916 154.832 10.0916H156.426L156.531 9.62597C156.59 9.37019 156.635 9.13409 156.635 9.1013C156.635 9.06851 155.927 9.04227 155.061 9.04227C153.586 9.04227 153.487 9.03571 153.487 8.92422C153.487 8.85864 153.605 8.21591 153.75 7.49448C153.894 6.77961 154.006 6.15656 153.999 6.11065C153.986 6.06474 153.756 6.13033 153.356 6.28773Z" fill="#18172F"/>
<path d="M62.8501 8.64879C60.7121 8.95047 58.9479 10.0523 57.6755 11.8886C56.0556 14.23 55.5244 17.601 56.4097 19.8899C57.3738 22.369 60.1349 23.5364 63.1912 22.756C66.3982 21.9296 68.6871 18.8144 69.015 14.8268C69.2643 11.7575 67.8345 9.41612 65.3095 8.77995C64.6996 8.62255 63.4863 8.56353 62.8501 8.64879ZM63.8404 11.6919C64.4635 11.9149 64.8898 12.5379 65.0144 13.4233C65.1653 14.5317 64.7783 16.6435 64.1946 17.8831C63.4797 19.3849 62.6796 20.0539 61.6893 19.9686C60.9875 19.9096 60.5678 19.6014 60.2661 18.939C59.9447 18.2503 59.8857 17.4568 60.0628 16.2894C60.4169 13.9349 61.4204 12.1444 62.6403 11.6985C62.9485 11.587 63.5322 11.5804 63.8404 11.6919Z" fill="#18172F"/>
<path d="M78.1048 8.6881C76.9309 8.95044 75.77 9.70466 75.0289 10.6819C74.8584 10.9049 74.8519 10.9049 74.8519 10.7474C74.8519 10.6556 74.8978 10.2162 74.9502 9.76368C75.0027 9.31115 75.0486 8.9242 75.0486 8.89141C75.0486 8.86518 74.2682 8.8455 73.3106 8.8455C71.8219 8.8455 71.5726 8.85862 71.5726 8.94388C71.5726 9.16031 71.2316 11.5213 71.0217 12.7478C70.8184 13.9348 70.3725 16.309 69.8675 18.9127C69.7625 19.4505 69.5395 20.6179 69.3756 21.5033C69.2116 22.3887 69.0017 23.4774 68.9165 23.9299C68.8312 24.3824 68.6214 25.4711 68.4574 26.3565C68.2934 27.2419 68.1426 28.0289 68.1295 28.1076L68.0967 28.2585H70.0249C71.0873 28.2585 71.9727 28.2388 71.9858 28.206C72.0186 28.1601 72.8974 23.4905 72.9893 22.9068C73.0549 22.487 73.0811 22.4674 73.4221 22.6182C74.301 23.0052 75.8094 23.097 76.9178 22.8215C80.4134 21.9689 82.9778 18.0732 82.9843 13.62C82.9843 11.0163 81.9874 9.29148 80.1642 8.75368C79.633 8.59628 78.6558 8.56349 78.1048 8.6881ZM78.0983 12.0198C78.3737 12.1706 78.6623 12.5445 78.7804 12.9117C78.9246 13.3446 78.9443 14.3349 78.8197 15.1088C78.4131 17.7387 77.0161 19.8112 75.5011 20.0276C74.9896 20.0998 74.2026 19.8965 73.7828 19.5751C73.6713 19.4898 73.6779 19.4046 73.9599 17.7912C74.3141 15.7778 74.5043 14.9448 74.7535 14.3218C75.5274 12.3608 76.9374 11.3967 78.0983 12.0198Z" fill="#18172F"/>
<path d="M36.6491 8.77336C34.6882 9.17998 33.2584 10.3015 32.7075 11.8689C32.478 12.5248 32.4189 13.5676 32.5829 14.1316C32.8977 15.2334 33.6782 16.0991 35.1079 16.9452C35.8031 17.3583 36.2556 17.7453 36.4458 18.0863C36.8721 18.8733 36.4786 19.7522 35.5998 19.9883C34.898 20.1785 33.6388 19.9948 32.4845 19.5423C32.1107 19.398 31.7762 19.2996 31.75 19.3259C31.7237 19.3521 31.5073 19.9489 31.2647 20.6638C30.8908 21.7394 30.8318 21.9689 30.9039 22.0542C31.0286 22.1985 32.2287 22.651 32.878 22.7953C33.7241 22.9724 35.7637 22.9592 36.5967 22.769C37.869 22.4674 38.7609 21.9886 39.4889 21.2081C40.3218 20.3162 40.6432 19.398 40.6039 18.0601C40.5842 17.2993 40.5711 17.2534 40.3284 16.755C40.0136 16.1122 39.1938 15.2531 38.4396 14.7743C38.1641 14.5972 37.6788 14.289 37.3706 14.0922C36.7344 13.6922 36.4458 13.3577 36.3802 12.9445C36.3278 12.5904 36.5048 12.1641 36.8065 11.9083C37.3771 11.4295 38.7544 11.4033 40.0661 11.8558L40.5973 12.0329L41.0302 10.7147C41.2728 9.99323 41.4696 9.36362 41.4696 9.31771C41.4696 9.1931 40.8728 8.95044 40.2563 8.81271C39.4561 8.63563 37.4296 8.61596 36.6491 8.77336Z" fill="#18172F"/>
<path d="M123.306 8.77991C122.578 8.86516 121.771 9.18653 121.095 9.65218C120.63 9.96698 119.869 10.7278 119.443 11.2918C119.233 11.5738 119.056 11.7902 119.056 11.7771C119.056 11.764 119.148 11.1737 119.252 10.4654C119.364 9.75711 119.449 9.14718 119.449 9.10783C119.449 9.06848 119.213 9.04224 118.866 9.04224H118.288L118.242 9.38328C118.092 10.5507 117.646 13.1413 117.121 15.863C117.036 16.3155 116.859 17.2403 116.734 17.9289C116.603 18.611 116.308 20.2047 116.065 21.4705C115.829 22.7297 115.593 23.9889 115.547 24.2578C115.501 24.5267 115.311 25.5367 115.127 26.5008C114.944 27.4649 114.793 28.265 114.793 28.2847C114.793 28.3503 115.967 28.324 116.006 28.2584C116.026 28.2256 116.163 27.5501 116.308 26.7697C116.944 23.3003 117.101 22.4542 117.121 22.4346C117.128 22.4214 117.311 22.487 117.521 22.5723C118.21 22.8609 118.872 22.9723 119.843 22.9723C120.892 22.9658 121.456 22.8346 122.368 22.3952C125.044 21.1098 127.037 17.7518 127.385 13.9807C127.588 11.705 126.873 9.84237 125.503 9.1275C124.899 8.80614 124.106 8.68809 123.306 8.77991ZM124.598 10.085C125.739 10.6491 126.283 12.1181 126.08 14.0594C125.785 16.7877 124.427 19.5029 122.63 20.9261C122.197 21.2737 121.384 21.6803 120.872 21.7984C120.02 22.0017 118.82 21.8771 118 21.4967C117.324 21.1819 117.337 21.2344 117.554 20.126C117.652 19.6013 117.888 18.3814 118.072 17.4174C118.433 15.4892 118.708 14.5316 119.187 13.5348C119.935 11.9804 121.036 10.7409 122.191 10.1637C122.978 9.76367 123.889 9.73744 124.598 10.085Z" fill="#18172F"/>
<path d="M136.56 8.77992C134.757 8.94388 133.097 9.79647 131.674 11.2918C130.586 12.4264 129.799 13.784 129.254 15.4367C128.841 16.6828 128.736 17.378 128.729 18.7487C128.729 19.7522 128.749 19.962 128.88 20.4211C129.49 22.5264 131.268 23.4577 133.406 22.7822C134.685 22.3755 135.918 21.2147 136.842 19.5489C136.987 19.2865 137.118 19.0832 137.131 19.0963C137.151 19.116 137.098 19.6079 137.026 20.1981C136.947 20.7884 136.875 21.5951 136.875 21.9952L136.862 22.7166H137.419H137.977L138.049 21.3393C138.18 18.9914 138.279 18.3028 139.256 13.3708C139.649 11.3639 139.997 9.59316 140.017 9.4292C140.056 9.12751 140.056 9.12095 139.839 9.05537C139.426 8.9242 138.902 8.8455 138.075 8.77992C137.623 8.74712 137.229 8.72089 137.19 8.72745C137.157 8.72745 136.869 8.75368 136.56 8.77992ZM138.37 9.94732C138.482 9.97355 138.574 10.0523 138.587 10.1113C138.633 10.3343 137.544 15.7515 137.314 16.4467C136.344 19.4177 134.278 21.7394 132.494 21.8771C131.346 21.9624 130.579 21.4311 130.192 20.2834C130.054 19.8702 130.041 19.7128 130.041 18.552C130.041 17.4502 130.061 17.1747 130.192 16.591C130.697 14.3415 131.91 12.3215 133.484 11.1082C134.212 10.5507 135.321 10.0457 136.16 9.89485C136.527 9.82271 138.088 9.86206 138.37 9.94732Z" fill="#18172F"/>
<path d="M147.821 8.78648C146.706 8.95044 145.539 9.95388 144.719 11.4558C144.562 11.7312 144.437 11.9083 144.437 11.8427C144.437 11.7312 144.653 9.84239 144.732 9.28492L144.765 9.04226H144.207C143.683 9.04226 143.65 9.04882 143.624 9.18654C143.611 9.2718 143.545 9.75057 143.486 10.2556C143.309 11.7509 143.158 12.5969 141.335 22.205C141.282 22.4674 141.256 22.6969 141.276 22.7166C141.355 22.7887 142.391 22.7494 142.45 22.6641C142.483 22.6248 142.561 22.3165 142.62 21.9952C143.066 19.4374 143.893 15.2728 144.05 14.7284C144.542 13.0757 145.552 11.4623 146.588 10.6819C147.159 10.2556 147.598 10.0916 148.169 10.0916H148.608L148.72 9.462C148.785 9.1144 148.825 8.81927 148.818 8.81271C148.746 8.75369 148.142 8.74057 147.821 8.78648Z" fill="#18172F"/>
<path d="M163.784 8.77993C163.181 8.85208 162.84 8.95701 162.243 9.23903C161.351 9.67188 160.446 10.4917 159.803 11.4558C159.679 11.646 159.567 11.7968 159.554 11.7837C159.548 11.7706 159.626 11.1869 159.725 10.4851C159.83 9.78337 159.908 9.16688 159.915 9.12097C159.915 9.06195 159.757 9.04227 159.344 9.04227H158.767L158.551 10.5704C158.433 11.4033 158.262 12.4592 158.177 12.9117C158.092 13.3643 157.751 15.1613 157.423 16.9124C157.095 18.6635 156.721 20.6179 156.596 21.2672C156.478 21.9099 156.373 22.5067 156.373 22.592C156.373 22.7428 156.386 22.7494 156.964 22.7494C157.521 22.7494 157.554 22.7428 157.587 22.5985C157.606 22.5198 157.737 21.805 157.882 21.0114C158.82 15.8827 159.016 14.9055 159.193 14.3546C160.066 11.6788 162.473 9.59974 164.342 9.89487C165.188 10.0326 165.719 10.4392 165.981 11.1475C166.093 11.4492 166.113 11.6525 166.106 12.551C166.099 13.4889 166.067 13.7447 165.831 14.9777C165.68 15.7319 165.457 16.9124 165.326 17.601C165.194 18.2831 164.939 19.6276 164.762 20.5851C164.578 21.5426 164.42 22.4084 164.42 22.5198L164.407 22.7166L164.985 22.7363C165.404 22.7494 165.568 22.7297 165.588 22.6707C165.621 22.5789 165.726 22.028 166.663 16.978C167.411 12.9708 167.405 13.0101 167.405 12.2231C167.411 10.1834 166.368 8.90454 164.571 8.76026C164.375 8.74058 164.02 8.7537 163.784 8.77993Z" fill="#18172F"/>
<path d="M175.511 8.77995C172.992 9.08164 170.625 11.7772 169.726 15.3908C169.49 16.3287 169.425 16.8731 169.425 17.8503C169.425 20.6179 170.553 22.3952 172.612 22.8543C173.34 23.0117 174.737 22.9527 175.603 22.7297C176.232 22.5658 177.301 22.1132 177.386 21.9755C177.419 21.9165 177.15 21.077 177.072 20.9917C177.059 20.9786 176.888 21.0573 176.698 21.1688C176.16 21.4705 175.222 21.7525 174.514 21.8312C172.71 22.0345 171.49 21.2869 170.959 19.6473C170.795 19.1554 170.782 18.998 170.749 17.7584C170.736 17.0108 170.749 16.3549 170.782 16.2959C170.828 16.2106 171.005 16.1844 171.753 16.1582C176.593 15.9745 179.065 14.6104 179.243 12.0264C179.393 9.84897 177.852 8.5045 175.511 8.77995ZM176.842 10.0064C177.229 10.1769 177.596 10.5048 177.773 10.8393C177.898 11.0688 177.918 11.2131 177.918 11.7968C177.918 12.4461 177.905 12.5183 177.701 12.9249C177.059 14.2366 175.275 14.9055 172.022 15.0498L171.044 15.0957L171.09 14.8465C171.149 14.5317 171.451 13.7709 171.759 13.1544C172.625 11.4361 173.812 10.2818 175.084 9.92767C175.557 9.79651 176.449 9.83586 176.842 10.0064Z" fill="#18172F"/>
<path d="M186.509 8.78648C185.381 8.95044 184.03 10.1506 183.322 11.6132C183.237 11.7902 183.151 11.928 183.132 11.928C183.112 11.928 183.158 11.4492 183.23 10.8589C183.309 10.2752 183.394 9.62596 183.414 9.41609L183.453 9.0357L182.882 9.05537L182.318 9.07505L182.207 10.0588C182.063 11.3508 181.8 12.8986 181.066 16.7156C180.98 17.1682 180.771 18.2569 180.607 19.1422C180.443 20.0276 180.22 21.1754 180.121 21.7C180.016 22.2247 179.944 22.6707 179.964 22.6969C180.01 22.7887 181.079 22.7559 181.144 22.6641C181.177 22.6248 181.335 21.8902 181.485 21.0442C181.774 19.4833 182.063 17.9683 182.417 16.1254C182.522 15.5679 182.712 14.8071 182.837 14.4333C183.315 13.0167 184.233 11.541 185.093 10.8393C185.722 10.3146 186.135 10.1375 186.765 10.0916L187.29 10.0588L187.414 9.44888C187.48 9.10784 187.526 8.82583 187.513 8.81271C187.447 8.75368 186.844 8.74057 186.509 8.78648Z" fill="#18172F"/>
<path d="M191.946 8.78648C190.333 8.97667 188.929 10.1506 188.549 11.6394C188.287 12.656 188.497 13.8102 189.087 14.6563C189.48 15.2072 189.795 15.5023 190.641 16.1057C191.002 16.3615 191.422 16.7025 191.572 16.8665C192.386 17.7519 192.602 19.1422 192.091 20.2244C191.317 21.864 189.225 22.3559 187.355 21.3393L186.949 21.1229L186.719 21.6213C186.595 21.8968 186.503 22.146 186.522 22.1788C186.581 22.2706 187.29 22.6051 187.755 22.7494C188.457 22.9724 189.67 23.0052 190.438 22.8215C192.418 22.3493 193.619 20.8146 193.625 18.7487C193.625 17.3256 193.015 16.2631 191.566 15.1809C190.602 14.4595 190.202 14.0463 189.933 13.5085C189.736 13.1085 189.723 13.0298 189.723 12.4198C189.723 11.8427 189.743 11.7181 189.9 11.3902C190.241 10.6622 190.884 10.1441 191.69 9.92764C192.412 9.74401 193.14 9.82927 193.973 10.2031C194.189 10.3015 194.373 10.3474 194.406 10.3146C194.471 10.2359 194.806 9.44888 194.806 9.37018C194.806 9.26524 194.176 8.98323 193.743 8.88485C193.166 8.75368 192.497 8.72089 191.946 8.78648Z" fill="#18172F"/>
<path d="M85.7062 8.98981C85.693 9.03572 85.5619 9.71124 85.4176 10.4851C85.2733 11.259 84.8995 13.2069 84.5978 14.8137C84.2895 16.4205 83.8304 18.834 83.5747 20.1785C83.3189 21.523 83.1287 22.651 83.1484 22.6904C83.1943 22.756 86.7752 22.7756 86.9457 22.71C87.0047 22.6904 87.0506 22.6182 87.0506 22.5526C87.0506 22.4871 87.2408 21.4377 87.4769 20.2178C87.713 18.9914 88.0278 17.3715 88.1721 16.6173C88.3164 15.8565 88.5328 14.7219 88.6575 14.0923C89.1165 11.764 89.6084 9.12754 89.6084 9.02261C89.6084 8.91767 89.4445 8.91111 87.6737 8.91111C86.1784 8.91111 85.7258 8.93079 85.7062 8.98981Z" fill="#18172F"/>
<path d="M100.299 9.0029C100.299 9.0816 100.751 11.5672 101.578 16.0139C101.702 16.6894 101.905 17.7912 102.03 18.4733C102.155 19.1488 102.351 20.1916 102.463 20.7884C102.692 22.0411 102.706 21.982 102.168 22.7822C101.4 23.9364 99.9445 25.0448 98.541 25.5433C98.3115 25.622 98.2065 25.6941 98.2262 25.7466C98.2459 25.799 98.4885 26.5336 98.764 27.3927C99.0395 28.2453 99.2756 28.9602 99.2887 28.9733C99.328 29.0192 100.509 28.5798 100.955 28.3568C102.148 27.7535 103.493 26.6057 104.522 25.3072C105.473 24.107 106.772 21.9951 107.71 20.126C108.011 19.5226 112.622 9.67842 112.865 9.12095L112.956 8.91108L110.917 8.9242L108.877 8.94387L108.228 10.6163C107.198 13.2659 106.752 14.453 106.031 16.4861C105.552 17.8437 105.349 18.3421 105.322 18.2241C105.309 18.1322 105.244 17.542 105.185 16.9124C105.034 15.3515 104.444 9.53413 104.398 9.18653L104.358 8.91108H102.325C100.653 8.91108 100.299 8.9242 100.299 9.0029Z" fill="#18172F"/>
</svg>
