<svg width="154" height="32" viewBox="0 0 154 32" fill="none" xmlns="http://www.w3.org/2000/svg">
<path d="M119.311 11.9543C117.371 11.9543 115.762 12.6439 114.613 13.9211L114.843 12.7717C114.92 12.4141 114.664 12.1075 114.307 12.1075C113.949 12.1075 113.566 12.4141 113.515 12.7717L110.145 30.2688C110.068 30.6265 110.324 30.933 110.681 30.933C111.039 30.933 111.422 30.6265 111.473 30.2688L112.724 23.7553C113.183 24.5982 114.256 25.7221 116.656 25.7221C118.545 25.7221 120.102 25.1346 121.328 24.0107C122.605 22.8357 123.473 21.0732 123.907 18.7999C124.341 16.5265 124.162 14.7896 123.345 13.6146C122.554 12.5162 121.2 11.9543 119.311 11.9543ZM116.885 24.5216C114.026 24.5216 112.902 22.5548 113.617 18.8254C114.332 15.0706 116.145 13.1548 118.979 13.1548C122.094 13.1548 123.243 15.0195 122.503 18.8254C121.762 22.7336 119.975 24.5216 116.885 24.5216ZM148.392 18.1102C146.707 17.4716 145.098 16.8841 145.405 15.3005C145.558 14.5086 146.196 13.1804 148.8 13.1804C150.256 13.1804 151.175 13.589 151.966 14.5852C152.12 14.764 152.298 14.764 152.349 14.764C152.707 14.7385 153.013 14.4831 153.09 14.151C153.115 13.9977 153.09 13.8445 153.013 13.7168V13.6912C152.196 12.5418 150.869 11.9543 149.03 11.9543C146.375 11.9543 144.46 13.2314 144.077 15.3005C143.592 17.7782 145.788 18.5955 147.728 19.3363C149.388 19.9749 150.971 20.5624 150.69 22.0694C150.281 24.2151 148.034 24.5216 146.732 24.5216C144.945 24.5216 143.847 24.0363 143.03 22.8868C142.928 22.7591 142.8 22.708 142.647 22.708C142.29 22.7336 141.983 22.989 141.907 23.3211C141.881 23.4743 141.907 23.6276 141.983 23.7553C142.52 24.7515 144.128 25.7732 146.503 25.7732C149.515 25.7732 151.583 24.3939 152.017 22.095C152.477 19.6173 150.307 18.7999 148.392 18.1102ZM144.358 8.48038H142.954L143.234 7.0755C143.311 6.71789 143.056 6.41137 142.698 6.41137C142.341 6.41137 141.983 6.71789 141.907 7.0755L141.626 8.48038H140.222C139.864 8.48038 139.507 8.7869 139.43 9.14451C139.354 9.50212 139.609 9.80864 139.966 9.80864H141.371L141.09 11.2135C141.013 11.5711 141.268 11.8776 141.626 11.8776C141.983 11.8776 142.341 11.5711 142.417 11.2135L142.698 9.80864H144.103C144.46 9.80864 144.817 9.50212 144.894 9.14451C144.971 8.86353 144.792 8.55701 144.486 8.48038C144.46 8.50592 144.409 8.48038 144.358 8.48038ZM32.3746 22.0694C33.0639 22.427 34.2895 22.9124 35.4639 22.8868C36.5363 22.8868 37.098 22.2993 37.098 21.6096C37.098 20.92 36.6895 20.4602 35.5405 19.7961C34.1107 18.9787 33.0384 17.8292 33.0384 16.3222C33.0384 13.6657 35.3107 11.7755 38.6299 11.7755C40.0852 11.7755 41.2086 12.0564 41.8214 12.4141L40.9533 15.0961C40.2129 14.764 39.4214 14.5852 38.6044 14.5852C37.532 14.5852 36.8427 15.0706 36.8427 15.8369C36.8427 16.4499 37.3278 16.8841 38.298 17.395C39.7788 18.2379 41.0044 19.3874 41.0044 21.0222C41.0044 24.0363 38.5533 25.7477 35.1576 25.7221C33.6001 25.6966 32.1448 25.2879 31.4299 24.777C31.4554 24.777 32.3746 22.0694 32.3746 22.0694ZM41.7703 25.62L45.4469 6.41137H49.2257L47.7704 13.8445L47.8214 13.7934C48.8427 12.5929 50.1448 11.7499 51.8299 11.7499C53.7959 11.7499 54.9193 13.0271 54.9193 15.1472C54.9193 15.8113 54.8172 16.8586 54.6385 17.7015L53.1576 25.5944H49.3789L50.8087 17.9314C50.9108 17.4205 50.9619 16.7309 50.9619 16.22C50.9619 15.4026 50.6299 14.7896 49.7874 14.7896C48.5874 14.7896 47.2853 16.3988 46.8001 18.9021L45.5491 25.5944L41.7703 25.62ZM68.6045 17.0374C68.6045 21.7374 65.5917 25.7221 61.1236 25.7221C57.7278 25.7221 55.9151 23.3721 55.9151 20.4347C55.9151 15.8624 58.9278 11.7499 63.4725 11.7499C67.0215 11.7499 68.6045 14.3298 68.6045 17.0374ZM59.7959 20.358C59.7959 21.7374 60.3321 22.8357 61.6342 22.8357C63.6257 22.8357 64.7491 19.2597 64.7491 16.9352C64.7491 15.8113 64.3151 14.6619 62.9619 14.6619C60.9193 14.6363 59.7959 18.1868 59.7959 20.358ZM67.7108 30.9585L70.3406 17.114C70.647 15.5559 70.9534 13.538 71.1066 12.1075H74.4513L74.2215 14.2532H74.2726C75.2938 12.8227 76.7747 11.8776 78.2811 11.8776C81.0385 11.8776 82.162 14.0999 82.162 16.6287C82.162 21.2265 79.2513 25.7732 74.8087 25.7732C73.8896 25.7732 73.0215 25.62 72.5875 25.2624H72.5109L71.464 30.9585H67.7108ZM73.0981 22.3249C73.5066 22.6569 73.9662 22.8613 74.6555 22.8613C76.7747 22.8613 78.23 19.3874 78.23 16.9352C78.23 15.9135 77.8726 14.8407 76.7236 14.8407C75.396 14.8407 74.1704 16.3988 73.7364 18.7743L73.0981 22.3249ZM82.2896 25.62L84.8428 12.1075H88.6471L86.0683 25.62H82.2896ZM87.1918 10.7027C86.1194 10.7027 85.4045 9.78309 85.4045 8.65919C85.4045 7.43311 86.3747 6.38583 87.5747 6.38583C88.7237 6.38583 89.4641 7.27985 89.4641 8.37821C89.4386 9.78309 88.4173 10.6771 87.2428 10.6771C87.2428 10.7027 87.1918 10.7027 87.1918 10.7027ZM89.362 25.62L91.3535 14.9428H89.5918L90.1279 12.1075H91.8896L91.9918 11.4179C92.2982 9.83418 92.8854 8.19941 94.1875 7.12659C95.2088 6.25811 96.5365 5.84942 97.8897 5.84942C98.8088 5.84942 99.4982 5.97713 99.9322 6.18148L99.1918 9.14451C98.8088 9.01679 98.4003 8.94017 97.9918 8.94017C96.7407 8.94017 95.9748 10.1407 95.745 11.4434L95.6173 12.1331H98.2471L97.7365 14.9684H95.1322L93.1407 25.6455L89.362 25.62ZM102.971 12.1075L103.583 18.1613C103.711 19.2341 103.813 20.2814 103.915 21.3542H103.966C104.273 20.639 104.554 19.5917 105.09 18.1358L107.388 12.1075H111.345L106.724 21.9928C105.09 25.3901 103.481 27.8678 101.771 29.477C100.417 30.7286 98.8343 31.3672 98.0684 31.5205L97.0216 28.302C97.6599 28.0721 98.4514 27.74 99.1663 27.2292C100.034 26.6161 100.775 25.7988 101.234 24.9558C101.336 24.7515 101.362 24.6238 101.311 24.3683L99.0386 12.082C98.9875 12.1075 102.971 12.1075 102.971 12.1075ZM141.269 13.3847C140.911 13.3847 140.554 13.6912 140.477 14.0488L139.2 20.6901C138.511 24.0618 136.443 24.5216 134.477 24.5216C130.979 24.5216 130.877 22.5292 131.26 20.5624L132.766 12.7717C132.843 12.4141 132.588 12.1075 132.23 12.1075C131.873 12.1075 131.515 12.4141 131.439 12.7717L129.932 20.5624C129.626 22.1461 129.728 23.2955 130.264 24.1384C130.928 25.1857 132.256 25.7221 134.247 25.7221C136.239 25.7221 137.771 25.1857 138.843 24.1384C139.686 23.2955 140.247 22.1205 140.554 20.5624L141.805 14.0233C141.881 13.6912 141.626 13.3847 141.269 13.3847ZM129.192 6.43691C128.834 6.43691 128.451 6.74344 128.4 7.10104L124.979 24.9047C124.903 25.2624 125.158 25.5689 125.515 25.5689C125.873 25.5689 126.23 25.2624 126.307 24.9047L129.728 7.10104C129.805 6.74344 129.549 6.43691 129.192 6.43691ZM18.5107 3.62715L17.5915 3.90813C17.4894 3.52498 17.3362 3.16737 17.1575 2.80977C16.4937 1.55814 15.549 0.894017 14.4 0.894017C14.3234 0.894017 14.2469 0.89401 14.1703 0.919554C14.1447 0.868467 14.0937 0.842924 14.0681 0.791837C13.5575 0.255427 12.9192 0 12.1532 0C10.6468 0.0510867 9.16599 1.1239 7.96598 3.03965C7.12343 4.39345 6.45959 6.07931 6.28087 7.40757L3.34469 8.32712C2.4766 8.6081 2.45107 8.63365 2.34894 9.45103C2.27235 10.0641 0 27.6123 0 27.6123L18.8171 30.8563V3.6016C18.6639 3.6016 18.5873 3.6016 18.5107 3.62715ZM14.1703 4.98095L11.0043 5.97714C11.3107 4.80214 11.8979 3.62715 12.6128 2.86085C12.8681 2.57987 13.2511 2.24781 13.6851 2.069C14.0937 2.93748 14.1703 4.13802 14.1703 4.98095ZM12.1277 1.02173C12.4341 0.99619 12.766 1.09836 13.0213 1.25162C12.5873 1.48151 12.2043 1.78803 11.8724 2.14564C10.9277 3.16737 10.1873 4.75105 9.90641 6.28365L7.27662 7.10104C7.81279 4.69997 9.80429 1.09836 12.1277 1.02173ZM9.21705 14.713C9.31918 16.3222 13.532 16.6542 13.7617 20.4091C13.9405 23.3721 12.2043 25.3901 9.67663 25.5433C6.63832 25.7477 4.97874 23.9596 4.97874 23.9596L5.61704 21.2265C5.61704 21.2265 7.30215 22.5037 8.62981 22.4015C9.4979 22.3504 9.82982 21.6352 9.77875 21.1243C9.65109 19.0298 6.22981 19.1575 6.00002 15.7347C5.82129 12.8483 7.71066 9.91081 11.8979 9.65538C13.5064 9.5532 14.3234 9.9619 14.3234 9.9619L13.3788 13.538C13.3788 13.538 12.3064 13.0526 11.0554 13.1293C9.21705 13.257 9.19152 14.432 9.21705 14.713ZM15.166 4.67443C15.166 3.90813 15.0639 2.86085 14.7064 1.94129C15.8298 2.14563 16.3915 3.44835 16.6469 4.21465C16.6213 4.21465 15.166 4.67443 15.166 4.67443ZM19.3532 30.8052L27.166 28.864C27.166 28.864 23.7958 6.1304 23.7958 5.97714C23.7703 5.84942 23.6682 5.74725 23.515 5.7217C23.4128 5.7217 21.2171 5.67061 21.2171 5.67061C21.2171 5.67061 19.8894 4.3679 19.3788 3.88258V30.8052H19.3532Z" fill="#18172F"/>
</svg>
