<svg width="12" height="9" viewBox="0 0 12 9" fill="none" xmlns="http://www.w3.org/2000/svg">
<path d="M11.8366 3.7344L8.26556 0.163407C8.04769 -0.0544689 7.69434 -0.0544689 7.47646 0.163407C7.25854 0.381327 7.25854 0.734588 7.47646 0.952508L10.0949 3.57099L0.557968 3.57099C0.249836 3.57099 0 3.82082 0 4.12896C0 4.43704 0.249836 4.68692 0.557968 4.68692L10.0949 4.68692L7.47655 7.3054C7.25863 7.52332 7.25863 7.87658 7.47655 8.0945C7.58547 8.20338 7.72831 8.25792 7.8711 8.25792C8.0139 8.25792 8.15669 8.20338 8.26565 8.0945L11.8366 4.52351C12.0545 4.30559 12.0545 3.95232 11.8366 3.7344Z" fill="white"/>
</svg>
