<svg width="120" height="19" fill="none" xmlns="http://www.w3.org/2000/svg"><path d="M11.398 2.233l-.566.173a3.558 3.558 0 00-.267-.676C10.156.96 9.575.55 8.867.55c-.047 0-.094 0-.142.016C8.71.535 8.678.52 8.663.488 8.348.158 7.955 0 7.483 0c-.927.031-1.839.692-2.578 1.872-.519.833-.927 1.871-1.038 2.69l-1.807.565c-.535.173-.55.19-.614.693C1.4 6.197 0 17.003 0 17.003L11.587 19V2.218c-.095 0-.142 0-.189.015zm-2.673.834l-1.949.613c.189-.723.55-1.447.99-1.918.158-.173.393-.378.66-.488.252.535.3 1.274.3 1.793zM7.468.629a.962.962 0 01.55.142 2.68 2.68 0 00-.708.55c-.581.63-1.037 1.604-1.21 2.548l-1.62.504C4.81 2.894 6.038.676 7.469.629zM5.675 9.06c.063.992 2.657 1.196 2.799 3.508.11 1.825-.96 3.067-2.516 3.162-1.87.125-2.892-.976-2.892-.976l.393-1.683s1.037.787 1.855.724a.72.72 0 00.707-.787c-.078-1.29-2.185-1.21-2.326-3.318-.11-1.778 1.053-3.586 3.631-3.744.99-.063 1.494.19 1.494.19l-.582 2.201s-.66-.299-1.43-.252c-1.133.08-1.148.803-1.133.976zM9.34 2.88c0-.473-.063-1.117-.283-1.684.691.126 1.037.928 1.194 1.4-.015 0-.911.283-.911.283zm2.578 16.09l4.81-1.196S14.653 3.775 14.653 3.68a.201.201 0 00-.172-.157c-.063 0-1.415-.031-1.415-.031s-.818-.802-1.132-1.101v16.577h-.016zM60.447 1.594c-.044.012-.206.048-.363.085a4.057 4.057 0 00-1.135.5c-.788.542-1.373 1.592-1.616 2.88l-.072.387h-.533c-.323 0-.546.017-.562.04-.028.045-.343 1.628-.343 1.721 0 .045.105.057.55.057h.549l-.02.089c-.017.052-.07.339-.126.638l-.242 1.292c-.077.412-.263 1.381-.408 2.16-.145.776-.311 1.648-.367 1.93-.057.288-.093.546-.081.578.028.077 2.294.085 2.354.004.024-.024.089-.31.15-.634.153-.856.218-1.2.852-4.543l.214-1.13.068-.364.828-.012.828-.008.154-.86c.084-.469.153-.88.149-.91 0-.035-.194-.048-.824-.048h-.824l.097-.407c.117-.497.21-.711.424-.994.182-.246.485-.436.784-.497.194-.04.472-.02.852.061l.125.028.23-.92c.133-.538.214-.933.194-.954-.097-.096-.505-.161-1.139-.173-.367-.008-.703-.008-.747.004zm-32.622.226c-.024.093-.36 1.841-.533 2.778-.053.279-.186.994-.303 1.596l-.303 1.595c-.052.278-.299 1.567-.545 2.867-.557 2.932-.606 3.186-.606 3.28 0 .068.069.072 1.171.072h1.172l.036-.089c.02-.053.109-.493.202-.981.5-2.674.686-3.57.824-3.954.383-1.062 1.021-1.724 1.66-1.724.314 0 .516.113.633.355.09.174.097.242.09.679a6.037 6.037 0 01-.11 1.03c-.678 3.59-.864 4.627-.84 4.652.02.02.558.028 1.2.024l1.167-.012.048-.263c.029-.145.259-1.373.517-2.726.493-2.617.574-3.174.533-3.76-.072-1.05-.581-1.708-1.47-1.898-.908-.19-1.902.134-2.701.889-.182.174-.336.303-.336.287 0-.033.122-.675.485-2.565.267-1.38.404-2.108.404-2.172 0-.037-.263-.049-1.187-.049h-1.188l-.02.089zm26.322.09c-.597.19-.945.625-.981 1.243-.032.537.174.961.573 1.175.138.077.23.09.574.09.387 0 .424-.009.686-.142 1.002-.513.95-2.056-.08-2.363a1.43 1.43 0 00-.772-.004zM94.43 3.872c-.21.085-.4.182-.416.21-.02.028-.093.371-.161.76l-.13.706-.613.012c-.541.008-.614.02-.634.08a8.98 8.98 0 00-.105.562c0 .008.274.012.605.012h.606l-.02.09c-.024.096-.283 1.461-.545 2.878A164.07 164.07 0 0192.669 11c-.173.888-.19 1.021-.193 1.595-.004.606 0 .634.109.856.129.258.323.452.59.57.233.104.92.137 1.255.06l.222-.056-.012-.239c-.02-.355-.032-.387-.161-.355a2.934 2.934 0 01-.433.032c-.359 0-.529-.068-.682-.274-.077-.105-.085-.166-.085-.707.004-.574.016-.659.376-2.593.206-1.098.44-2.346.517-2.766.076-.424.15-.8.161-.84.02-.065.105-.069 1.006-.069h.981l.065-.287c.036-.157.064-.302.064-.323 0-.02-.436-.036-.969-.036-.909 0-.97-.004-.97-.073 0-.04.074-.436.162-.88.09-.44.158-.824.154-.852-.008-.028-.15.012-.396.109zM38.7 5.326c-1.316.185-2.402.864-3.186 1.995-.997 1.441-1.324 3.517-.78 4.926.594 1.527 2.295 2.246 4.176 1.765 1.975-.509 3.385-2.427 3.587-4.882.153-1.89-.727-3.332-2.282-3.724-.376-.097-1.123-.133-1.515-.08zm.61 1.873c.384.138.646.521.723 1.067.093.682-.145 1.982-.505 2.746-.44.924-.932 1.336-1.542 1.284-.432-.037-.69-.226-.877-.634-.198-.424-.234-.913-.125-1.632.218-1.45.836-2.552 1.587-2.827.19-.068.55-.072.74-.004zm8.784-1.849A3.398 3.398 0 0046.2 6.578c-.105.137-.11.137-.11.04 0-.057.029-.327.061-.606.032-.278.06-.517.06-.537 0-.016-.48-.028-1.07-.028-.916 0-1.07.008-1.07.06 0 .134-.21 1.587-.339 2.343-.125.73-.4 2.193-.71 3.796-.065.33-.203 1.05-.303 1.595-.101.545-.23 1.216-.283 1.494-.053.279-.182.95-.283 1.494-.1.546-.194 1.03-.202 1.079l-.02.093h1.187c.654 0 1.2-.013 1.208-.033.02-.028.561-2.903.618-3.263.04-.258.056-.27.266-.178.541.239 1.47.295 2.153.126 2.152-.525 3.731-2.924 3.735-5.666 0-1.603-.614-2.666-1.736-2.997-.327-.097-.93-.117-1.268-.04zM48.09 7.4c.17.093.347.323.42.55.088.266.1.876.024 1.352-.25 1.62-1.11 2.896-2.044 3.03-.315.044-.8-.082-1.058-.28-.068-.052-.064-.104.11-1.098.217-1.24.334-1.752.488-2.136.477-1.208 1.345-1.801 2.06-1.418zM22.567 5.402c-1.207.25-2.088.941-2.427 1.906-.141.404-.178 1.046-.077 1.394.194.678.675 1.211 1.555 1.732.428.255.707.493.824.703.262.484.02 1.025-.521 1.17-.432.118-1.208.005-1.918-.274-.23-.089-.436-.15-.453-.133-.016.016-.15.384-.299.824-.23.662-.266.803-.222.856.077.089.816.367 1.216.456.52.11 1.777.101 2.29-.016.783-.186 1.332-.48 1.78-.961.513-.55.711-1.115.687-1.938-.012-.469-.02-.497-.17-.804-.193-.396-.698-.925-1.163-1.22l-.658-.42c-.392-.246-.57-.452-.61-.706-.032-.218.077-.48.263-.638.351-.295 1.2-.311 2.007-.033l.327.11.267-.812c.15-.445.27-.832.27-.86 0-.077-.367-.227-.747-.312-.493-.109-1.74-.12-2.221-.024zm53.359.005c-.448.052-.945.25-1.36.537-.287.193-.756.662-1.018 1.01-.13.173-.238.306-.238.298 0-.008.056-.371.12-.808.07-.436.122-.811.122-.836 0-.024-.146-.04-.36-.04h-.355l-.028.21c-.093.719-.368 2.314-.69 3.99-.053.279-.162.848-.239 1.272-.08.42-.262 1.401-.412 2.18-.145.776-.29 1.552-.319 1.717-.028.166-.145.788-.258 1.381a88.224 88.224 0 00-.206 1.099c0 .04.722.024.747-.016.012-.02.097-.437.186-.917.391-2.136.488-2.657.5-2.67.004-.008.117.033.247.085.424.178.832.247 1.43.247.645-.004.993-.085 1.554-.356 1.648-.791 2.875-2.859 3.09-5.181.125-1.401-.316-2.548-1.16-2.988-.371-.198-.86-.271-1.353-.214zm.796.803c.703.347 1.038 1.252.913 2.447-.182 1.68-1.018 3.352-2.125 4.229-.266.214-.767.464-1.082.537-.525.125-1.264.048-1.769-.186-.416-.194-.408-.162-.274-.844.06-.323.206-1.074.319-1.668.222-1.187.392-1.777.686-2.39.46-.958 1.14-1.721 1.85-2.076.485-.247 1.046-.263 1.482-.049zm7.366-.804c-1.11.101-2.132.626-3.009 1.547-.67.699-1.154 1.535-1.49 2.552-.254.768-.319 1.196-.323 2.04 0 .617.012.747.093 1.03.376 1.296 1.47 1.87 2.787 1.453.787-.25 1.546-.965 2.116-1.99.088-.162.17-.287.177-.28.013.013-.02.316-.064.68-.049.363-.093.86-.093 1.106l-.008.444h.686l.045-.848c.08-1.446.141-1.87.743-4.907.242-1.236.456-2.326.468-2.427.025-.186.025-.19-.109-.23-.254-.08-.577-.13-1.086-.17a9.55 9.55 0 00-.545-.032c-.02 0-.198.016-.388.032zm1.115.72c.068.015.125.064.133.1.028.137-.642 3.473-.784 3.901-.597 1.83-1.87 3.26-2.968 3.344-.707.052-1.179-.275-1.417-.981-.085-.255-.093-.352-.093-1.066 0-.679.012-.849.093-1.208.31-1.385 1.058-2.629 2.027-3.376.448-.343 1.13-.654 1.648-.747.226-.045 1.187-.02 1.36.032zm5.819-.716c-.687.101-1.406.72-1.91 1.644-.097.17-.174.279-.174.238 0-.069.133-1.232.182-1.575l.02-.15h-.344c-.323 0-.343.005-.359.09a26.55 26.55 0 00-.085.658c-.109.92-.202 1.442-1.324 7.358-.033.161-.049.303-.037.315.049.044.687.02.723-.032.02-.025.069-.214.105-.412.275-1.575.784-4.14.88-4.475.303-1.018.925-2.011 1.564-2.492.35-.262.621-.363.973-.363h.27l.069-.388c.04-.214.065-.396.06-.4-.044-.036-.415-.044-.613-.016zm9.829-.004c-.371.045-.581.11-.949.283-.549.266-1.106.771-1.502 1.365-.077.117-.145.21-.154.202a20.62 20.62 0 01.106-.8c.064-.432.113-.812.117-.84 0-.036-.097-.048-.352-.048h-.355l-.133.94a41.231 41.231 0 01-.23 1.442c-.053.279-.263 1.385-.465 2.464a691.683 691.683 0 01-.509 2.681 14.44 14.44 0 00-.137.816c0 .093.008.097.363.097.344 0 .364-.004.384-.093.012-.048.093-.489.182-.977.577-3.158.698-3.76.807-4.1.537-1.647 2.02-2.927 3.171-2.745.52.084.848.335 1.009.77.069.187.081.312.077.865-.004.578-.024.735-.17 1.494-.093.465-.23 1.192-.311 1.616-.08.42-.238 1.248-.347 1.837-.113.59-.21 1.123-.21 1.191l-.008.122.355.012c.259.008.36-.004.372-.04.02-.057.085-.396.662-3.506.46-2.467.456-2.443.456-2.928.004-1.256-.638-2.043-1.744-2.132a2.84 2.84 0 00-.485.012zm7.221 0c-1.551.186-3.009 1.846-3.562 4.071a5.311 5.311 0 00-.186 1.514c0 1.705.695 2.8 1.963 3.082.448.097 1.308.06 1.842-.077.387-.1 1.045-.38 1.098-.464.02-.037-.145-.554-.194-.606-.008-.008-.113.04-.23.109-.331.186-.909.36-1.345.408-1.11.125-1.862-.335-2.189-1.345-.101-.303-.109-.4-.129-1.163-.008-.46 0-.864.02-.9.029-.053.138-.07.598-.085 2.98-.114 4.503-.953 4.612-2.545.093-1.34-.856-2.168-2.298-1.999zm.82.756c.238.105.464.306.573.512.077.142.089.23.089.59 0 .4-.008.444-.133.695-.396.807-1.494 1.22-3.497 1.308l-.602.028.028-.153c.036-.194.222-.662.412-1.042.533-1.058 1.264-1.769 2.048-1.987.29-.08.839-.056 1.082.049zm5.952-.752c-.694.101-1.526.84-1.962 1.741-.053.11-.105.194-.118.194-.012 0 .017-.295.061-.658.049-.36.101-.76.113-.889l.024-.234-.351.012-.347.012-.069.606c-.089.796-.25 1.749-.703 4.099-.052.279-.181.949-.282 1.494-.101.545-.239 1.252-.299 1.575-.065.323-.109.598-.097.614.028.056.686.036.727-.02.02-.024.117-.477.21-.998.178-.96.355-1.894.573-3.029.065-.343.182-.811.259-1.041.295-.873.86-1.781 1.389-2.213.388-.324.642-.433 1.03-.46l.323-.021.077-.376c.04-.21.068-.383.06-.391-.04-.037-.412-.045-.618-.016zm3.348 0c-.993.118-1.858.84-2.092 1.757a2.321 2.321 0 00.331 1.858c.243.34.437.52.957.892.223.158.481.368.574.469.501.545.634 1.401.319 2.068-.477 1.01-1.765 1.312-2.916.686l-.25-.133-.141.307c-.077.17-.134.323-.122.343.037.056.473.262.76.351.432.138 1.179.158 1.651.045 1.22-.291 1.959-1.236 1.963-2.508 0-.877-.376-1.53-1.268-2.197-.594-.444-.84-.699-1.006-1.03-.121-.246-.129-.295-.129-.67 0-.356.012-.432.109-.634.21-.449.606-.768 1.103-.9.444-.114.892-.061 1.405.169.133.06.246.089.267.068.04-.048.246-.533.246-.581 0-.065-.388-.238-.654-.299a3.435 3.435 0 00-1.107-.06zm-65.418.125c-.008.029-.089.445-.178.921-.088.477-.318 1.676-.504 2.666-.19.989-.473 2.475-.63 3.303-.158.828-.275 1.522-.263 1.547.029.04 2.233.052 2.339.012.036-.012.064-.057.064-.097s.117-.687.263-1.438l.428-2.217c.089-.468.222-1.167.299-1.555.282-1.433.585-3.057.585-3.121 0-.065-.1-.069-1.191-.069-.921 0-1.2.012-1.212.048zm8.986.008c0 .049.278 1.58.787 4.317l.279 1.515c.076.416.197 1.058.266 1.425.142.772.15.735-.182 1.228-.472.71-1.369 1.393-2.233 1.7-.141.049-.206.093-.194.126.013.032.162.484.332 1.013.17.525.315.965.323.973.024.029.75-.242 1.025-.38.735-.37 1.563-1.078 2.197-1.877.586-.74 1.385-2.04 1.963-3.19.186-.372 3.025-6.434 3.174-6.777l.057-.13-1.256.009-1.256.012-.4 1.03a110.581 110.581 0 00-1.353 3.614c-.295.836-.42 1.143-.436 1.07a30.49 30.49 0 01-.085-.807c-.093-.961-.456-4.543-.484-4.757l-.025-.17h-1.252c-1.03 0-1.247.008-1.247.056z" opacity=".3" fill="#fff"/></svg>