<svg width="120" height="19" viewBox="0 0 120 19" fill="none" xmlns="http://www.w3.org/2000/svg">
<g opacity="0.3">
<path d="M11.3981 2.23344L10.8321 2.40646C10.7692 2.17053 10.6749 1.95033 10.5648 1.73013C10.1561 0.959437 9.57439 0.550497 8.86693 0.550497C8.81976 0.550497 8.7726 0.550493 8.72543 0.566221C8.70971 0.534764 8.67827 0.519036 8.66255 0.487579C8.34812 0.157281 7.95508 0 7.48343 0C6.55587 0.031457 5.64402 0.692052 4.90511 1.87169C4.3863 2.7053 3.97754 3.74338 3.86749 4.56126L2.05952 5.12748C1.52499 5.30049 1.50926 5.31623 1.44638 5.81954C1.39921 6.19702 0 17.0025 0 17.0025L11.5867 19V2.21771C11.4924 2.21771 11.4453 2.21771 11.3981 2.23344ZM8.72543 3.06705L6.77597 3.68046C6.96462 2.95695 7.32622 2.23344 7.76642 1.76159C7.92364 1.58857 8.15946 1.3841 8.42672 1.274C8.67827 1.80877 8.72543 2.54801 8.72543 3.06705ZM7.46771 0.629139C7.65637 0.613411 7.86075 0.676324 8.01797 0.770695C7.7507 0.912251 7.51488 1.10099 7.3105 1.32119C6.7288 1.95033 6.27288 2.92549 6.09994 3.8692L4.48063 4.37252C4.81078 2.89404 6.03706 0.676325 7.46771 0.629139ZM5.67546 9.0596C5.73835 10.0505 8.3324 10.255 8.47389 12.5671C8.58394 14.3916 7.51488 15.6341 5.95845 15.7285C4.08759 15.8543 3.06569 14.7533 3.06569 14.7533L3.45873 13.0704C3.45873 13.0704 4.49635 13.8568 5.31387 13.7939C5.8484 13.7624 6.05278 13.322 6.02134 13.0074C5.94273 11.7177 3.83605 11.7964 3.69455 9.68874C3.5845 7.91142 4.74789 6.10265 7.32622 5.94536C8.31667 5.88245 8.81976 6.13411 8.81976 6.13411L8.23807 8.33609C8.23807 8.33609 7.57776 8.03725 6.80741 8.08444C5.67546 8.16308 5.65974 8.88659 5.67546 9.0596ZM9.33857 2.87831C9.33857 2.40646 9.27569 1.76159 9.05558 1.19536C9.74733 1.32119 10.0932 2.12334 10.2504 2.5952C10.2347 2.5952 9.33857 2.87831 9.33857 2.87831ZM11.9169 18.9685L16.7277 17.7732C16.7277 17.7732 14.6524 3.77483 14.6524 3.68046C14.6367 3.60182 14.5738 3.53891 14.4795 3.52318C14.4166 3.52318 13.0646 3.49172 13.0646 3.49172C13.0646 3.49172 12.2471 2.68957 11.9326 2.39073V18.9685H11.9169Z" fill="white"/>
<path d="M60.447 1.59383C60.4026 1.60595 60.2411 1.64229 60.0836 1.67864C59.7605 1.75133 59.2315 1.98556 58.9488 2.1794C58.1613 2.72054 57.5757 3.77053 57.3334 5.05878L57.2607 5.44646H56.7277C56.4046 5.44646 56.1825 5.46262 56.1663 5.48685C56.1381 5.53127 55.8231 7.11432 55.8231 7.2072C55.8231 7.25163 55.9281 7.26374 56.3723 7.26374H56.9215L56.9013 7.35259C56.8852 7.40509 56.8327 7.69181 56.7761 7.99065C56.7196 8.28949 56.6106 8.87102 56.5338 9.28294C56.4571 9.69486 56.2713 10.6641 56.1259 11.4435C55.9806 12.2189 55.815 13.0912 55.7585 13.3738C55.7019 13.6606 55.6656 13.919 55.6777 13.9513C55.706 14.0281 57.9715 14.0361 58.0321 13.9554C58.0563 13.9311 58.1209 13.6444 58.1815 13.3213C58.3349 12.4652 58.3996 12.1219 59.0336 8.77814C59.1144 8.35411 59.2113 7.84527 59.2476 7.64739L59.3163 7.28393L60.1442 7.27182L60.972 7.26374L61.1255 6.40356C61.2103 5.93511 61.2789 5.52319 61.2749 5.49492C61.2749 5.45858 61.0811 5.44646 60.4511 5.44646H59.6272L59.7242 5.03858C59.8413 4.54186 59.9342 4.32783 60.1482 4.04514C60.3299 3.7988 60.6328 3.60899 60.9316 3.54842C61.1255 3.50803 61.4041 3.52822 61.7837 3.60899L61.9089 3.63726L62.1391 2.71651C62.2724 2.1794 62.3532 1.78364 62.333 1.76344C62.236 1.66652 61.8282 1.60191 61.1941 1.58979C60.8266 1.58172 60.4915 1.58172 60.447 1.59383Z" fill="white"/>
<path d="M27.8251 1.81998C27.8008 1.91286 27.4657 3.66149 27.292 4.59839C27.2395 4.87704 27.1062 5.59184 26.9891 6.19356C26.8761 6.79124 26.7388 7.51008 26.6863 7.78873C26.6338 8.06738 26.3874 9.35563 26.1411 10.656C25.5838 13.5879 25.5353 13.8423 25.5353 13.9352C25.5353 14.0038 25.604 14.0079 26.7064 14.0079H27.8776L27.9139 13.919C27.9341 13.8665 28.023 13.4263 28.1158 12.9377C28.6166 10.2643 28.8024 9.36774 28.9397 8.98409C29.3233 7.92199 29.9614 7.2597 30.5995 7.2597C30.9145 7.2597 31.1164 7.37277 31.2335 7.61508C31.3223 7.78873 31.3304 7.85738 31.3223 8.29353C31.3183 8.6166 31.2819 8.95986 31.2133 9.32332C30.5348 12.9135 30.3491 13.9513 30.3733 13.9756C30.3935 13.9957 30.9306 14.0038 31.5727 13.9998L32.7398 13.9877L32.7883 13.7252C32.8165 13.5798 33.0467 12.3521 33.3052 10.9993C33.7979 8.38237 33.8786 7.82507 33.8383 7.23951C33.7656 6.18952 33.2567 5.53126 32.3683 5.34146C31.4596 5.15165 30.4662 5.47473 29.6666 6.22991C29.4849 6.40356 29.3314 6.53279 29.3314 6.51663C29.3314 6.48432 29.4526 5.84222 29.816 3.95225C30.0825 2.57112 30.2198 1.84421 30.2198 1.77959C30.2198 1.74325 29.9574 1.73113 29.0326 1.73113H27.8453L27.8251 1.81998Z" fill="white"/>
<path d="M54.1472 1.90933C53.5495 2.09913 53.2022 2.53528 53.1658 3.15316C53.1335 3.69026 53.3395 4.1143 53.7393 4.32833C53.8766 4.40506 53.9695 4.41718 54.3127 4.41718C54.7004 4.41718 54.7368 4.4091 54.9993 4.27583C56.0008 3.76295 55.9483 2.22029 54.9185 1.91337C54.6762 1.84068 54.3652 1.84068 54.1472 1.90933Z" fill="white"/>
<path d="M94.4302 3.87194C94.2202 3.95675 94.0304 4.05367 94.0142 4.08194C93.994 4.11021 93.9213 4.45347 93.8527 4.84116L93.7234 5.54788L93.1096 5.55999C92.5685 5.56807 92.4958 5.58018 92.4756 5.64076C92.4594 5.70133 92.3706 6.16575 92.3706 6.2021C92.3706 6.21017 92.6452 6.21421 92.9763 6.21421H93.5821L93.5619 6.30306C93.5377 6.39998 93.2792 7.76496 93.0167 9.18243C92.9319 9.64685 92.7744 10.4666 92.6694 10.9997C92.4958 11.8882 92.4796 12.0214 92.4756 12.5949C92.4715 13.2006 92.4756 13.2289 92.5846 13.451C92.7138 13.7095 92.9077 13.9033 93.1742 14.0204C93.4084 14.1254 94.095 14.1577 94.4302 14.081L94.6523 14.0245L94.6402 13.7862C94.62 13.4308 94.6078 13.3985 94.4786 13.4308C94.418 13.447 94.2242 13.4591 94.0465 13.4631C93.6871 13.4631 93.5175 13.3945 93.364 13.1885C93.2873 13.0835 93.2792 13.0229 93.2792 12.4818C93.2833 11.9084 93.2954 11.8235 93.6548 9.88915C93.8607 8.79071 94.095 7.54284 94.1717 7.12285C94.2484 6.69882 94.3211 6.32325 94.3332 6.28286C94.3534 6.21825 94.4382 6.21421 95.3388 6.21421H96.3201L96.3847 5.92748C96.4211 5.76999 96.4494 5.62461 96.4494 5.60441C96.4494 5.58422 96.0132 5.56807 95.4801 5.56807C94.5715 5.56807 94.5109 5.56403 94.5109 5.49538C94.5109 5.45499 94.5836 5.05923 94.6725 4.61501C94.7613 4.17482 94.83 3.79117 94.8259 3.7629C94.8178 3.73464 94.6765 3.77502 94.4302 3.87194Z" fill="white"/>
<path d="M38.7005 5.32558C37.384 5.51134 36.2976 6.1898 35.5142 7.32055C34.5167 8.76225 34.1896 10.838 34.7348 12.2474C35.3284 13.7739 37.0286 14.4927 38.9105 14.0122C40.8852 13.5033 42.2946 11.5851 42.4966 9.12975C42.65 7.23978 41.7697 5.79807 40.2149 5.40635C39.8393 5.30943 39.0922 5.27308 38.7005 5.32558ZM39.3103 7.19939C39.6939 7.3367 39.9564 7.72035 40.0331 8.26553C40.126 8.94802 39.8878 10.2484 39.5283 11.0116C39.0882 11.9364 38.5955 12.3483 37.9857 12.2958C37.5536 12.2595 37.2951 12.0697 37.1093 11.6618C36.9115 11.2378 36.8751 10.7491 36.9842 10.0303C37.2022 8.58053 37.8201 7.47804 38.5712 7.20343C38.761 7.13478 39.1205 7.13074 39.3103 7.19939Z" fill="white"/>
<path d="M48.0936 5.34989C47.3708 5.51143 46.656 5.97584 46.1996 6.57757C46.0946 6.71487 46.0906 6.71487 46.0906 6.61795C46.0906 6.56141 46.1188 6.29084 46.1512 6.01219C46.1835 5.73354 46.2117 5.49527 46.2117 5.47508C46.2117 5.45893 45.7312 5.44681 45.1416 5.44681C44.2248 5.44681 44.0714 5.45489 44.0714 5.50739C44.0714 5.64066 43.8614 7.09448 43.7322 7.84966C43.607 8.58061 43.3324 10.0425 43.0214 11.6458C42.9568 11.9769 42.8195 12.6957 42.7185 13.2409C42.6176 13.7861 42.4883 14.4565 42.4358 14.7351C42.3833 15.0138 42.2541 15.6841 42.1531 16.2293C42.0522 16.7745 41.9593 17.2591 41.9512 17.3076L41.931 17.4005H43.1183C43.7725 17.4005 44.3177 17.3884 44.3258 17.3682C44.346 17.3399 44.8871 14.4646 44.9437 14.1051C44.9841 13.8467 45.0002 13.8346 45.2102 13.9274C45.7514 14.1657 46.6802 14.2222 47.3627 14.0526C49.5151 13.5276 51.0942 11.1288 51.0982 8.38677C51.0982 6.78352 50.4844 5.72143 49.3617 5.39028C49.0346 5.29335 48.4329 5.27316 48.0936 5.34989ZM48.0896 7.4014C48.2592 7.49428 48.4369 7.72447 48.5096 7.95062C48.5984 8.21715 48.6105 8.82695 48.5338 9.30348C48.2834 10.9229 47.4233 12.199 46.4904 12.3323C46.1754 12.3767 45.6908 12.2515 45.4323 12.0536C45.3637 12.0011 45.3677 11.9486 45.5414 10.9552C45.7594 9.7154 45.8765 9.20252 46.03 8.81887C46.5065 7.61139 47.3748 7.01775 48.0896 7.4014Z" fill="white"/>
<path d="M22.567 5.40221C21.3595 5.65259 20.4791 6.34316 20.1399 7.30834C19.9986 7.71218 19.9622 8.35428 20.0632 8.70158C20.257 9.38004 20.7376 9.9131 21.618 10.4341C22.046 10.6885 22.3247 10.9267 22.4418 11.1367C22.7043 11.6213 22.462 12.1625 21.9208 12.3079C21.4887 12.425 20.7134 12.3119 20.0026 12.0333C19.7724 11.9444 19.5665 11.8838 19.5503 11.9C19.5341 11.9161 19.4009 12.2836 19.2515 12.7238C19.0213 13.3861 18.9849 13.5275 19.0293 13.58C19.1061 13.6688 19.8451 13.9475 20.2449 14.0363C20.7659 14.1453 22.0218 14.1373 22.5347 14.0202C23.3181 13.8344 23.8673 13.5396 24.3156 13.059C24.8285 12.5098 25.0264 11.9444 25.0021 11.1206C24.99 10.6521 24.9819 10.6239 24.8325 10.3169C24.6387 9.92118 24.1339 9.39215 23.6695 9.09735C23.4999 8.98831 23.201 8.79851 23.0112 8.67735C22.6195 8.43101 22.4418 8.22505 22.4014 7.97063C22.3691 7.75256 22.4781 7.49007 22.6639 7.33257C23.0152 7.03776 23.8633 7.02161 24.671 7.30026L24.9981 7.4093L25.2646 6.59758C25.4141 6.15336 25.5352 5.76567 25.5352 5.7374C25.5352 5.66067 25.1677 5.51125 24.7881 5.42644C24.2954 5.31741 23.0476 5.30529 22.567 5.40221Z" fill="white"/>
<path d="M75.9264 5.40654C75.4782 5.45904 74.9815 5.65692 74.5655 5.94364C74.2788 6.13749 73.8103 6.60594 73.5478 6.95324C73.4186 7.12689 73.3096 7.26016 73.3096 7.25208C73.3096 7.24401 73.3661 6.88055 73.4307 6.44441C73.4994 6.00826 73.5519 5.63269 73.5519 5.60846C73.5519 5.58423 73.4065 5.56807 73.1924 5.56807H72.8371L72.8088 5.77807C72.7159 6.4969 72.4413 8.09207 72.1182 9.76801C72.0657 10.0467 71.9567 10.6161 71.88 11.0401C71.7992 11.4601 71.6175 12.4414 71.468 13.2208C71.3227 13.9962 71.1773 14.7716 71.149 14.9372C71.1207 15.1027 71.0036 15.7246 70.8906 16.3183C70.7775 16.9119 70.6846 17.4046 70.6846 17.4167C70.6846 17.4571 71.4075 17.441 71.4317 17.4006C71.4438 17.3804 71.5286 16.9644 71.6175 16.4839C72.0092 14.3476 72.1061 13.8266 72.1182 13.8145C72.1223 13.8064 72.2353 13.8468 72.3646 13.8993C72.7886 14.077 73.1965 14.1456 73.7942 14.1456C74.4403 14.1416 74.7876 14.0608 75.3489 13.7903C76.9966 12.9987 78.2243 10.9311 78.4383 8.60899C78.5635 7.20766 78.1233 6.06076 77.2793 5.62057C76.9078 5.42269 76.4191 5.35 75.9264 5.40654ZM76.722 6.21018C77.4247 6.55748 77.7599 7.46208 77.6347 8.65745C77.453 10.3374 76.617 12.0093 75.5105 12.8857C75.244 13.0997 74.7432 13.3501 74.4282 13.4228C73.9032 13.5479 73.1642 13.4712 72.6594 13.237C72.2434 13.0431 72.2515 13.0755 72.3848 12.393C72.4453 12.0699 72.5907 11.3188 72.7038 10.7251C72.9259 9.53782 73.0955 8.94821 73.3903 8.33438C73.8507 7.37728 74.5292 6.61402 75.2399 6.25864C75.7245 6.0123 76.2859 5.99614 76.722 6.21018Z" fill="white"/>
<path d="M84.0881 5.40627C82.9775 5.50723 81.9558 6.03222 81.0794 6.95298C80.4091 7.65162 79.9245 8.48757 79.5893 9.50524C79.3349 10.2725 79.2702 10.7006 79.2662 11.5446C79.2662 12.1625 79.2783 12.2917 79.3591 12.5744C79.7347 13.8707 80.8291 14.4442 82.1456 14.0282C82.9331 13.7779 83.6923 13.0631 84.2617 12.0373C84.3505 11.8758 84.4313 11.7506 84.4394 11.7587C84.4515 11.7708 84.4192 12.0737 84.3748 12.4371C84.3263 12.8006 84.2819 13.2973 84.2819 13.5436L84.2738 13.9879H84.6171H84.9603L85.0048 13.1398C85.0855 11.6941 85.1461 11.27 85.7478 8.23315C85.9901 6.9974 86.2042 5.90703 86.2163 5.80607C86.2405 5.62031 86.2405 5.61627 86.1072 5.57588C85.8528 5.49512 85.5298 5.44666 85.0209 5.40627C84.7423 5.38608 84.5 5.36993 84.4757 5.37396C84.4555 5.37396 84.2779 5.39012 84.0881 5.40627ZM85.2026 6.12511C85.2713 6.14126 85.3278 6.18972 85.3359 6.22607C85.3642 6.36337 84.6938 9.69909 84.5525 10.1272C83.9548 11.9566 82.6827 13.3861 81.5842 13.4709C80.8775 13.5234 80.405 13.1963 80.1668 12.4896C80.082 12.2352 80.0739 12.1383 80.0739 11.4235C80.0739 10.745 80.086 10.5754 80.1668 10.216C80.4777 8.83083 81.2248 7.58701 82.194 6.8399C82.6423 6.49664 83.3248 6.18568 83.8417 6.0928C84.0679 6.04838 85.029 6.07261 85.2026 6.12511Z" fill="white"/>
<path d="M91.0217 5.41026C90.3351 5.51122 89.6163 6.1291 89.1115 7.05389C89.0146 7.2235 88.9379 7.33254 88.9379 7.29216C88.9379 7.2235 89.0711 6.06045 89.1196 5.71718L89.1398 5.56776H88.7965C88.4734 5.56776 88.4533 5.5718 88.4371 5.65661C88.429 5.70911 88.3886 6.00391 88.3523 6.31486C88.2433 7.23562 88.1504 7.75657 87.0277 13.6728C86.9954 13.8344 86.9792 13.9757 86.9914 13.9878C87.0398 14.0322 87.6779 14.008 87.7142 13.9555C87.7344 13.9313 87.7829 13.7415 87.8192 13.5436C88.0938 11.9686 88.6027 9.40424 88.6996 9.06905C89.0025 8.05137 89.6244 7.05793 90.2625 6.57736C90.6138 6.31486 90.8844 6.2139 91.2357 6.2139H91.5063L91.5749 5.82622C91.6153 5.61218 91.6396 5.43046 91.6355 5.42642C91.5911 5.39007 91.2196 5.382 91.0217 5.41026Z" fill="white"/>
<path d="M100.851 5.40607C100.48 5.4505 100.27 5.51511 99.9022 5.68876C99.353 5.9553 98.7957 6.4601 98.4 7.05374C98.3232 7.17085 98.2546 7.26374 98.2465 7.25566C98.2425 7.24758 98.2909 6.88817 98.3515 6.45606C98.4161 6.02395 98.4646 5.64434 98.4686 5.61607C98.4686 5.57973 98.3717 5.56761 98.1173 5.56761H97.7619L97.6286 6.50856C97.5559 7.02143 97.4509 7.67161 97.3984 7.95026C97.3459 8.22891 97.1359 9.33543 96.934 10.4137C96.7321 11.4919 96.5019 12.6954 96.4252 13.0952C96.3525 13.4909 96.2879 13.8584 96.2879 13.9109C96.2879 14.0038 96.2959 14.0079 96.6513 14.0079C96.9946 14.0079 97.0148 14.0038 97.035 13.915C97.0471 13.8665 97.1279 13.4263 97.2167 12.9377C97.7942 9.77966 97.9153 9.17794 98.0244 8.83871C98.5615 7.19105 100.044 5.91087 101.195 6.0926C101.715 6.17741 102.043 6.42779 102.204 6.86394C102.273 7.0497 102.285 7.17489 102.281 7.72815C102.277 8.30564 102.257 8.46314 102.111 9.22236C102.018 9.68677 101.881 10.4137 101.8 10.8377C101.72 11.2577 101.562 12.0856 101.453 12.6752C101.34 13.2648 101.243 13.7979 101.243 13.8665L101.235 13.9877L101.59 13.9998C101.849 14.0079 101.95 13.9957 101.962 13.9594C101.982 13.9029 102.047 13.5636 102.624 10.4541C103.084 7.98661 103.08 8.01084 103.08 7.52623C103.084 6.27029 102.442 5.4828 101.336 5.39396C101.215 5.38184 100.997 5.38992 100.851 5.40607Z" fill="white"/>
<path d="M108.072 5.40637C106.521 5.59214 105.063 7.25192 104.51 9.47707C104.365 10.0546 104.324 10.3898 104.324 10.9915C104.324 12.6957 105.019 13.7901 106.287 14.0728C106.735 14.1697 107.595 14.1333 108.129 13.996C108.516 13.8951 109.174 13.6164 109.227 13.5316C109.247 13.4953 109.082 12.9784 109.033 12.9259C109.025 12.9178 108.92 12.9663 108.803 13.0349C108.472 13.2207 107.894 13.3943 107.458 13.4428C106.348 13.568 105.596 13.1076 105.269 12.098C105.168 11.7951 105.16 11.6982 105.14 10.9349C105.132 10.4746 105.14 10.0707 105.16 10.0344C105.189 9.98187 105.298 9.96572 105.758 9.94957C108.738 9.83649 110.261 8.99651 110.37 7.40538C110.463 6.06463 109.514 5.23676 108.072 5.40637ZM108.892 6.16155C109.13 6.26655 109.356 6.46847 109.465 6.67443C109.542 6.81577 109.554 6.90462 109.554 7.26403C109.554 7.66383 109.546 7.70826 109.421 7.95864C109.025 8.76632 107.927 9.17823 105.924 9.26708L105.322 9.29535L105.35 9.14189C105.386 8.94804 105.572 8.47959 105.762 8.09998C106.295 7.04192 107.026 6.33116 107.81 6.11309C108.1 6.03232 108.649 6.05655 108.892 6.16155Z" fill="white"/>
<path d="M114.844 5.41053C114.15 5.51149 113.318 6.25051 112.882 7.15108C112.829 7.26011 112.777 7.34492 112.764 7.34492C112.752 7.34492 112.781 7.05012 112.825 6.68666C112.874 6.32724 112.926 5.92744 112.938 5.79821L112.962 5.56399L112.611 5.5761L112.264 5.58822L112.195 6.19398C112.106 6.98954 111.945 7.9426 111.492 10.2929C111.44 10.5716 111.311 11.242 111.21 11.7872C111.109 12.3323 110.971 13.0391 110.911 13.3621C110.846 13.6852 110.802 13.9598 110.814 13.976C110.842 14.0325 111.5 14.0123 111.541 13.9558C111.561 13.9315 111.658 13.4792 111.751 12.9583C111.929 11.9972 112.106 11.0643 112.324 9.92949C112.389 9.58623 112.506 9.11778 112.583 8.88759C112.878 8.01529 113.443 7.10665 113.972 6.67455C114.36 6.35147 114.614 6.24244 115.002 6.21417L115.325 6.19398L115.402 5.81841C115.442 5.60841 115.47 5.43476 115.462 5.42668C115.422 5.39034 115.05 5.38226 114.844 5.41053Z" fill="white"/>
<path d="M118.192 5.4105C117.199 5.52762 116.334 6.25049 116.1 7.16721C115.939 7.79316 116.068 8.50392 116.431 9.02487C116.674 9.36409 116.868 9.54582 117.388 9.91736C117.611 10.0749 117.869 10.2848 117.962 10.3858C118.463 10.931 118.596 11.7871 118.281 12.4535C117.804 13.4631 116.516 13.7659 115.365 13.14L115.115 13.0067L114.974 13.3136C114.897 13.4833 114.84 13.6367 114.852 13.6569C114.889 13.7134 115.325 13.9194 115.612 14.0083C116.044 14.1456 116.791 14.1658 117.263 14.0527C118.483 13.7619 119.222 12.8169 119.226 11.5448C119.226 10.6685 118.85 10.0143 117.958 9.34794C117.364 8.90372 117.118 8.6493 116.952 8.31815C116.831 8.07181 116.823 8.02335 116.823 7.64778C116.823 7.2924 116.835 7.21567 116.932 7.01375C117.142 6.56549 117.538 6.24645 118.035 6.11318C118.479 6.00011 118.927 6.05261 119.44 6.2828C119.573 6.34337 119.686 6.37164 119.707 6.35145C119.747 6.30299 119.953 5.81838 119.953 5.76992C119.953 5.70531 119.565 5.53166 119.299 5.47108C118.943 5.39031 118.531 5.37012 118.192 5.4105Z" fill="white"/>
<path d="M52.7742 5.53544C52.7661 5.56371 52.6854 5.97966 52.5965 6.4562C52.5077 6.93273 52.2775 8.13213 52.0917 9.12154C51.9019 10.1109 51.6192 11.5971 51.4617 12.4249C51.3042 13.2528 51.1871 13.9474 51.1992 13.9716C51.2275 14.012 53.4325 14.0241 53.5375 13.9838C53.5738 13.9716 53.6021 13.9272 53.6021 13.8868C53.6021 13.8465 53.7192 13.2003 53.8646 12.4492C54.0099 11.694 54.2038 10.6965 54.2926 10.2321C54.3815 9.76364 54.5147 9.065 54.5915 8.67731C54.8742 7.24368 55.177 5.62025 55.177 5.55563C55.177 5.49102 55.0761 5.48698 53.9857 5.48698C53.065 5.48698 52.7863 5.4991 52.7742 5.53544Z" fill="white"/>
<path d="M61.7595 5.54345C61.7595 5.59191 62.0381 7.12246 62.547 9.8605C62.6237 10.2765 62.7489 10.9549 62.8256 11.3749C62.9023 11.7908 63.0235 12.433 63.0921 12.8004C63.2335 13.5718 63.2416 13.5354 62.9104 14.0281C62.4379 14.7389 61.5414 15.4214 60.6772 15.7283C60.5358 15.7767 60.4712 15.8212 60.4833 15.8535C60.4955 15.8858 60.6449 16.3381 60.8145 16.8671C60.9841 17.3921 61.1295 17.8323 61.1376 17.8404C61.1618 17.8686 61.8887 17.5981 62.1633 17.4608C62.8983 17.0892 63.7262 16.3825 64.3602 15.5829C64.9458 14.8439 65.7454 13.5435 66.3229 12.3926C66.5086 12.021 69.3476 5.9594 69.497 5.61614L69.5536 5.48691L68.2976 5.49499L67.0417 5.5071L66.6419 6.53689C66.0079 8.16841 65.7333 8.89936 65.289 10.1513C64.9942 10.9872 64.869 11.2941 64.8529 11.2214C64.8448 11.1649 64.8044 10.8014 64.7681 10.4138C64.6752 9.45262 64.3117 5.87056 64.2835 5.65652L64.2592 5.48691H63.0073C61.9775 5.48691 61.7595 5.49499 61.7595 5.54345Z" fill="white"/>
</g>
</svg>
